<mxfile host="app.diagrams.net" modified="2022-03-21T03:45:52.296Z" agent="5.0 (Windows NT 10.0; Win64; x64) AppleWebKit/537.36 (KHTML, like Gecko) Chrome/99.0.4844.74 Safari/537.36" etag="wpxQFG1YVUDVuxbTr23S" version="17.1.3" type="github">
  <diagram id="ZofOXf1Jytxb2lOAFDmL" name="Page-1">
    <mxGraphModel dx="1422" dy="794" grid="1" gridSize="10" guides="1" tooltips="1" connect="1" arrows="1" fold="1" page="1" pageScale="1" pageWidth="850" pageHeight="1100" math="0" shadow="0">
      <root>
        <mxCell id="0" />
        <mxCell id="1" parent="0" />
        <mxCell id="2FwoO6IogKESKcq6oNG8-2" value="" style="shape=image;verticalLabelPosition=bottom;labelBackgroundColor=default;verticalAlign=top;aspect=fixed;imageAspect=0;image=data:image/png,iVBORw0KGgoAAAANSUhEUgAAAvMAAANBCAYAAABtcDEdAAAABHNCSVQICAgIfAhkiAAAABl0RVh0U29mdHdhcmUAZ25vbWUtc2NyZWVuc2hvdO8Dvz4AAAAtdEVYdENyZWF0aW9uIFRpbWUAV2VkIDA1IE1heSAyMDIxIDA2OjA0OjU4IFBNIENTVLZCxiIAACAASURBVHic7N15WJT1/sbx9yg6g6bgyriCO2YqbomailpKWkpmSpmJmWW7pafoZCfPOb/Kdk5lWUfN3EtT7KRibqiluKMm4g64NIgLaODgwvP7g0V20ZBx8H5dF5fwrJ8ZEO75zuf5PibDMAxERERERMTplHF0ASIiIiIicmMU5kVEREREnJTCvIiIiIiIk1KYFxGRYmbnYOhb9AqazZmSPrVtM1OCBvJcxJWSPvNt61L0//gwqC9tvKpisVgob/XiLv+neT/8RNEOEP0lvdxdMPm+w+9F2Px06JPUsjRjuL7HIoDCvIiIFLfIiQx+6B1W2+wlfGI7S0cPZNR320gu4TPfrpLD36a7bwCvfbeao+4t6RMQwAPeFTi+/L8E92hDh8l7uFDYAey7+TjoH6xOKlowvxw5icFBM7ClFkv5IqWCwryIiJQadjRBW4mxb+Ht0R+yMak63b/axtHItSyeN4+F4VEcWPManc2n2DpmBJ9EFxTU7WyfMJrxm04X6XSnwv9BH/+Xixz8RW4XCvMiIiJy/SLmsHCfHbr/g6mjW+CabVV1v3/yYdCdkLqLz8OO5Lv7lfAJPB6yndp9+tAcU8HnsW1m1uhutOzxb1Yn1sHLQ9FFJDv9jxARuQ1dilnB56P7ZfU5u1mbcU/ga8yMzN3lvpuPfdwwWbrxkS0tz3GigrtgMlloMvkYABtGe2Nq8092YMDyp6hmMmEKmMUFYPuY9phMzRgRcYKtk1+kp3dtLBYLlbxa03fMNLYm5hxVTwt9EleTCdPolXkfgH0JD5tdMHmNIgwDYqbRy1KRhxefAOKY0ckFk6k1oyMLG8U9wMe+1TF5jWKVbQXj/ZpQxeJONZ8+vJu1XxJbp4/nMb+2NHB3xWQyYXb3pLHfEF4OjcrZQpL4I/0sLpgCZpFk28yU0f1oa62CJeOYgSGryLeLPJ9th0/fxqnwV2hoKoMpeGvuB8/B0A95MqMmi8Wdej59GDF5df7HzyOehQGNMGV8b3Luk8SG0e0y1k3lUCFH+ZO6dOzTnZ4BvjTKs9aCl48nFlKJj7Hl3TlxJc8EhbDX6ymmTHyAKuaCw/yGCU8w7Ov1nGo9jK8jwnnHp2aRHqXI7UJhXkTkNpMc/jbdffx56eul7LOk9zl38brEtu8/5AnfTvSZV1iEK1x9/6d4ZXhnrACe9/H0yy8zJvDObKO2iUQF9+OeZ2cQZ+1KUNBDdLUcY9l/RtLB7yV+SbzBNhn3lgSOeYmBzcoDlWk75CVeej2Ih62FjPhmsscyNfBx3ll7kMTUJM7EmLF6lQHiWRjYia4j3mFuZDL1/PozZMgAOntd4vjaH/jsoU50np7Pc2X7ief87mXU9K386dWKTt5VSNn5C9+/0g+vMStzvgCIWcBQ316M+nop0e6t6BPgRyt288OILnQOXsPZPG1DSWwY04MOD73GtxGnqeHbn4CATtSwrWf6s73wDpjE7/ZrPYceDJz8AQM9XGDxWJ4Ivdrmkhz2Nk99vQM8HmHa5BH5hPSr7vAby9ywNawa0y6ftUlEhu/Djpkm3tZc6+JZOvolptqa8ez0ifRwL1totW7eXXnl263ER87gaZ+q13hsIrchQ0REbh9nVxgjPc0G1DTu/nSrcTrbqqOLXjLamE0G5g7G/+29nLF0l/FR68oG5q7Gh39cyXO4Pa93NsBsNP7q6NWFO9422mAy6DMlx/G3vdzOAAyob3T79ncjJWtNrPHjkObp655ZkbX8yqIRhiVjWR4XfjYGli9r4PmUscxIy1xo/DigtgH1jSc2Xs67Tx77jY86Vks/r0dX48Vle4w//jhibFwTZZw2DOPymjFGA0wGzUYZoWfTsu13wTj41UOGFQw6fmTsznpuFxh9zWXTj9fxReOnI8lZe5xa9rLR3GwycHvQmJp1LJsxa0A9A8xG/Wf+ZxzP2jrR2Prp/enHB4PXt2StOT03KH255yPG9GzHNy7sM6YMaGaA2TC/d3X7wlw91rD0x5f1s1Hf6LXoVJGOUZBLOz42OpvLGLjdZ0zK9XNzeu6jhhWzUf+9Lenf6yNfpm/b8f+uPpcFSjRm97Ea0LSI32OR0k8j8yIit5EzoV8xOzYVBrzLojHtyD7OWTfgfaaMaQepWxgfsubmFTHgHeYGZe+xrs/Ayf9moJsLzP2GxTc6On/DzNQd8yWf+d+J1eqFr19zqgJ/JN5BxwF9eGzi2wxwzz7Cb6FR0ON0Ll8WjkRzLM/oeVOemfwpD3pVyFpSzf95RvpUhaR9bI7JaFeK/pEvw45Ds1F8E9KP2llbu9FuzLe80z13O0kcc0N+xkZNHpz8FcOzHR9LU0ZO/gcD3a6QGvIZodccnYeqgROZNKQRxM7k0QkLWTrmZabGpsLwSfwQUK1Iz1y+bCsZE/gvNqTeQfMJn/CcNVvUiJnNsNE/YOv+DkuC2+fosxeRG6MwLyJy27ATGb4DO2Y6BQ7IFh4zWWgb2C/9YsSITUWa8/v6mekU6J/33O738LBvdTi3iYWF9rnfDB709GueZ2ndgH8zN3QZswPqZFtqJz5mMyvmhXHElAb21LxTL1buiL937j+vNWlgNQN2LmTM2JkSsYrtqWngN4A+ltztQB4EBHbAkn1R4q8sjTwLlbvzqF8+7SbWe+jnUxXiNxEWnff6hvwe98CQEIZ6lOPCfwbR77soaDaK5SH9uOFmFttKXvAfxKR9dqoNn8bKMXdlW3mASUGvsZTOfDL5Fe4q8CAicj1cHF2AiIiUlCRstguAB3Wt7vlvYm1KA3MZ9ibGcAzjJgQuD5p4Vcl3udXqCpzgmM0O3FHsZy6Q2YO6BTwd2PezcvLXzA7fTnR0DNExMSRmn+PcnM8+Vdyoasm98OqGFzJGzWOibdgxY83TU56uqld9LEDWbP22eP4gDc7N5zHX+TxW4AOycyDGAJ8CN7jK+gCfhQxiyaNzSaQmD4R8Qm/3IlxnkI9L0bMI8n+WObGXqDZ8NpumP5ztRZudqImjGbv2T3y+/ZZX8rzYEZEbpTAvIiL5yJNGC3Cx2M98pUinLt67BrnmGRkn/eJUvxHMif0T3OrT0seH+/wG4+vrSyffP/mo9QgWFsO5Xa7n3lqpgFsr+vs3L7BFxbBY6ORV1ECeRETYThIBOMnP08M44T8on3dtCnc67HUeDPyIjUl30PT1JWyc2CvX6P5vfPLeelJx5XTIw/iEXF1jsscTnZoGkZ/xsM98yrn35svw9+lW2HSVIpJFYV5E5LbhhtXdAvzBMVsiUD3vJjG7OZKaBlYrdTGRPdSXySd0Jiaev84aEjluu0Dekfd4YmKSAU+8rblian5hNzGRRNPN7K1PYuGYsRmjzAvYNHkgjbIH/sQ52P9i1rR6W7GQyrEYG+TzHsgZW3zOh+7uQS1zGXaY7+bZed/gXwxhNyX0FV74bi80e5CHLGtZ9P3zjAjoxPLAOtfeOcPxeSO4L+g79tKE+79dyI9BLQrphT/H0Z07OZrfqtST7N95EjxaUbTbSIkIqGdeROQ2YsHHvy0WUtk4LyyfOcntbJ+3gr0Y4NMxI16asVjKQ2o8O225w/MBNkYkFHrGvDn8HKtCw/P2mduW8GPEafDoyEM+6X+aylgs6S8lbLHknv0+JeLX9H7zm2Y3qyPiwdyKZ4IDcgZ5IC3iV7anXiH/VxpFU9W3F23NZSB8MevyXLAaz7LQLTmPbu1AT++KcPIXvg1PyXtA+6+M92vL3X5PMz2mCM+N7WdGjZnNEXMThk+fy/zJr9DGnMAvY17h23zuKZCf02HPpgd5SwdGhq5maYFBvhdTki5iGEbejyNf0tlcBjr+H7sNA8M2g4c0Ki9SZArzIiK3kaoBzzLU0wyLx/JQyLYcIflY6Os8NXk7mFsxfnSPjKU1aeNTDdjPnJB52W4iFM9vE1/k/3bmjtmAxQ1Xswls0RzPr4h5Y3ksNNv87PbdTA36N0tTXagW9NLVi0G922eE3a95K+LqWO2l6AW8FPxjRmtIjhNjsZQDEjkQc7aIz0hB3NIvWE3dx7qIP3KsuRS9gGFjZmEDsIP9RvO898OM9feCff/l0eDsN5Syc2jyy7y1+FiuHZoQOOZe3Injh9EjmBGdPdDHs3rMOD5eu4Mtdk/ae13rz3s8S8e8xpzYi1QMmsQnvhUp6xvMF0FtIH4+T46Ze+0bUNl+5OWgqexNbcKD85Yyxb/oo/kiUowcOjGmiIiUuD/X/MPo5FbGALNRvVk3o/+QIcb9HRukz+luTp8DPofMOcPBKOvZyujevbvRxsPVwNzUGP7M/YZ77nnmL/xsDHUrZwBGOQ9Po/aAKcZx4+o88zU9PQ0zlY1a3fsbQ4b4px8LDJfuHxlbLmSfzz3RWJI5/zyVjSYduxl+HRsY7mDQfZTxWOvKueaZN4xD792Tvr3ZzfD0bGU8W+hc5BnzzJs7GP8+kncO/WPfDkyfh91c07hzwBPGM88MNx7t08awmk0GHk0Nb48yOeffz5xn3vMFY62RlutoV+fAf2TNpauLj8w3HvMsbwCGa+b3onVtw0xlo1kzqwHkmjfeZiwZ7pPxvapptOze3wgc4G908qyQMV/+fcYne5ONazm1aETOOeYzZbsPQee5xwo9xp7X22d8b8xGZQ8Pw6OAjxqvry+8GM0zL/KXaGReROQ2U9Hvn6yNDOPz4b2oa9/N8tBQ1tsq0Wb4O8yI2MHaoBY5d/B5leXh03m1T1vqJe5nY2Q0F30eJyR8I9MCvPKewNKP9yePpodnFcrG2zhhs2UboTdTZ8ISVn46GG/br4SGbiTB2pWgr1YRGz6W9jnaWdzoOz2MFe89To9mFYmL3MRWWw16vL6AQ2Fv0tlSPs+pG47+hA8HtMPKOWJtNg7+hRH6OkGzWTF3HA95V+RE2Ay+nh7KiphytB39Bb9ERjDJvzGk7mRheD7vThSV1yBmR6zks2f64p24i+WhYWziLoK+Xc2Po1tgwYy7JftUOx70nR7O7rkf8KhvHc5H/sKisDXs5i56PDOJXyLDeMW7QoGnA8D2My+PnoWNmtwb8l7OOfTd7+WzkMewcpINY54tpN0mjjXhMRmfp3IuPp74Aj4SEm+8FUlErs1kGEZJ351DRERuQ9vHtKfdf36n9bfHiAzK5+Lb2409nuiYC7hZPamVz3SQG8a0ost/Yum16DgrA0pwqk4RcSoamRcREXEE+yrG+jSmts8Qvs81An4+chJvTY+Cyn14zK+igwoUEWegqSlFREQcwb0fY4Nasfrr+QR6b+JjXx8auptIitlHxKZoEs316T39PZ68wZs4icjtQSPzIiIiDuFGz8nLWP/tWB7yqcjRiF/4/vswNsSk0WLIS3wTvoPlgY0cXaSI3OLUMy8iIiIi4qQ0Mi8iIiIi4qQU5kVEREREnJTCvIiIiIiIk1KYFxERERFxUgrzIiIiIiJOSmFeRETkJoiKinJ0CSJyG1CYFxERKWbJyclMnjzZ0WWIyG1AYV5ERKSYbd26lVOnTml0XkRuOoV5ERGRYrZs2TIA1q5d6+BKRKS0U5gXEREpRgkJCcTFxQGwfv16kpOTHVyRiJRmCvMiIiLFaOvWrYV+LSJSnBTmRUREilHu1pqwsDAHVSIitwOFeRERkWKSvcUmU2xsLAkJCQ6qSERKO4V5ERGRYpJ9VN4wDAzDAK5eECsiUtwU5kVERIrJunXrgPQgbzKZ8iwXESluCvMiIiLFIDY2llOnTgFkBfnMf1NSUnQhrIjcFArzIiIixSCzxSaztaag9SIixUlhXkREpBhca+R927ZtmnNeRIqdwryIiMhflL3FBq5e/Jp7lF698yJS3BTmRURE/qLsLTQmkynHR3aa1UZEipuLowsQERFxdgkJCQwcODDr66ioKPbu3UuNGjXo1q1bjm2Tk5OpWLFiSZcoIqWUySjoSh0RERG5IQsWLGDhwoU0b96ct956y9HliEgppjYbEREREREnpTAvIiIiIuKkFOZFRERERJyUwryIiIiIiJNSmBcREblJ9u7d6+gSRKSUU5gXEREREXFSCvMiIiIiIk5KN40SEZFiERsbS3JysqPLuCUkJCRkfR4VFeXASm4dJpMJT09PKlSo4OhSREoV3TRKRERuyIULF1i2bBlRUVEcOnSI1NRUR5d0yzAMA5PJlPWvXGW1WmncuDFdu3alZcuWji5HxOkpzIuIyHVbv349c+bMISkpydGliBO7++67GT58OFWqVHF0KSJOS2FeRESuy2effUZERAQA5cpbaN+1Lx51GuBRxwuzRS0UUrDTJ0+Q8Ecs0bsiiDv4OwDlypVj/PjxNGnSxMHViTgnhXkRESmy9evX89VXXwFQ27Mp/oOe5o7KGlWV67dn+3rWLp3L5Uup1KxZkw8++IDy5cs7uiwRp6PZbEREpEjOnj3L9OnTAajuUZeBw8cpyMsNa9G2K32HPAvAyZMnmTt3roMrEnFOCvMiIlIka9as4cKFC5QpWxb/R56lTNmyji5JnJxXk5bc2fYeAFauXMnly5cdXJGI81GYFxGRIjl06BAADZq2pmoNq4OrkdKiTac+AFy5coXY2FgHVyPifBTmRUSkSA4cOACAR50GDq5ESpNqNWtT1qUcAIcPH3ZwNSLOR2FeRESuKTExkT///BOAmgrzUsysdRsCcOTIEQdXIuJ8FOZFROSaUlJSsj4vX97iwEqkNMqc0jTzBaOIFJ3CvIiIiIiIk1KYFxERERFxUgrzIiIiIiJOSmFeRERERMRJKcyLiIiIiDgphXkRERERESelMC8iIiIi4qQU5kVE5LZnLHkCv6YV6NS0Ap06Pc+G1MK3T9v0Ig9kbv/cPJIylpvYyhc93OjUtDXv7E0r0rkPvOObfpz8Pu6qRc8erRn93Di+3/THX3uQIlIqKcyLiIhkd3oJoZEphWyQSuTC1Zwu7vOWd6NqdY+cH2Y7accPsHPll4QM68TQuXuL+6wi4uRcHF2AiIjILaOSG5XOn2T9ks3YO/qR371uy6T+xvL1Rylf3szFi9cYwr8ejy5kyZud8p7v3AFWffQk783bxuGPXuOHe39icA1T8Z1XRJyaRuZFREQydXyQLtXLwvr5bC8gp1/ZtIjfTlWkTbeOmEugpLTKTej5r68Y4e0K539lwXq124jIVQrzIiIimcr3onfXenB8VQGtNqnsWLKa05Xuofe9dShfQmUZNKFBw0oAnDiXdI2tReR2ojAvIiKSxUybfr2oRlx6q02utZktNnR8mHsqldyfUBO72R2dBJhpWMOjxM4rIrc+hXkREZFsynR8iC7VXfJttbmybi6/napIk369qWQumb71S8d+5acxo5l9OBWq38fArlVK5Lwi4hx0AayIiEg25c1d6NO1Hj8tSm+16dyxQsaaVDYt+Y3Td9zLi12rYI4s5hPPHUi/JTkvub14LpE/My+yLV+ftm++T0BlXfwqIlcpzIuIiORgpk2/nlRbNJX1SzZDRz8AyqSuSm+x6fYuvjcjUF9M4sypXP3w5d1wa9iKJq274h80ln7NNSovIjkpzIuIiORStuNDdKn+HT+t+x+/4UcX4MK6Rfx2viKt+vXG7WacdPgqNuYzNaWISGHUMy8iIpJLWkarDSeWEBaZBiSxY0k456vfx0PdKlxzfxGRkqIwLyIikkdGqw1xrFyyiTLnfmP5eht0HYpfSUwuLyJSRArzIiIi+SibNavNAiLWL+S389W4u1+3fO8KKyLiKArzIiIi+chqtTm8hE8+X8r5avcR0FEtNiJya9EFsCIiIvm6OqtN7GEgcCiditxic4CwkY3YUMBae+WB/CvsY7oUT6EichtTmBcRESlA1qw2p2rTtd/d19Vic/lUPGcKWmk/R2pB60REroPJMAzD0UWIiMit7cSJE4wbNw6AwaPGY63bwMEVSWny89wvOBy9g/bt2/Pqq686uhwRp6KeeRERERERJ6UwLyIiIiLipBTmRURERESclMK8iIiIiIiTUpgXEREREXFSCvMiIiIiIk5KYV5ERK7Jzc0t6/OU5HMOrERKo+Q/03+m3N3dHVyJiPNRmBcRkWuqWLEi1atXB+DUH7EOrkZKEyMtjYQTMQA0aKD7F4hcL4V5EREpEi8vLwBO/hHn2EKkVDlzykZa2hXg6s+YiBSdwryIiBTJfffdB0Dsgd2cPKHReSkeG1cvBKBevXoK8yI3QGFeRESKpGXLlrRt25YrVy7z89zPSflTvfPy12z/bTmH9+4A4Omnn8ZkMjm4IhHnozAvIiJF9vjjj1O2bFn+PHeWWV+M5/C+nY4uSZzQxdQLhC34hl9/+QGArl270qhRIwdXJeKcTIZhGI4uQkREnMcvv/zC9OnTs76u27A5teo2pEbtBlhcKziuMLmlGYbBmZPHOXkiltiDv5PyZxIAtWvX5q233soxY5KIFJ3CvIiIXLdDhw7xxRdfEB8f7+hSxIndf//9BAYGUq5cOUeXIuK0FOZFROSGXLp0iaVLlxIbG8sff/yBzWYjNTXV0WXJLaxatWpYrVasViudO3emefPmji5JxOkpzIuIiNwEwcHB3H///XTv3t3RpYhIKaYLYEVERIpZQkICcXFxbN261dGliEgppzAvIiJSzJYtWwbAtm3bSE5OdnA1IlKaKcyLiIgUs+wj8uvWrXNgJSJS2inMi4iIFKOtW7dy6tSprK8V5kXkZlKYFxERKUZbtmzJ8XVsbCwJCQkOqkZESjuFeRERkWKSnJzMtm3bgPSbJGVOGJfZQy8iUtwU5kVERIrJ1q1bSUlJyXe5iMjNoDAvIiJSTDJDu2EYmEwmTCYTAKdOnSIqKsqRpYlIKaUwLyIiUgwSEhKyWmwyQ3x2a9euLemSROQ2oDAvIiJSDLK30mS/uXrm55lBX0SkOCnMi4iIFIPMkffMFptMmZ+npKRodF5Eip3CvIiIyF8UGxtLXFwckH+LTSZdCCsixU1hXkRE5C8q6oj7tm3bSE5OvsnViMjtxGRkb+wTERGR6xYbG5sjpK9duzbrzq9vvfVWjm09PT2pWLFiidYnIqWXi6MLEBERcXaenp45vo6Kispqt7nzzjsdUZKI3CbUZiMiIiIi4qQU5kVEREREnJTCvIiIiIiIk1KYFxERERFxUgrzIiIiIiJOSmFeRERERMRJKcyLiIiIiDgpzTMvInIbstlsnD59mlOnTnHmzBmuXLni6JJKlaioqKzPFyxY4MBK5GYoV64c1apVo1q1atSoUYPq1as7uiS5jekOsCIipdzFixfZt28fe/bsYc+ePRw+fBj96r+5DMPIummUlH4uLi40bdqUFi1a0KJFCxo1akTZsmUdXZbcJhTmRURKsZ9//plFixZx4cKFHMvLlStHhQoVsj7KlFHXZXE6ffo0Z86cAaBJkyYOrkaKW1paGsnJyaSkpJCSksLly5dzrHd3dycwMJBu3bo5qEK5nSjMi4iUQhs2bGDevHmcOnUKAIvFgre3Ny1btqRFixZUqlTJwRWWbkuWLGHp0qUATJo0ycHVyM126tQp9uzZw+7duzlw4EBWuK9bty4jRoygefPmDq5QSjOFeRGRUiQlJYXPP/+cnTt3Aukhvnfv3vTq1QsXF10mVVIU5m9fKSkpLF26lHXr1mVdi3LfffcxbNgw/R+Um0I/VSIipURsbCyffPIJCQkJAHTu3Jn+/ftrFF6kBFWoUIFBgwbh5+fHggUL2L17NytWrODgwYO8+uqrVKtWzdElSimjJkkRkVJg8+bNvPHGG1lBfsSIEQwdOlRBXsRBqlevzujRo3nwwQcBOHLkCMHBwRw4cMDBlUlpozAvIuLkDh8+zBdffAGkt9W8+uqrtG/f3sFViQiAv78/w4cPp2zZsiQnJ/PBBx9w+vRpR5clpYjCvIiIEzt9+jQffvghly9fply5cowdO5ZGjRo5uiwRyebuu+/mueeeAyA5OZn3338fu93u4KqktFCYFxFxUhcvXuTDDz8kKSkJk8nE6NGjqV27tqPLEpF8eHt7M2TIEACOHTtGSEiI7vcgxUJhXkTESf3444/ExcUBMHDgQLy9vR1ckYgUplu3bnTu3BmAXbt2sXbtWgdXJKWBwryIiBNKSkoiLCwMAC8vL3r27OngikSkKAIDA6latSoACxYsyHPDKZHrpTAvIuKEFi1axKVLl4D0cCAizqFs2bIMGDAAgDNnzrBq1SoHVyTOTvPMi4g4mcuXL7NmzRoA2rdvT7169RxcUbqjR4/qor4M2Wcr0VSE6UwmE3Xr1sVisTi6FIdr3749K1as4NixY/zyyy/06dPH0SWJE1OYFxFxMjt37swale/Ro4fD6khJSWHlypUcOnSI2NjYrJokp5CQEEeXcEvx8PDA09OTLl260LhxY0eX4zC9evXiu+++448//uDEiRO6eF1umMK8iIiT2bp1KwCVKlXCy8urxM9vGAa//fYbP/20mOTklBI/vzi3+Ph44uPj2bx5Mx06dGDgwIFUrlzZ0WWVuFatWmEymTAMg61bt9K/f39HlyROSmFeRMSJZP7hB2jTpo1Davjqq6/Ys2cPABVdXRjQswGN6lWmUV13ylvKOqQmcQ7H//iTw8eSWLf1BHsOnWXLli3s3r2bcePGUatWLUeXV6IsFgve3t7s3buXLVu2KMzLDdMFsCIiTuTkyZMkJycD4OPjU+LnDw8PzwryrZtV49PXuvBAjwY0b1xNQV6uqU6tO+jaoQ5vjm7PiABvyrmUwW638+2333LlyhVHl1fiWrduDcChQ4c057zcMIV5EREnkpiYmPV5SV/4mpCQwKJFiwBo6unG60+15Y5K5hKtQUoJk4n77qnPs0NaAHD8+HGWLVvm4KJKXvb/w+fOnXNgJeLMFOZFRJzI2bNnsz6vUKFCiZ57/fr1XL58GXP5Mrz8eCswmUr0/FL6+LapRfsWNQFYuXKlg6speXfccUfW59lfqItcD4V5j6e3rgAAIABJREFUEREnkvkHv1KlSiV+7tjYWAB8W3lQpYpriZ9fSqeAHl4AXLp0CZvN5tBaSlrFihWzPk9KSnJgJeLMFOZFRJzI+fPnARwyV3dmmG9c363Ezy2lV4N6lSlbJv1dnsyfsduFq+vVF8UK83KjFOZFRJxIWloaAGXKlOyv75MnT2bNI9+wnsK8FB9T2TLUr5XebhIXF+fgakpe5v/ly5cvO7gScVYK8yIick0pKVfnk69g1qw1UrwqupYD4MKFCw6uRMT5KMyLiIiIiDgphXkRERERESelMC8iIiIi4qQU5kVEREREnJTCvIiIiIiIk1KYFxERERFxUgrzIiIiIiJOSmFeRERuGWd/mIprnRGY6rzOM9su3eBRzjNt0N8w1RnPvw4W7UY8e9/9GFOdUbSdcfK6znR8zQqGPhhMlYajMDcfR4dnf2LNySsFbr/h7Xcx1RmBqdsMVtvTCj7wwfV0aTgSU7c57MC4rppE5PaiMC8iIreIM8yZGYXd7IKFk3wzcycXHV1SIc4snk7Xx+cyZ88lmvrdRZcaF9n60yJ6DprNmqRCgjrAofUMfW/fLf34nEn2m5qJ3G4U5kVE5NZwcBdTt5+FPt0Y2cgCy9fzQ1LBo9yOFce7727iCLV5ev6/2TTtZVavm8DUTjXh0HrGL0+6xv6Xsc2czovbFEJvVEpKCqtXr+a9997jm2++cXQ5Ig6jMC8iIreE7T9sYgdm7vX350l/LzgXxaeLbY4uK39JCexNuAQ16vFgO9eMhVXp4WfFAhw9ea7Q3T3qVsOSepJvghewsbB2G8lj48aNfPPNN/ztb3/jxx9/5NixY44uScShFOZFRMTx7IeYtvgIVG7KYL+qtB3QijZcYfvMLYX2jCfv2cz4J9+juc/zmJuPo9XQmczdc77g85w8yJTgz2nT8RUsDZ+j3oOTeGfNMS5cb1+6W23a1jVDwn7mb8gM7ufZsf0UdirTo22NQnZ2of5TQxh3Z2WIWs+wT66z3cZ+kp+/mEHP+17L6tVvPegb3g07muc4O95+F1Od8fx7TzxLgz+iQfOnqdzxLQJ+OAFrfqBKnVG0m3Gc09t+5fmh/6JW86cxNx9HyycXs+zoFeAyJ8J+YmDGdQFuPm9x79u/EW0v2T7+/fv3M3PmTMaNG8esWbPYuXNniZ5f5Fbm4ugCREREjI3b+PFYKvTvwBC3suDWnpFtV/LC9vWEbOjNd50r5NnnTNg87nnuF/amlqVe2xY8XCON6O2/8tig32lT+SxgzbnD0S08POi/LDx2iTsaNcW/T0XO7dnHvx//gFmNyl5nxbV4ZWwHpjy3lhmvzKTPgsFYp8xi5PKT1HtkNB/kU292V8y1+efEPix5ZAE7pszm9T5/59N2he8DwMnfeWrQZKYeSqZcjbr09GtDhdQENm6M4M2RO5gx7CnWTmyHR46dLrH948m8uzwGO8C5JMrXcLu6dvkCuk7YycHKdejSoiG2g0f4fXkofY8mMX9wMi9O2M7lOxvi09ZC9PY4Vk2ZQqckC7Eh7ah8nc/a9Th9+jTh4eFERkZy5syZHOsMw8BkMmX9K3I7U5gXEREHu8CiH3ZhoxKPDG6TERBr8NgjTRi3fRNzZu7i886+OYNj0h5eCl7N3tQq9P9yLIsH1E5fbj/B1JGTeCo8d6/9eeYEL2ThMYNmw17IFngvsP2LqfR6bxvX+yex6oAhzF5zlF7ztzG0+zagJn3feIlpL7TMFabzV6Zdb6Y8FUWXSXsICV7M4P8NoZOlsDfMzzPnldlMPZRM9f5PsP5TP7wt6UH2ysEtPDF0CnNmTmFY2/r8Mjj7OwMnCV1elfsnvMrkwfW5uOcUl9tWgI0Al9kd/jvNhj3P0cznJCmap3p/ytSoNTzyXk36f/lP5g+oTXkgbdtSuj7yIxuWr+OnJB8ed7veF0GFu3z5MqtXr2bTpk35ts9khvfcAf7YsWOEhITc0DmtViuBgYE3tK/IrUBtNiIi4lgn9zB1uQ3q+jC6k2vW4ioDOtG3sguXw9fzfa7pHi8sj+DHhEvQ/xFmZgZ5AEttRn76EH3NuULm0Z1M2ngS6nbiywltsoVtV9q+MITxbatcZ9Hn+e2/83hh+ZH0L1OBRj6Mf6pFkYJ8Ohfavjo4o91mNY9/crjwdpuD2/hoYzzU9WX6p92zgjxA2cYdmDWxFw1IZcV/fyM6d9uQXz++HdWS+m5uNO7cKMe+1GjPx9mfEzdvnvT3zNjvAWZmBHmAMu068FgLd0g9zeGE4m21MQyDw4cP59sHbxhGoaPwFy5c4MCBAzf0sX79euLj44v1sYiUJI3Mi4iIQ/0RtpXVqVew+neiZ/aRabemjPSrzcKf9vPJYhujRtXJWrVxw1HsuNC5R7O8rR41m/Fw2yos3Xh10YXth9iemgadWnFPntHvGgzsU49x26OKVrD9JHOem8TI5XGY7mzHV2PbsPXduUyN+oX+r9Tj96/uwYMEVs7YR3LjBvToXKfgdhRLff45sRdLHgllx5TpvDbgTUJauOa76YXth9ibakCndtyXzwi+qVNretZYxdRDB1h/Mg3vmpkvaFyo16lRwS8yWjShfa7j1arhCrhwZ9v6uWq3UKVyWUiFM6nFG+ZNJhNNmzZl0KBBREREEBERwfHjx7PWQcHtNVWrVqVjx47Xdb7z58/z66+/AnDlyq06a5LItSnMi4iIAyUwZ/5+7MDlDaH0GLQ4x9rUk2eAy0TPXMuOUY/SBhNwAVtCCuBK47oV8zlmJbzqugJXZ4mxZcwuU6Ome9Yoc3bWelWxFLHiqCmzGbk8joudAvh11oN0spThSuM0jjz4Hat/mk3PFlY299jPS28sYG+NjqyKGJXzRUouZdr1ZeqwKDpP2cd/gpcTNH8APvlsl/4YXKjXuEa+jwFLVZrXqAAJSfxxzoCaV1fVq1lId3vlChT0voSlcu6YcPNjQ4UKFejZsyc9e/bk9OnTrFmzhp07d3LmzJmsAJ97hL5atWo88MAD13WeY8eOZYV5w9CNucR5KcyLiIjj7NnK1O2JAJyK2k94Qdsd2kbIhoB8L4TNjytlyR7mr6WoQR7imDZzP3ZqMuaNvlk97mUbd+V/X56k/cglRL33FfcsNtiLwR3+nfJ5JyA3F9q88QjPr/kPH29fwtApd7HLv8gF5WXOu6iCuZCLRM0u+b84uAVUq1aNQYMGMWjQIPbv309ERAQ7d+7EbrcDeUO9yO1IYV5ERBzkMjt+2MFeDOq9MYG4Fzzz3WrH2xNpO2UfM7IuhHWlQb07gLMcPJYMeaLoBY4k5FxuzRiZTjh6ios0zrOH7WQh01lmZ0/kyMlLYK7OnY1zhvQKPQaw5I142k7YQmQUYG7CW8/fWbSgbGnEBxN7sfTxxUR9MpsP6t2dZ5P0x3CZowcTuIhn3uPaz7A3IQWoTa0apS/kNm3alKZNmwLpc83v2rWLXbt2ObgqEcfTBbAiIuIY9kNMWhwLZi+e8q9T4GZtBrdOb69ZfvVCWJ9OnrhzmQ2Ld5Dn0sWkwyzdlphjkWvbpnQ2l4GNO1mR5yZNZ1i2PDZ92sZrsbjToGY5SD3MD+G5XwC40GBYLx6umxGzK7tSlaKH6jKd+zF1cBNIjeHtt1dxODVnna5tG9HcbIKN2/J5DJCyMZIlCRehURPau5XuP++dOnXimWee4V//+hcPP/wwdevWdXRJIg5Tuv+3i4jILetC+FZ+TLgILdozuHEhUxy2aM/Qtu6Qup9PFqfPcuLa5x5GNnKF8FCGz4i7OguM/QwLgxcw+/ylnMeo58PYPnUhYSvPBW8gNuumR5eJmrGANzeeKmLV9XlyWFMs2Fn59rdM2nMha03ywd2Me3waU49dxGx2gYRdPD10CrOPFvXiShc6vTGY5xtZuJRwmjz3vm3cjnGdPODYVl54ZUOOGzddObiFUcGrsWGh67C7M64tKP2qVatGz549GTRokKNLEXEYtdmIiIgDnGfRD3tIxAXv/j54Fxo+a/DYI00Zv30T0TN/Y8Oo+nS2NOKDTx9gw+M/svyNf1NnZjPubVye2O1RbEyoju+drkTkmJzGlb4TH+X5g5OYNH8qjTeupl/bGlw8eJDVURdo07YWtu0JRar8zqeG8sXGUzwVvosXer/KB3fWomrqWaIPJWLHBY8+j7J8YgNmDv2cj6MieHxQOdzXBtHvmr3zgFsjPph4H6sf+Zm9ee5KW4nHPh3KhqFfM+mnqbTauJyebWtl3DQqFltqWeo/8iTzn6id76FFpHTSyLyIiJS8k3uYGh4P5gY853/tmdlr+benp7ls+oWwa1KA9Flg1v9vLB8+4k31hCMsWn6IU/XaMmn+K7zTonreg7h588WCYBY834UO5rOELd/NFmox6tNx/PhU06JfBGupycjZwfz6Xh/uv7My5w4dJSohjXqd2jPuyzfYP603rWs24aPZL/FmpwbcN9a/aEE+Q4XO9/PFsIb5r6x5F18seIuf3+jKPZWT2RS+g5/3nKdGp658MvVtDoR0vI557kWkNDAZmo9JRMRpfP/99yxevBgPDw/+8Y9/lNh5Y2Ji+PDDDwH49LXOeNS8o8TOLaXfu5O38vvBM3Ts2JEnnniiRM557Ngx3nvvPQD+/ve/U6dOwddt3EwvvvgiaWlpjBo1ih49ejikBnFuGpkXEREREXFSCvMiIiIiIk5KYV5ERERExEkpzIuIiIiIOCmFeRERERERJ6UwLyIiIiLipBTmRUTkmtzc3LI+Tzx/sZAtRa7f2XOpAFSuXNnBlYg4H4V5ERG5pipVquDq6gpAzPHzDq5GSpMrl65wIiEZgPr16zu4GhHnozAvIiJFkhm0jhw/5+BKpDQ5cvw8mbevrFu3rmOLEXFCCvMiIlIknTt3BiBiVzzxJ5MdXI2UCobB/OUHAWjYsCE1a9Z0cEEizkdhXkREiqR9+/Y0btyYi5fSeH/aDi6kXHJ0SeLkFoQdZPeBMwA8+uijDq5GxDkpzIuISJEFBgZiMpmwnUrh1Q9/I+rAaUeXJE4oJfkSH03bwcJVRwDw8/Ojdu3aDq5KxDm5OLoAERFxHrVq1aJ///4sXryYpPMX+b+vt9G6aVWaeLrToG5lXC36syL5S0szOBb/J4ePnmNH9CnOJ6e/s1O3bl369evn4OpEnJd+64qIyHXp3bs3DRo0YMaMGZw5c4ad+9M/5CrDMDCZTI4u45ZmMpno3bs3/fr1o2zZso4uR8RpKcyLiMh1a9KkCePHj2f16tUcO3aMhIQETp48yaVL6qOXglWtWpWaNWtSs2ZNfH198fT0dHRJIk5PYV5ERG6I2Wzm/vvvd3QZt6QlS5awdOlSACZNmuTgakSkNNMFsCIiIiIiTkphXkRERETESSnMi4iIiIg4KYV5EREREREnlX+Yj3iDhqYymEymIn540C/8cgmX/tcdC32Lvj51qGIxYXa34jlxq6NLEhEREflLDk/shWuRM5wJk7k/U+2Go8u+TvH8NnEYnb2q4mqyUM7ajBHhyY4uyiEKmM3GjNXTg5Qc39hUkuITsWOmsoc7rtnWGHhQEyebTzdmGsMD32V1ahouHk1p5G7C06uWo6sSERER+Uss7m5YPTy4kG2ZyZ6ELckOZjc83C05tr9scadCyZb4l6XMe5UH3phDImZqenrhbvGksdVy7R1LofzDvO8ENsRMyLnMvpCH3QazkG58Gr2cJ92dLLznFr2V7alp0OcLYsOeRzeRFhERkdKg9uiFHBmda2H489Tq8SU2n7f4LWIsjRxSWfGJjthHImbqvreVo8F3Oboch7p9e+btqdgBvJopyIuIiIg4ETsXAWjm7eXYQm4BxRjmD/Cxb3VMXqNYZVvBeL8mVLG4U82nD+9GXknfJHE/P098ir4+DallsWAyWXCzNqN9wEt8E5nrVuCJP9LP4oIpYBZJts1MGd2PttYqWDKOGRiyihN5aojn18kv0Ne3IVUsFkwWd+r7dOfh4Dn8ntkylHnch6alh/mv70vvF/N5h98zD2NPr7OHTwOqWCyY3T1p6fcE/wqNyvGWFcD2Ma0xmVrzj8gjLBndjQburlTyas390w/legzr+SKoF82tFbBY3KnjO5j3w08DcDlyPmP929HA3RWzuyd3BrzG/2LS8j7F9jh+DXmBvj4Ns+q6y384H4Qdvr66RESkRNSpU8fRJYgUTeKc9MwSuICEiEk87F0di8WDhn6vsTwrQ11Hjgt7jiomC9aQg5yPnMXYgMycY6Wx3xD+mU92IXELs8Y8TCfv2lgyrmds4juAZ6dv4EyO45ro8p/dQCqrHqqUnuPGrMw6zKWYFXw+uh9tvKpisaTXeE/ga8zMXeO1smvGY2g6+SAJEVN43r8ttTKyWvOAdzKymp1joW8xMCN7Vra2xm/M7Ku5Mzvb5qzHVyWrrneZH51yfXXlUvx3gLXHMjXwceauPZn+dYwZq1cZSFzPON8H+XhfEnd43k1n/w74cY7YyHVsXPw5z4RFEBu5kXe8y+Z64D/xnF8Yc2JcaeLTik72OCJ2/sL3r6xlYczPJIXcm9G/n8TqoF70+24PFz3vplfA3VQlibiIdSx8fx0Lw4+wOeJNOliaEjjmRbyjV/DJ4j2Ua/0Iz/nVpqx3J6oC2H7mKb+hTN13DhePVvT0v5sK9gNEhM/i7YcWM/WZ2Wyc/ECu0Xw7uyY8zIeLd6S/QEiy4WL1yPYY5vOk7zIW2mrR0vdu2th2E7FpPsEBNi5P7sqS0RPZ7H4X9/i0xjVyM3sXf0j/GIO1ER/QzZLRzmTfwsf+gxi3Ng4Xj1b0CAigmj2OiLCZvL48jFnvLWRTcJcc1zJcsy4RkWJ09OhR7Ha7o8u4JZw+nT5YYzKZOHDggIOruTWYTCbq1auH2Wx2dClSGNt8RgcuYmHsJQCO2D1obDHdcI6rFv4m3YPns8dSj2Y+HWkXs4uNa39gwtoI1i/azsqAaukb2rcw3q8P7+xMoWrr7vQJ6EYFezwR4f9j8ojlTI3MyHxe9/PGy+XZGT6bOTtP4TngRQK8KlDFvyEAyeFvc1/A/7ExKQ3XZt3oE1CLSzGbWfP9hzwRuphZ05eyPDBXk1FB2dWW/qU5dCzdx/yPA+4t6eLTkfjozUQvHk//GBs/BMXx0ivLudS6I6193dgXsZO1/3mclolunJ7+QHq2BC5FTyXQfwwLY//EtVk37guoRVnbLtZ8/yaDw77nyXmrmepfrWh15VL8YT5+BXPpyovL1vB3nwrERF+gqbuJqOBgJu1LwmXILCLnDc3WqxXP0sAe9Pt+C+9O3sg7IffkPN6m+czp+CI/RU/kQa/0yzNOh42ha8Bn7J3+GXMn9Erv34+Zw1vz9mJvPY4tER/QPisE7+Zjvx6M2/QZ/wp7mf/5t2TYxE8ZFjqSLxfvwe77NCEh92bVMifoWabuO0f5IVPYNv1J7so4zqXoWQT5j2TO10MZ4ruH9UF1sxW5n8WL69Pr05X8N6gFlyJjuOhbETL/pm36iYXd/8byyPfp7W4C4lkY0JmHF69n/KObqfPyT8SF9Et/gZC4khd8H2TSzhl8EfEe3fxcADsbxjzJuLVx0OcLNoY+l/X4LsX8zLP+Q5n6xmME+UbxvV/Fa9clIlIM/vzzT1avXs3BgweJi4vj0qVLji7plmEYBiaTiaNHjxISEuLocm4pHh4eNGjQgC5dutCwYUNHlyO5rf2BhR1HMT90Ar3dE9iaWJNGQNTEG8lxqUQtXkz14TPZNvmxjEyVxPbgALq8H86qkOkcCkjv308JDeHjnWep9Mz/ODD5aggmeir9fJ9h6VcfMG1CT573fpDXQh5kw5jVzNl5nsZB7xIScEf6tokreTnofTYmVefuT5eybEy7rOMcC32Z/oGf80vQo7zjs5E3s7/oKCC7Zj6G35cvp/4zPxGbOZibuJKnfB5g6s4vGBzclN5z9xAa2AhX4ErEBLr5/ZsNod8Qmtgv4xrT3fwz8G8sjC1Dm9fXs3LiPVl1nQp/nd7+HzIt6FnuiZzHCGuZItZ11U3omTdTd8yXfOZ/J1arF75+zalKEmfdm9Onz2A+n/BorosuPOg7ugdWgJiYvG+50JRnJn+aFeQBqvk/z0ifqpC0j82Z7Si2OP5INcDdi9qWbA/U0pKnJ3/LtLlfE5x71D+36Dl8FH4cPIfxfbYgD1DO+3FmTh5JA87za8h3V1tyMvX5BzPG9KKBu5Wmfr459oWmPDHxvYwgn/6YA4K64w7gMZgvJva9OtLvfi9P+jcFktgfk/GSMHEhH8+LBrcHmTT92asvVIByXg/wTchQrMTxQ8gicr+BVHhdIiLXzzAM1q1bxz//+U+WL1/OoUOHFORzMZlMOf6Vq+Lj44mIiODjjz9mxowZnD9/3tElSQ5NeSLkKwb51KayV2t6+tSCv5LjPAbz36wgD+BG2+BR9DSXheid7CK9HcVmiwfMXPSyXg3yAN5DCZk3jTnfv4H/NTLMmdCvmB2bCgPeZVG2IA9QN+B9poxpB6lbGB+yJtee+WXXnI/hP5mDrpCe1QKapn/u/xZzM4I8QFnfoTzmUxXssRyypWfUtLCvmLrzLHT8B/OzBXmA6n7vM2V0W4j/iTfmHb6+ujIU/8g8HvT0a55rmRtdgqfQJTjXYnsScdGRbA7dnz6IbU/lAuRsFancEX/v3K85atLAagbsXMgc/fbuRU+PT5i6dizt/DYxNPAhHvL3o4tXFSr5PMgIn2tXnhLxK3tTDfAbTJ98fmDK+D1MT4+pTN27lnW2N7gr69WTGRe/jgVfSFu5Nf4+OR9DGXc3qmAi0af71VaaDO7WyliAlIy3q9MifmV10mXoM4AAa97XX2X87qVz+W9YGPELaxnKQ1nThF6jLhGRG/DZZ5+xf/9+AMyWCrTv2peadRrgUduT8mbXa+wtt7ME21FO/RHHnsjfOBGzj02bNrFz507+9re/YbVaHV2eQL6Z5S/luHxyDu4e1DKXgbP2rPDf0LcDDVjN3gn9aBcZyGMBAfj7+9HC3UIT/ydocs3C7USG78COmU6BA/LJPhbaBvaj+fvb2Buxid+5l6tz4OSXXXM+hrtzPQar1Q0wU9fXJ1fArkwVdxdIhdMZGTUybDM2zLgE9Ml3FqG2AV2x/mcbtvAIzoxpnO1416grQ/GHebMHdd3zX3UpZh3TJ09nacReomOiiYlN5JrdlVXcqJpn2tCr/XYXMi8wcL+X/8wL5nDgR6xZO5OP187kY8y4NuvI/QHDeXZ0IPd6FT6Lqs12EjDj4u1Fvn+OLPVpbr0D4uM5nmhAtt87LQr7JVTFjSoFTX1qMedzrvI5vkq0xac/T8ufoo7pqYLPc9bGiUQDsr0FU2hdIiLXadWqVVlBvn7ju+j90Egq3FHZwVWJs6hhrUcNaz28fToTGbGS31YswG63M23aNIKDgylT5vadZO+WUcWDOgVklhvKce5u+Ywmm7G4liHHzr5vM//TwzwQPJ/t33/G9u8/YxyVqdPRj/5Bz/Bc0P3X6C5Iwma7AHhQ11pAELU2pYG5DHsTYziGcTXMF5JdMx9DlQJWubrnfrJyf23PeNchlctvtMT0RiHnscVyAq4+X9eqK8NNGJkH13ye7NNhY7gv4DN2pBq4eLSis09vOgT40NHPlz6E0vuhzznyF89b0e+frI55jt1hi5kbGkp4eAQb92VcABvyH0aErWaaX7VrH+ha8rl2p0Kh9ymw/LWbMdhT0/9t1pshPgX9OEGapRVNct28q/C6RESKLiEhgcWLFwNQx6sZAcNecXBF4qxMJhNtOt2HxbUiKxZN5fjx44SFhdG3b19HlyaW/IPDDee4Ao6Xz4a0GPM9R4L+zS+hoYSGhhIevoO9m37iq00/8VXIMOaFT2dIPh0K1y9vTfll16ubW/If5L1OtboPppu14PO4eHnneeFTaF2Z+/3FuorG/itvj/6aHan1uP/bpfwY1CLHk5IWNouzFNNthC0etAx4mpYBTwNwLvoXZkwYx9++38W3wdN5s5AbJVitNYFULkfHcIG78n7j7HHstf0Jhge1C/lmFDd3a00sgN17GF/OezzffikRkZstPDycK1euUN5swX/Q044uR0qB5j6d2bd7E3EHf2fVqlUK87eqksxx7k3pHfQavYNeA5I4Gv4TE8a8yrSdMwkMeYkhE9sXsKMbVncL8AfHbIlA9bybxOzmSGoaWK3UpaRynAWrtSqQwB2B7zBvdONiP0PJvJ8VvZkNsang2Z/goDvzhOTIsJ0k/sVTHJ/3DG28atE85GCO5ZW9e/NCyBg6m8uALYbjhfywVfC9h+ZmE4T/cHVO1WySwxewJP4iNO/O3e4l91ZgGd97aGsuA+E/EJqYT/2RX9LXx5fOgVPzXpgrIlJMYmNjAWjSogMVKxXhvV+RIujQrR8AdrudhIQEB1cj+brpOS6JVWO609zamuciss+j7kY9v2FMCe6dPpYeE1PIMSz4+LfFQiob54Xlcy8iO9vnrWAvBvh0pCTvGevt1w53Ujkwbzn53e3n+PQgfHy60yvkt3wmgrm2kkmkVneqmE1g28n66Jw3Qzod9jpPTd6e/oXdfu3eqwLU8apFamw80SF/57uY7JPv2zk8bwHbU9MyvnmFvBLzfoxxfnUg9gdGB83JMeH/pehZPD16GjYq0270EDrcYJ03xPowYwMaQtL/GBn4JVuzB/rE9Ywf/S+W7dzEJmszp789s4jcmtLS0rLCvLWuftNI8fGo7QUZs/7ExcU5thjJ303PcW409ypPTPwuvpoQwtYcA6pxLArdhB0z3r6Fz2ZSNeBZhnqaYfFYHgrZlmOGv2OhGXWaWzF+dI8bqvJGVfB/lpHNXGHt3xkcvCpHXZcjJ/0/e/cdV2X5PnD8g6AHUIYoQwHFhailiAucOFISU3Pn/jrKVWnaLy0zG6YNi4ZppWbunZgUZAJOwIGgiQgqiKDA4zOoAAAgAElEQVQMRYbCOQ7O7w+GbLHQB/B6v168hPOs6xzPOc/13M913zevzt9EaGg4OnYO/6qc5+mU2VgNZe7gL/HddpiFzk74D3amib6GxJBD/BkUhW7z5jS6EEFUSgrJ8O9GX3Gew/ev7cX9xx1MdAhihaszjU01pEWfwS8oCrVlN75aNvoRJSqWjF63kmNuY1mxbSxt/T+nl7NDzqRRIcRralBnwlr2PoFbJKUzof+qtcyNHsZyn1l0sPuWbq6OWJNIqP9BzqdqodM8/JYVnjRKCCHKR0JCAllZ2SdxC2s7ZYMRVYpe9RrUtbDhRsJVYmJiaNeundIhicKeQh5Xf9qnzN16liU+83CxW4+LswP19dOICQwi4Mot6DSPH6c9oiHBtA/frHuHsMGfEDCnC81XdaKzY86kUUFRqFUN6L5qMx87PmKo8vKm34FlW7/gtNub+H7Wh4ZbO+Li3Iha8WcICAwnXlMDo9fWsH7wv+vX+ZRqRUzov86b398ZjbNVEkd+/YlftnpzQt2MV7724kzIBsY0N4RwH/6Kznr07ko4Rq9Vfhz+ZS4vO9bkauBetu3x52S8Ob1fW87eQG/mFBnishhWA/je/zi/Lx1LN9Mkjnt74hWSTB3XKXz+WzBX1w1VZqhH02586X+C/V9P5kW7e5z19uQ379Ok273AqKX7uOj/edGhn4QQopxkZDy841lDJT3rRfmqoZ/dFHXnzh2FIxHFewp5nH4HPvE/xI53RtPNNI2z3p7s2RPAVdMOvLJ0F2fLmOfUdP2QgyHefDehNzbqs/js2cPheCPaTljC+sDTHJzY6t/F9x/pOc7kQIgfP705hOeJ4dCebXiFJFPTeTizt5wiOndCqn9BR6vVllOPBSGEEE/atm3b8PT0xNLSkkWLFj214166dImvvvoKgAmzl2FS2/ypHVtUfTvXfsa1KxG4uLgwduzYp3LM2NhYli5dCsC7776LtbX1UzluYa+//jpZWVlMnTqVnj2fbvmHqBpkQFchhBBCCCEqKUnmhRBCCCGEqKQkmRdCCCGEEKKSkmReCCGEEEKISkqSeSGEEEIIISopSeaFEEI887Re43G1N8TF3hAXl5kc05S+flbQ6wzIXX/GVlJzHtfhJN/3NMHFvg1LzpdtiL7IJc7Z+ynu57l69OrZhmkz5rEt6Pp/e5JCiCpJknkhhBAiv5te7AnJKGUFDSG7fblZ3setYYJZXcuCPyo1WXGRhP79Ax7jXBiz5Xx5H1UIUck9nRlghRBCiMrAyASj9EQOex1H3cmV4qbHqqY5is/hq9SooeLu3Uc04T+OV3bj9Z5L0eOlRXLgy0ks3XqKy1/+H9v77GWEuUwSKITIJi3zQgghRK5OL9Glri4c3kFwCXn6g6DfOHqjJm27d0L1FELKMm5Gr49W8j8HA0g/ws7DUm4jhHjoqSTzl5d1Q0dHp2w/dq9ziEo4Ka3/HOrp6KAzaieZSscihBDi36nRm77dbCHuQAmlNhpOe/ly06grfftYU+MphaWlGY0aGwFwLS31EWsLUX6CZ7cvIWfTR2Vqhb1zP0Yv28zJlEqYu+Wn9mKoSg8du6l4V7I89Om2zKtMsLS0LPXHyqq4m5pCCCHE06CirXtv6hCTXWpTaGluiQ2dhtLV6OmdQnU4y9nwVEBFY3PLp3ZcIfIUyuGsTPSplppAZNBfbFkwhg4O/VgackfpKJ9JTzeZn7aT+Pj4Un+uB35Bd6QWUAghhDKqdXqZLnX1ii21eXBoC0dv1KSZe1+MVE/nXHUv9gh7Z09j02UN1H2BId1qP5XjCpFftWn7CuZrKSlkalOI8VvPjE4WkLCfd93+xy/xZRvFSZQf6QArhBBC5FND1YV+3WzZ+1t2qU3nToY5SzQEeR3lZq0+vN6tNqqQcj7wliG4exW8O303LYXbuZ1sazTA6b3PGGwsDV6iojDB1nUcK/wdqO3qxpKgHUxa/CqjVvXBQOnQniEVuwNsyi7c9fXQGbyR1PjjrJ7mjpNVbfT1Tanj2I9RHge4Vtx26hj+9phFf8fG1DM1QGXakOfcJvCZfzFrqyPYt2wKPR0bUVtfH5VpQ553Hc9He8KKr31Xx/C3x8P1zR16MMrjALHqkuur0kN28N6oXrSwqo2+vj7mDp3oP3tt0fqylM3Zz3fUTpICVzDUoS76+pY0dv0/fErZvxBCiPKkoq17r7xSm1zVNAeyS2y6D8X5SSTUd1NJvpFQ4Oc2+pg07kD7l99i4Y4AVrjXL//jCvFf6Xfgw2XjaYQObPkJz8L5jTqGIzl5WW6u9ZzbBD73vlxCP8NULu75gkmuTjSyMkBf3xRbx35MXHWU5GLW/WfrQka7tqSe6cN1J3kc4FKxuZOai3u+yFvfxKo5ztN+4Fh8KcPRxh9n4+yhuDjUp7a+PiZWzek66lN2hBfeJpLlznXRsZvKgfj9LHRtRu2cnPXTkAelvoT/RcVO5nPF72WGax+mrjvJbbvWuDjUJiP0L7bNccdu9t8F3wgph5nn3J4X5qxgf7wRz7sNor9zHW76rGd+z7Z0X3cp3373McWxAy8tWMOReGM65qx7I3AjH7zsgsO0fQUvFtRnWeHmwgtzHq7fzSoJnznudJntXaS2EiBuzzQ6OY/k022nSLfrzuDBbjynfxW/bybTwXkk66KLuR0Vv4Npo+aw+8JNNJpEotSWNNWXlhghhHhadHNLbQ79ztGcxzIP/cbR9Jq0du+LyZM46IQDBERkFPz55zre3gf57rNPcG8h5TWi4tJ1HUr/hipIO8ju/Imr+gTL3brRLScv6zB4MENcrbnjv4F3XnSh07KjhRL6BP6Y6MrzL/8fvwTexNxxIC+7tcUoej+/Tu+N/cRd+XKzSDYN7kSHV5awJfAOts59c9Y9xC9z+tDU7VMOF7iwSOXY7J48//L/sSXwJrbOA3F3NCNh3Sy6un3C6btFc7J74WsY6tybcd/sJpRmdB88mN4Oupzb9h4jnF2Y7F3MjBPqK6wZNZYlBy+SokklOVqFld2TS7krRzIftIPNphPZGx5FROBB/EKiiP3zTVqo7nJv3bdsyfuPUuM7fwbLQ5OoOWg1p6ND+GvrVn7zDiYyYBGdVTc4/OYC1qZogQQ2T5zOmgtp1BiZva7Pnm385h1MTMh6RjdUE/PjGEaui80L47LHbOYdvAY9PsE3PHv93f5hXPxzGnWiI0gpHHf0WsZPXM15nmfUn2HEBnqydese/ELOc2SpG6YXdvC/iSu5VHi7g9vZbTWRHafjSI0K4cCq0TR5Yi+uEEKIwrJySm245oV3SBaQymkvf9LrvsDL3Q0fub0Qz55mdHYwBVI5ER2f85iaY7MnMe9gDPT7noCcvGzLnmNEhO9lcnM1ZxeMZqL/w46zyVvnMPnXENTNx7Et/DzHvbexZY8fYeF/Mbm5ipu/vsWcnPUve0xniucF1G2msi08iuPentnrRgfxfT87OLiQ7rO98lrzHwQuY8o3QagtX+CrkCiOe29js3cAEeHbeUUdTlSRUWzO8uGot9l9pRpt3zlMbPhBPLduZbd/GJF+/0db9VnWTpxetJ9Awn62hDfn9T/Pcf16FAF7PmOw6ZNrlH26yfw3LzxiaEoTenrfL2ZDe15b9TUv2T38Aq3jNpPJjmaQeoHjua3bKV6s2BoOJi/x+ar/8Vy+1uxazgv4eGIHWrfQEB+dBeGb+dI/DhqOY9u6SQXWre4wlg2rJtOIdI54/Mo/AJzkh3UBqGnNQo/5dMv3n1LHbRmrpzkViTrY4wd8Ux9QbdoK1rpZ51tiQrv5P/JJp7pw8Fu+KHLrxZ7xHisZ5lgfY7s29HKsV+aXWAghRHl4WGrzt1cQ1dKO4nM4HrqNwfVpDC4vRKVjgqlpdlfM+/E5zZspu1mek5etWDed9vlzLbsB/OQxBiti2O7xW07CHcOeVQeIx4IBHj8wIl/eh1UfPl88BPs2djyIjgdO8oPHUdTYM33V14zI3/Jt2pqZ65YwxEQPtnzL1vgsQM3BVbs5Tw2aLf6BOQ6G+WIZxs8eY7Aq9IyyvFeyJvQWdFrEjmVdMcu3rK7rZ9m5X8JeFmy9XGhLFTazf+Bbt5ZYWdnh7NqiwLblrYINTWmFeXEjUxp3ws2hcKgWNLJSAWoyc+tbQo5wLPU+OA9isFXh9fXptSqQ0EBP3nXUJSPwCOc1WnAdQb9iSliquQ6ll2V1OH+QQ/FZEH2C09EaaN6dFxyL7ttpcLfsWrE8MQQEXgEaMH6wSzEdQRrQ09UOuMIe/6hCz7cNbkWOIYQQ4mnKK7U5vJPAw7s5ml6Hju7di50VVghRVFbgEXxLzMugmmsfOtfQhcC/OIgW1GfxDUgG4x6Mdq1ZZH2zUb9wIeQgOyc2gfDjBMTfheYDGeVczN0yK3fGuFrA3SB2B2YAkfgFxoGqNePdGhdZ3dBtKL1Nqhd4LMT7OPGo0Bvcr9gKCafB3bBCQ4J/YKFafkt6ubYo7aUpV093NJtpO4n36PP429U2wazIt+fDppHMnA4O2vjE7FIXK0se1UUoPj4RUKHnYFd8j2v9BrSwqgUJCcSlaCElhiiNFqwcsC5u6Ew7e+qpdHiYlsdwPv42cIN1PfVYV0osCdHxQNOHD9S2xFrOFkIIoaisvFFtvPjquzTS67gzuJOU2AhRvFTi4+8CUMcqu407JT4huz+hzxSsdaaUvOmteK7l5FrXdbKgXhnyoPgYrmu0YOdA02KHNDfBzq4ucJMr8SlAIlHxd0FrRT2rYtbXt8TKSo+HHSDVxMcnABruL3genQWlxXKFa/Cw9V1liY3pI+IvR1VqaMonMvNqmW+nqkporbGg/SBXmpTYgVUfE+dCnZr0JZMXQgjl5ZTa/LaGK5eBUWNwKfM5IRLvyU04VsJStfEQPvJeTpfyCVQI5an/4Vh4CmBFG4ecvEadM6xq876MdCy5A3eWfmua5STkxQ0mUjzNI9dQq7PLsGuWKa1SYVBCwUq9HiPoXtwFQA49O4ciZTQGT3HgkiqVzBtaWWAKxMcncA2KtM7fC9/PxpA72Dv3o62VBaDhfng0mTxXtHVendOyrrWkvpUO6DejkUqHqOhw4tDSpPBVYHxk9hViHksamRrCFVPaLd7MKkfdcn62QgghnrTsUptf2XujPt3cOz5Wic39GwnFDKOXQ51WhlREiMrjjv9OvBLuQsO+jM4pFTa1skAfUDuM44etYx9dN65viZVWB64nEKeGIh+4lDN47gmjukN3+lo1y66IiA7nIlrqF2mdTyU+PhlQYWZlSnZ5dg2IjudydBY4FMrL1Ilcv34X8q459LGyMgOSqDVqCVunNaWiqlqF2Y5dc2qvPPEuPMYpak54vMWkV0Yx0/8Ohs5daaHSAf/txY7hnvembNGDjqbVwK4DLg6GcOUv1gYWHYs0zP8I5wv0gm6Gi3N9IIKdW08XE2wqXtO608a5H68XN6yREEKIp0bHfT3+ERkEeAwu8HiWqhcLjqUREBHO54VKbO52/4m/IjII+GFU3lCVWtozyy+16BCThX+Cf6ZXzjbN3gvMfuw9lyf/RIV4EtQnWDp/G/EAoybk9UWs5twVJ1U18N/OniJ5GRDyA/0dnek8ak32YCP67enVtjakBbE53wg3uTL8PZj4v1dwXxXMfYeOuFjVgAt72RJSzBjx8V5s8k8EVRv6OxoCzXjRtRFozrDW+3yR1R8E7sM3reAgLA6u7TBFQ+RWn6IjDwJx6ybi6NiD3h6Fh9d8uqpWMm/ah5mvOEDq70yftpZ/8iXptwOXMm9rGFgOZP7gOuAwmnmu1nBlO9Mmbi6w7r3wjbw6bS3xGNNu2kg6APA802f3xZQIfp02n735hiG6HfgBU5YVvZnaefYkOquqcdNjMqO9878N1MRtnc3rPx7hTLiWFqXcehJCCCGEqJhSifBfz0zXISwJvQXNp7Jnfr7iMauhzB3cGFJ/Z/KoHwpOlplymIXTPuLP0CCCrJrndDBtwCuzX8CUGPbNf6tArkX83/zf/N2k0IARE3uiT3tmzO6CPhGsmjin4LopZ1gx8T12p96HwW8wyaoaoE/naf+js+oe8YtnsCgwucC+35z9S5GhKQ3dpjO5uQEcfJcR8w8UuNN2P2QFr87fRGhoODp2DorOePt0y2xWDcNqa+k3KbVYMnRPMD84/5uyFBN6eazkvfDhLNk2hTaBP9HbuRE14y8QGBhKPLb0Wfc1o0x1AEtGr1vJMbexrNg2lrb+n9PL2QFDdSSB/iHEa2pQZ8Ja9ua7rWI98WvWeJ9nzLbvGeTwF91cHambcha/g+fR6dSJRkHHKTAujcMc1q86Tp9p29jyYisOdepBVzsD0sJP4Bd6DbWqAX1XrWRGMT28hRBCCCEqiqxVAwrlcBpSE1Ie1rg3HM7KPR4MKjCeugn9V61lbvQwlvvMooPdt3RzdcSaREL9D3I+VQud5uG3rEteMmw26ms2eZ9n6K8/M8jBh/auzjTNW78G9d/cycqckW4az17J6sCBTNn2M4PsfOjg6kwT/URCAoMIT8iETq/js2row/Iexxms9zhC1+m/8bFrC/Y4O9PKNC1731YdcLE8RUD+J63fgWVbv+C025v4ftaHhls74uLciFrxZwgIDCdeUwOj19awfnCd8n/BH8PTzSI1qSQkJJT6k5gQz41ip98tI9NufOJ/iN+XTqaH/lVO7NnDHyHJ1HGdgof/afYPzjfeu9UAvvc/zu9Lx9LNNInj3p545az7+W/BXF03tFDdfQOGbPXj8C9zednuHme9PdkfXR3nd3YSsG4c9VRFOzs0mbiFs/6/MmdkZ4yij+O5zZv98bVoNeh1fvI/jc8omQ5KCCGEEBVckRwukyyTBjzXYwQzvvbibPg2pjkUM9qTaTe+9D/B/q8n82JO7vSb92nS7V5g1NJ9XPT/nO4FOota0n+dPye2vMcrDjWJ9d/Lb96nSXN4idlbjnHWo0++2vtmjNkayIlf5vKKY02uBu5lt/957tu9wPSVB7jo/w19C1xc6NNk2m7O+n3HDFdr0kP+Yrf/ZfTdPuFv72/pbVq0wVnPcSYHQvz46c0hPE8Mh/ZswyskmZrOw5m95RTRqwY8cgTFJ01Hq9X+h8xZCCHE07Rt2zY8PT2xtLRk0aJFT+24ly5d4quvvgJgwuxlmNQ2f2rHFlXfzrWfce1KBC4uLowdO/apHDM2NpalS5cC8O6772Jtbf2ILZ6M119/naysLKZOnUrPnj0ViUFUblLfIYQQQgghRCUlybwQQgghhBCVlCTzQgghhBBCVFKSzAshhHgkExOTvN/vpKcqGImoijJuZ7+n8r/PhBBlI8m8EEKIR6pbty7Vq1cHIOl6jMLRiKrk/r27pNxMAMDW1lbhaISofCSZF0IIUSYNGzYE4EaCJPOi/MTHPZyhpUGDBgpGIkTlJMm8EEKIMunevTsAEWePk5KcqHA0oirQZmVx/ODvADg4OGBmZvaILYQQhUkyL4QQokzatWtHq1atuHdXw++bvkWdmaF0SKKSO/r3TmIvn6d69eqMGzdO6XCEqJQkmRdCCFFmr7zyCtWrV+fWjets/P49YqMjlA5JVEKZGbfZu+kbgo/6ADBw4EBMTU0VjkqIyklP6QCEeFap1WqioqKQSZirnvr161fZxKR27dq89tprrFu3jtu309j9y2c0bPY8lvXtsLC2o4bKQOkQRQWVlZVFckIsidevcCXyLJkZtwHo0aMHvXr1Ujg6ISovSeaFUMgnn3zC5cuXlQ5DPAG6urr88ssv6OlVza/YFi1asHDhQjZu3Mg///zDlcizXIk8q3RYopIxMTFh8uTJNGnSROlQhKjUquaZRohKICEhQekQxBPy4MED4uPjsbGxUTqUJ8bIyIjp06cTERFBREQEUVFRXLlyhczMTKVDqzC0Wi06OjpKh1Gh2NjY0KRJExo2bEibNm3Q19dXOiQhKj1J5oVQWL9+/ejQoYPSYYhyEB8fz+rVqwGemSTO3t4ee3t7pcOokObOncv48eNp06aN0qEIIaowSeaFUJiFhQUtW7ZUOgxRDgwMHtaLS1+IZ1toaChqtZrQ0FBJ5oUQT5SMZiOEEEKUs9DQUACCgoLIyJAhPIUQT44k80IIIUQ5ysjIICgoKO/v3MReCCGeBEnmhRBCiHJUOHnPn9gLIUR5k2ReCCGEKEdnzpwp8HdkZCQ3b95UKBohRFUnybwQQghRTm7evFkkmQcptRFCPDmSzAshhBDlJH/SrtVq80Y18vPzUyokIUQVJ8m8EEIIUU4CAwOBhxNG5c43kJycTGxsrJKhCSGqKEnmhRBCiHIQGxtLXFwcUHDSsNzWeV9fX0XiEkJUbZLMCyGEEOUgf6t8cYqrpRdCiP9KknkhhBCiHDyqk2tmZqZ0hBVClDtJ5oUQQoj/KDQ0lOTkZKBgiU3hv3Nb74UQorxIMi+EEEL8R2VtcT9z5gwZGRlPOBohxLNET+kAhBBCiMquV69eODs75/0dGBiY1wo/e/ZspcISQjwDJJkXQggh/iMbG5sCf0dGRuaV19jb2ysRkhDiGSFlNkIIIYQQQlRSkswLIYQQQghRSUkyL4QQQgghRCUlybwQQgghhBCVlHSAFUIIIcrZ/fv3gezZYPft26dwNKI46enpeb8XnhtAiMpEknkhhBCinMXFxQHZSeKff/6pcDTiUapXr650CEL8a5LMCyGEEOUsKysr7/dmzZopGIl4lHr16mFubq50GEL8a5LMCyGEEOUsN5nXarUyaZQQ4omSZL6SiYyMJDQ0lPT0dO7cucPt27e5d++e0mGJf0GtVgPg4+PDyZMnFY6m4jIwMKBmzZrUrFmTOnXq0LlzZ2rXrq10WEIIIUSFIMl8JXDjxg38/Pw4evQoiYmJSocjyllCQoL8vz6GTZs20bx5c7p3706XLl2oUaOG0iEJIYQQipFkvgK7ffs2u3btwsfHp8gylUqV11qpr6+vQHTiv7p06RJZWVmYm5tLS3MJtFotmZmZpKenk5aWlvf4hQsXuHDhAjt27GD48OH07NlTwSiFEEII5UgyX0H5+Piwbdu2vFIMyO5E5eTkRNu2bTEyMlIwOlEe3n77bTIyMujRowe9evVSOpxKITY2lpCQEIKDg0lISCAlJYWff/4ZLy8vpk6dSvPmzZUOUQghhHiqJJmvYDIzM1mxYgXBwcFA9rBmHTp04KWXXsLMzEzh6IRQlo2NDTY2NgwYMIDIyEh27drF1atXuXbtGh9//DGvvPIK7u7uSocphBBCPDWSzFcgcXFxfPbZZ9y4cQOARo0aMWbMGOrVq6dwZEJUPM2aNWP+/PkEBwezbds2bt++zaZNm7hw4QIzZ85EpVIpHaIQQgjxxFVTOgCRLT09naVLl+Yl8j169GDOnDmSyAvxCE5OTixYsAAbGxsATp48yXfffYdWq1U4MiGEEOLJk2S+gvj8889JTk4GYMKECYwYMQJdXV2FoxKicjA1NWXBggW0b98egODgYHbs2KFwVEIIIcSTJ2U2FYCHhweXLl0CYMCAAXTs2FHhiISonMaPH09ycjKXL19mz549NGjQAGdnZ6XDeiZER0cTHR3N7du3lQ6lQsi9ywqwb98+BSOpOHR1dbG2tqZx48bUqlVL6XCEqDIkmVfYiRMnOH78OACOjo68+OKLCkckROWlq6vL9OnTWbJkCSkpKfz44488//zz1KxZU+nQqqTY2Fh27txJZGSk0qFUOFqtFh0dHXR0dPjzzz+VDqfCqV27Nt27d6dv375KhyJEpSfJvMK2bdsGQK1atZgwYYLC0TwZSUlJREdHExMTw9WrV5UOp8LIHXb04MGDnDlzRuFoKgY9PT2MjY0xMzOjW7dumJiYPPY+DA0NmTBhAt988w0ajYZ9+/YxcuTIJxDtsysrK4u///6bfft+58GDLKXDqZB0dHSUDqFCu3XrFp6enpw5c4aJEydSt25dpUMSotKSZF5BgYGBXLt2Dcgur6lqM1mmpKSwbt06abUrhVar5caNGwVuyYtsf/75Jx07dmTYsGGP3bJub29Pq1atOHfuHN7e3vTv31/mZihHq1at4ty5cwCY1KqOew87mtia0NjGGJW+nFZEyeKu3yYqLo0T/yRy4p9EoqKiWLJkCXPnzs3rxC6EeDzyraugAwcOAFC3bl26dOmicDTlKygoiK1bt3L37l0ALM0MsLM2wsayFtJgJUpyO+MeUXFpRF+7jebuA44fP050dDRvvvkmpqamj7WvYcOGERYWhkaj4ejRo7i5uT2hqJ8tR44cyUvkB/e0Y8gLTdCrIZ31RdlY16uFdb1adG1fn3MRN/hp53mSkjNZt24dCxcuVDo8ISolSeYVotFoCAsLA6B79+5Uq1Z1BhYKCgpi/fr1QHYS/8a41jSyffxyCfHs0j7IYrNXBF6HYkhMTMTDw4PFixc/1j4sLCywt7fnwoULnD59WpL5cpCcnMyuXbsA6NWpPiPc7RWOSFRmrezr8vZER+Z7BHL9+nU8PT0ZNGiQ0mEJUelUnQyykgkNDc0bB7tVq1YKR1N+UlJS8voBtGtpzhfzOksiLx6bjm41xgx04KNZ2SM7JSUlsXv37sfeT8uWLQE4f/48Go2mXGN8Fvn7+3P37l3qmOozYWALpcMRVYBNfSNG9G0CgJ+fH1lZ0gdDiMclybxCLl++DICxsTFWVlYKR1N+1q1bh0ajwdSoBq+Pbi2338V/0tTOlDHuzYDssrTcIVzLKjeZv3//PjExMeUe37MmKioKgN6drKmuks+2KB8vdmsIwL179/L6kQkhyk6SeYXcunULgMaNGyscSfm5du1aXmfXN8a2poa+nOzFf+fuakcTG2Mge+Sfx1G/fv28yddyJ2UT/86DBw+Ijo4GwNpChvoU5ae6SpfaJirg4QWjEKLsJJlXSG5iUZVG2MhtUalb2wCHJmYKRyOqDADjuE0AACAASURBVB0d+rhYAxAXF/fYm+d+xiSZ/2/i4+PzSiDqmUsyL8qXtbkhgNxBE+JfkGReIbmJhbGxscKRlJ/Y2FgAzIyr1hCbQnl1TA0ASEhI4P79+4+1be5Mk7l3w8S/8+DBg7zfdavJkFSifFXLeU/du3dP4UiEqHwkmVdI7pTnBgYGCkdSfm7evAmAUU1J5kX5MqmVfQs+d1z+x5E7Rn1aWlq5xyWEEEIoTZJ5heSOZFOVeu7nPichyt/D99bjfmZyZ+KsSp81IYQQIpck80IIIYQQQlRSkswLIYQQQghRSUkyL4QQQgghRCUlybwQQgghhBCVlCTzQgghKoxb29dgYP0/dKzf4bVT/3aYwnTWDnsbHeuFfHSxbEOZnv90OTrWU3Fan/hYR4rz28+Yl+ZTu/FUVC3m0WH6XvwSH5S4/rEPPkXH+n/odF+Pr7qUTtkXD9Ol8WR0um/mNDK4gBCiZJLMCyGEqCCS2bwhDLVKD30S+WlDKHeVDqkUyZ7r6DZ2C5vP3cPe9Tm6mN/l5N7f6DVsE36pjxg96dJhxiy9UKGfnxCicpBkXlQu6hjmdZqe3bI1xpeEf7ufY79Rz/p/6EwPLNvJVB3G0EZT0Om0lgOP1UqWztGfN9Cr+1voN56KcaePeOnT41xRl7CPxJO4N56CjvV0um6/VuqefWcvQsd6Kn08bz9GPEJUYBfPsCb4FvTrzuQm+uBzmO2pJbdyKyuGTz8NIor6vLrjY4LWvonvocWscbGAS4dZ6JP6iO3vE79hHa+fyngq0VZ1ufOcCPEskmReVCragEA2xapRqfQg4DDry3gLXRmZ+M7/jj6LfTmSVhNX1xY01cSxb8VK2s0JesSFiJqjH2xi9dWKmsgIUf6CtwdxGhV93NyY5GYHaWF87RmvdFjFS03ifNI9MLflpXa5k/+Z0dPVCn3gamLpk5RZ2tRBX5PIT/N3ElBauY0o0c2bN9m1axfvv/8+GzZsUDocIRQjybwoIiAgoIK2cmTy5/YzxKusmT7uefQ10XyxPVrpoEp2MYh52y+itnFmz8EP8V77FsF/TWeIuR43fXwefSGSFsbU+QeJlnpZ8SxQX2KtZxQY2zPC1QynQa1pywOCN5wotWb8zrnjLJy0lBaOM1G1mEfrMRvYci695OMkXmT1/O9o22kO+o1nYPvSCpb4xZL5uJ8zk/o42aggKYIdx3IT93ROB99AjTE9ncxL2ViPBlNGMq+lMYQdZtxXj1luo05k3/fr6fXC/+XV6rcZ9hOfel8tsp/TH3yKjvVCPj6XwB/zv6RRi1cx7vQ+g7dfA7/t1LaeSrv1cdw8dYSZYz6iXotXUbWYx/OTPPnz6gPgPte89zIkp1+AieP79PngKOEl3V18wjIyMvD19WXp0qUsWrQIX19fkpOTFYlFiIpCknlRRFBQEIsWLWLp0qX4+vqSkVFBbgOnRrDGPwFsWjJyZlf6G+uR5Hmo9E5kSrqaSJRGC61a0tUk56Nm0YShrWqDJo2LqaWcDFVm2JlXA/89vLr9xtOJVwgFaQNOsStWA64dGGmiC63aM9mpNoQdxuNYZrHbJHtvpcNLq1jic5k7ts0Y6lIfvXNHGD3sG76/eqvoBldPMPSlz5m6IZiLKgvc+jnQLPUCH4/9nDHecY8ZcT3mzO2AFcmsn7OBzVcT8f3gZyb7JGI7fDSfdzYsdesHqvp8uKwfbVUPuLR6E++Utdwm8R+m9P2Il5b6cSRJRSfXtrg7GZEYHMh7kz+l9fxTxdz1u0fw8lUM3XCO6LR7pMemUsPc5OFSn510G76Wn8/dw6FVYxqr0vnHZw/9J21i588/027y7xxWm+DoZI1hWhwHVq/GZX4wpd97KF8BAQH89NNPvP322+zatYvY2NineHQhKjY9pQMQFVdsbCyxsbHs2rWLNm3a0Lp1a5ydnRWL55ZnAH+k3cdqRFucLewY42LBbp8TePgPoZebafEbqZM5sMGLJdvPcvrSLarbNKbvuAF81rSk8pX7XPL25f3Vh/A7l0iGyozn3XqzfGadxw+4aX1aqqpxLPgkvyd2ZoyFLqiv4XsxFYyfp29T3ZK3Nbbnw3er8c6cY+z/dCM/u77BVItS1i/k5qkjfLriMH8ERxOVpouJjRWderrw7szeOFvku4ZPPYV725X80W8KN6ZoeHXObrxiwdbJmR83vsD54UuZdbUlvgcHkbFhL0u2nyU49jbGNo0ZOGskX41ojHHqFVYv3c1y74tEpWkxb9WKOQtG8Vbnf/GaiWdUJr9tP0M8Rgwf0RZjAMwZPbwZ84KD2LzhDN91ds55PEfqOd6Y78t5TW0G/jAXz0H1sx9XX2PN5BVM8S/8GU9n8/zd7I7V0nzcLA4ua4dlzrGDv19D76WneNxTotmgkWzyu0rvHacY0+MUYEH/BW+wdtbzOfsuXbV2fVk9JYwuK87hMd+TEb+PxEW/tDa2dDbP2cSaS3eoO3A8h792xUFfB4AHF08wfsxqNm9YzTinBvw1Iv+dgUT2+Jjx4uK3WDWiAXfP3eC+kyEEANznrP8/NB83k6u5r0lqOFP6fs2aMD+GL7Vg4A8fsmNQfWoAWaf+oNvwXRzzOcTeVEfGmpT9e+lxRUREEBQURGhoKJmZBS/otNqHjSE6OjpPLAYhKgNJ5kWZhIaGEhoays6dO2nTpg2dOnXC3t7+KUaQxOYdkaixZuSIpkB1Xh7XBiufP/l9w3ES3PoWPXmqr7Fi7DfMCkikurkNvVzbYph2Da/F33KkSV3URY6RybEPvqf36jDUKmM6ujjShFsEbN9Cl2PWNLj7mHcAbNvx8Qh/em84w7Q5B+jwdSN+n7OONbEqXvh6CENNSjtp62EzcBgrvGMY6nOGN+YfY+DabmVIEO4T9vNP9F58gnj0sXdqwcs21Ug4d5HfV2/md+8Qvl87i5mtDApulnSKV2eEsjs2eyjAixpjmuhX4zyAJoHvJn/GbwG3sXVqgItJDUKCI1gzx4M49TCarN7BiiQVnVrZ4nQ1joDgk8ydnMqD3/+Pt5vKV4wog8RzrPGJB5vOTHN5+N6sPciF/ktPsdv/MNsSOxS4oM30CWRX0j0YOJwNuYk8gH59Jn/9MrudV/GHJt8xroayIiARbLrww+K2+T5LBjjNGslCn8vMCy6lPKeIdI7+vJNZPlHZf2qAlo4snNKqTIl8Nj2c3hrBPL/lfBLmy9ivOnD+3abUKGn1i6f4MiABbJxZ93WPvEQeQLdpBzYuiyJgrDf7fz5K+IhBOJAvyXV155epORcZnU0K7te8PcvzvyYmDkxya8ia1ZHgOoANOYk8QLV2HRjd6gDHzt3kcpIWCu3qv9JoNOzatYuQkJAi5TNarRYdHZ28f3MfA4iMjGTmzJn/6pgWFhZ88MEH/y1wIRQkZ9oqKjk5+V/Xvee2gOR+Seb/8szMzCQwMJDAwEDMzMxwdHTE1dWVOnWecCvsuX+yR7lw6sW0VtlvWx2Xdgy18WVFQAA/XuzFokKJY9TqncwLSKSay2AOrnkJl5zkOdlvF30me3Gl0CGyTu1nyurzqM1b8t3OWcxqmp1UPLh6mvHDVrH5sWvXDei1eDwLTy3nE/8ttHaGB+bNmLHmDVa41Xvk1lp9Y4YsG8qQ4BXs9tnBWE8H9g8qrQ43u9Vs2OKTxBvbMWfNTL7qXDdnSTrHPl2N+4ozzJq+A6e/xhZsAQw4yT6nbvy2djB9jDM4lWZIw9xlaZH8drElX/z1PvNaZbeNRv38A06LT+C94BequQzm2O+5r286u6d/wdC9kazaHs3b7zZ9zNdMPIuue5/EV/MAKzcXeuV/X5rYM9m1Prv3RvCVZzxTp1rnLQo4dhU1enTu2bxgiz2ARXOGOtXmj4CHD2UGXyJYkwUurelapPXbnCH9bJkXHFa2gNWJbJ6xgsk+Mei0bMfKuW05+ekW1oT9xcA5tvyzsiuWJPH3+gvcadqInp2ti8aYS78BHy7rjdfwPZxevY7/G/QeHoUvtvM9h/MaLbi044ViWvB1XNrQy/wAay5FcjgxC4e8ix89bF2alHyR0aoZ7Qvtr565AaBHS6cGhWLXp7axLmggWVP+dfNxcXFERESgVhdtbgEKJPLlJTExkbi4OKytrR+9shAVkCTzVdDt27d5//33y2VfuV+a+VtBcn9PTk7G19cXX19fbGxsCtz2LG+ntwdxGl2chjs+bG3Sb8KkQY1YsSKclRsiWfRhi3xbxLBiezhqrPnow/55iTyAWc9BrBkXidPqC/nWv4//hmDOo4vTW6PzEnkAXdu2rP6wO76T/+axxtVIjWPNB1tZHZZdWarRgKlLP5aWIZHPY+HI6nc7c2zOIf7+YCObXN7ILtcp1n28Vx/nPLo4vDUlXyIPYETndyfwScASZgUHsNR/IHsLlCZZMHHxOAa3qg6Y0QOA3FYxPRxmjs5L5AEaDepI56XB/KGpw+sFXl8jXh7hgOneq1y+eoO7lNLKKASQfdctAjVw/9geeg7zLLBUk5gM3Cd8w0FOT32FtugAmcQnZQAGNLWpWcw+jbCzMQAe3k2LzxldxtzCtNj3pJWtGfpljDhs9SYm+8Rw12UwRza+hIt+NR40zSLqpV/x3buJXq2sON4zgjcW7OS8eScOBE4teJFSSLV2/VkzLozOqy/wzXwfJu4YhGMx62U/Bz1sm5oX/7nSN6OFuSEkpXI9TQsWDxfZWpR4OQHGhtQuYZG+ceE04cmmDY0bN2bixImEhoYSGBjImTNn8pYVbo3Pn9SbmZnRqVOnxzrWnTt3OHToEABZWRW075UQZSDJfBWUmPh4MxiWB2tr6yd3XPUl1nhHg7E909ysCixyGtGJtqsvcNrzEF4LmuOee8K8GsPpWA00sad3q6Ino7b9mtNodQRReY8l4RecBCobRvYs2n5l4NqW3kYH2VTWmBP/YcqwVay5pMGy32D2DrrHB3P+4PSO1QxwMufQ+AaQeJH13jewaGdPr1ZmJSa9tUcMYrn3Jcb4nGHiBwH0Wdm1hBa2a/gG3wSVDf9zK24NM4YMbMq84OP8FXAd8ifzxra80KqkiwRjujtZFHrIkNpaHTC2pWuTgtvpGNeiNjqkaP7t7J3imXLuJGuCUwC4ERaBf0nrXTqFx7HB/PqIjqW5DNAlfzL/KGVN5CGGtRsiUGPB7AX98+5w6Tbtxu8/JNJ+shdhS1fS1VPLebTUcnMp5k5AYXq0XTCcmX7fsDzYizGrn+OMW5kDKkpV9CFDVSmt2Sq9CnfR3aZNG9q0aUNGRgahoaH4+fkRF5fdSbm4xqU6deowYMCAxzrGtWvX8pL5J9kYJcSTJsl8FZS/tWLChAnUrl1Sm0vxdu7cWWSkgNwvzfz7tra2pmfPnrRp0wZDQ0NWr1793wIvgdY/MHuUC+ME1sz4gs0Flqq5BZAUgodPGu6DchLUxOTskWQsLKlfZI+ArTn1VDr5kvl0ohLvAcbUMy/mxKtfCysLvey62EdKZs2cjay5pMF+3OucWNYaY6Adt+k64xCHF//E9KZvs+jcfl5bfBx1v0mkru1WysnUjNEfDmJTwI/8sXc7Uwc1Z69bMeU26tvEJ94HHTMaF/ccACvb7NY5TWIqd+HhMY2NqK9fwsleZYC1SaFlueuqDKhd0nZCPNJ9Tm8/zXm02C5YTMyshsWudfqDZTitvsD6vI6wBjSyrQXc4mLsHSjy6ckkKqng41Y5LdNJJdwxik8sY728OiX7u0JVl5ZNC37ODHsOwmtBAk6LTxASBqia8f7MlmVLlPWb8Pmy3vwx1pOwrzbxuW3HIqtkP4f7XL2YxF0aFt2vOpnzSRlAfeqZV43PpaGhIS4uLri4uHDz5s28Ms/k5GTp+CpEDknmq6D8LQwNGzbE0rLs3bEADAyyS0zyf1Hm/m5mZoazszPOzs5Pvk4eyB7lIiy7vCXtJkEBJfUDUPP3hiCiB/XFjrJ8wes+RkscQHUMyrRf4OKZ7I525p34avFzefWm9QeNZee5FLqsCGXVjC8JUl1HjT4vjXi+5HraXLYd+PnDUFrNOcrv87ex22kqJYzf8++oqpeysDrFV/AK8R+pL7HC8wqo7JjiVnK9ctsRbWi7OoLTPg87wjq6NMR0QxTHPE+TMKJXwbtVqZf541QK+etMDJzs6aw6hG9AKPvVHR/exQMgmT99rhTTKb4Y+qY0sqgOsZfZ7p/O1EH5P4l6NBrXm6GrQ1kTexeMDTAr6/cGUK2zO2tGhNF5QwQffJBOHU3BOwsGTk1ooTrK6YBT7Fc7FXoOkBEQglfSXWjZjPaldrCvnOrUqYO7uzvu7u7Exsbi6+tLaGhoifX1Qjwrqt6nXZQ7fX19OnXqxIIFC/j4449xd3d/Sok82aNc+CeAcTt2hq1BG/dL0Z/TM+lvrAvBh1l/MWc4OgtzGql04Go814rdbxLXC3TeMso+QZNGVGwxt+bVaVxPLGPZSOKt7H3bWtKkQKu1Hk7vjmfTQDtIiuV07ANo2Z0P3co2HET9EUP40tUSkk7x2gcnuK4pNPRe7t0DkrmcVHx5QXzO2NsqC5MKd1tdPHsy/U+yK+kutGrPiNKGam3VnjFOpqCJ4CvP7LuGBv26MrmJAfjvYcL6mIeTJamT2T1/J5vSC31ebR2Z288Gkk4yY/4xruRNenSfsPU7eS+grPM5NGDSOHv0UfP3B7+w4tzDIRPvXDzLvLFrWRN7N3uW6qQzvDpmNZvKPJOzHi4LRjCziT73km4W7aPTtB3zXCwh9iSz5hwrMHHTg4snmDrfl3j06TauY07fgqrLxsaG8ePHs3z5cl599VWaNWumdEhCKEaSeVGi1q1b8+qrr7J8+XLGjx+PjY3NU4/humcgvpoH6Lm256WSWposWjHZ1Qo0cXy6ITL7pG5rR+cmBhAbxq+nik44ExZwifMFRqcxp3/n+qCJZYtf0cljsoLP4Zv+iBlb8+KpTWNVNTgXxv4iJ3EzBs96eKKtZmKITpkblcyYvGwQ/Y11ubF3OwsDkgotr08vpzqgiWW7d9FpYyCJ3XujUKNPX5fH6IQrxBORzm/bz5GCHg4DHQsOo1iEOaOH26PPfcI3HOUY2uyylK8H4GJ8B58FH2P9wpe8Mv1bOvd4l6E+93BuWfh+kgH9l73CzJb6xOxYQ9MeHzN4+kr6v/AOTgtCsHMq+2ei5ZQxfO9aH5LOMKvvWzR84SPadp9D3R5fsTwgGct+rxAU+H/MbWmE9lIgY4f9ildZJ7czacLny16gRbGvhxGjvx7DzJb6RO9dQ2vnRbhN+oEhYz7Epu9KNsdm0WD4RHaML7a4sMpq06YN7u7uSochhGIkmRdF9O/fny+++ILXXnuNNm3aKBhJEpu3R6DGiJdHPF9KS7IBLw9qgRWg8TzEfnUWUI/pUx0xJZGf5u/kj8SHSfWdU15MWfFPoX3o4TKuM51VWYR/tYlPTuWb2zAxnDc+8COqrENTNm3NZKe6oIlk9hwvAlJzT+L3ifPbz0uTdnMaXVQqyArYg9uM/WWfGt3WhdUL2mNKOtFJhe8U6OE2pSMteMCpr37lrWOp+ZZlcuzTjSwMToYmLsx2fWRhjxBPVu5dN1UjZhTbYbugem7t6aXSze4I65c9W2q1dv05/PtcvhjuQN2kKH7zucQNWydW7JjDklZ1i+7ExIHvd85n58wudFDdwtvnLCeox9Sv57Frin3ZS+/0LZi8aT5HlvbjxZbGpF26SlhSFrYu7Zn3wwIi1valjUUzvtz0Bu+5NOKFuW5FSmJKY9j5Rb4f17j4hRbP8f3O99m3oBtdje8Q5H+afefSMXfpxldrPiDSo9NjjHMvhKgKpGZeFPF0J4MqxakTrAm7DeadmOBSetW2jqszQ20OsyI2hG/23sR9hDn1RwxhjV8cY/b64d7jHN1dGlIn7Rp+AXHoOjWmUXBUvg6wQKtubFh8kS4LjvH+8PfZ4dSIVsZ3CQkI54K5HS7mmQSUFEABZkz6+hUODPuJzQF76NzWlzat6qKTmEBI7B3AiI4LZvBHz2uMGLYZX58ttJ1hQHSZJoWCeuNHsHxvFJMDio4eVK1df3Yuvk7vxYF8PXw++1ya0848e9Iov0vpYN6ML1YOL3WYPCGeCgtnDlx+jBmlLdrjdbloJ3vdpi2Z59GSeYUXtPsIrUcx+zGxZui7Uxj6buEFjckcNLHs8WBEl/Gj+GP8qFJibsonOxcVeKjzh++i/fBR+zag17KFaJeVsNjEAvdZk3Cf9ego25Z2vJ4juBU3othFjWbNQVvs/g0YvelzRj/60EKIp0TO6KKCuk/AjuxRLnBzKXaClAL0GzLZrQGgZv/240SjBcwYsvItjnztzhAbOON/mr+v6tB15nQCvu5BvSJDtenRePxU/tkxgRkudUg7F8augERqug7mwKax9DYuZry3ktg6sumvd9g4pSMuNtUIPxfDZU0t2g/sxdq9nxA0y4E6rXqxd+d4hrRszsdz2z9Ga5oZk5YNppdxcTXGerSc+hr/7JjMjH623LsYxm8+4ZyjLsNnTiDgr/nMK2FCGiGEEEJUPtIyLyooPVyWvVdyy1Qx6xffAmVEuxHD2DViWJEtjl7uXuye6nR2ZUVn1yKPux5awcdlDQfApCFjPpzOmFJa4Wq26s6u/fniKKH1sYimLhw471Li4jqdu7Kic9cyxNiulOOZMfP35RQ/QXoLNkb9zMbiFrUbyOW4gY8+thBCCCH+M2mZF0IIIYQQopKSZF4IIYQQQohKSpJ5IYQQQgghKilJ5oUQQgghhKikJJkXQgghhBCikpJkXgghxCMZGz+caOxWepmnLRaiTFLS7wIF32dCiLKRZF6UGz297JFO7z948Ig1hXg897Me/l69enXlAnmGmZqaYmCQPUdBdFy6wtGIqkT7IIur8bcBaNCggcLRCFH5SDIvyo2VlRUAV+PvKByJqGpirqUCoKurS926dRWO5tllZ2cHQPQ1SeZF+bkSl45Wm/27jY2NssEIUQlJMi/Kja2tLQDJqRrUmfcUjkZUJVE5LcG2trbo6BSeuVc8Ld27Z09wFnQmkcsxqQpHI6oC7f0sNnpFANC0adO8RiEhRNlJMi/KTf4WlT8PxygYiahKMjPucfR0PPDwglEoo3Xr1jg6OnLvfhZLfjxJxOVbSockKrF7mgd8tT6UsEvZ76Nx48YpHJEQlZMk86LcmJiY8NxzzwGw6+9LXE+4rXBEoipYvSuMO5n3qVatGj169FA6nGfeyJEjqVGjBpmaB3y48gTbvSIhS6t0WKKSuRidwrwvjnIqLAmAQYMGSQmdEP+SntIBiKpl7NixLF68GLVazRe/hDB3Qhus6xkpHZaopPb5RREQmgBAv379qFevnsIRCWNjY6ZNm8Yvv/xCeno6e/yi+PNoDI2sa9HYxgRDfTmtiOJlZWm5Gn+bqGvp3Lj1cESkbt260bdvXwUjE6Jyk29dUa6MjIwYOXIkv/76K/E3Mnh7eQBjB9jT2dEKU1N9pcMTlURk1C1+9Qzncmx2rXy9evUYMGCAwlGJXM2bN2fRokVs3LiR0NBQNHcfEB6VSniU1NHn0mq10r/jEYyMjJg0aRL29vZKhyJEpSbJvCh3HTt2BGDr1q1oNBo27otg474IahroYWtVk2o6Ut0lincn8x5Xrhcsz7Kzs+O1115TKCJREkNDQ1599VUiIyOJjIzk8uXLXLlyhYyMDKVDExWYtbU1TZo0oWHDhrRu3RpDQ0OlQxKi0pNkXjwRHTt2xN7enl9//ZWIiOyRCu5k3peWu3y02od1xtKCV5SxsTF9+/alZ8+eSociStGsWTOaNWumdBgVjpeXF3/88QcAK1asUDgaIURVJsm8eGJMTU158803SUpK4urVq1y8eJHr168XSGKfZZGRkQCYmZlRp04dhaOpGAwMDGjQoAENGzakZcuWSocjhBBCVHiSzIsnztzcHHNzc5ycnJQOpUKZOXMmAM7Ozri7uyscjRBCCCEqIyleFkIIIYQQopKSZF4IIYQQQohKSpJ5IYQQQgghKilJ5oUQQgghhKikJJkXQgghhBCikpJkXgghhBBCiEpKknkhhBBCCCEqKUnmhRBCCCGEqKQkmRdCCCGEEKKSkhlgxROXlJREVFQUMTExxMbGKh1OhRMYGEhkZKTSYVQIenp6GBsbY2ZmRo8ePTAyMlI6JCGEEKJCk2RePDHJycmsW7eOS5cuKR1KhaTVagG4efMmycnJCkdT8ezfvx8nJyeGDx+OoaGh0uEIIYQQFZIk8+KJOHbsGNu3b+fevXsAGNc2x6JeA2rXrYeOjo7C0YmKSq3OICkumqSEq9y/d5fjx48TExPDm2++ibGxsdLhCSGEEBWOJPOi3B09epTNmzcDYFrHkheHT8e8nq3CUYnK5MH9exzZv5PQwL+Jj4/n22+/ZeHChUqHJYQQQlQ40gFWlKvk5GR27NgBQOMWbRkz40NJ5MVj09WrTo8XX2Ho/94B4Pr16+zZs0fhqIQQQoiKR5J5UW60Wi1r167l3r171KxlQt+XJ6OrV13psEQlZm1nj0vvlwH4+++/uXLlisIRCSGEEBWLlNmIchMXF0dUVBQA/Ya/Rg2VgcIRiaqgfTd3Lp8/TcK1aPz9/ZkwYYLSIYlSaDQawsPDiY6OJjU1lfT09Ly+M8+Smzdv5v3u4eGhYCTK0NHRoVatWhgZGWFpaUmrVq2oW7eu0mEJUSVJMi/KTVxcHACmZhbY2DVXOBpRVejo6NDSqRsJ16Lz3mOi4omJiWHfvn2cO3dO6VAqhNzRqgAZejaHhYUFPXv2pHv37kqHIkSVIsm8KDe5Y8jXNK6tcCSiqqllYgbAtWvX0Gq1MiJSBZKens7WrVsJCQkp8Hgd69rUNDHE0NgAvRq6CkUnlKLN0pKZriEjPZPka7e4q75HYmIi27Ztw8fHh1GjRvH8888rHaYQVYIk86LciG+FYAAAIABJREFU3LhxAwCVgYwJLsqXYc3sYSm1Wi03btzA3Nxc4YgEQHR0ND/++CNpaWkAGNepRXu3Nlg1sVQ4MlHRpN9IJ/z4JSJPXiYlJYVVq1bRr18/Bg4cqHRoQlR6ksyLcqeDtJqK8qXlYcnCgwcPFIxE5Dp//jzff/993t+OvVvRsouU14niGdU1okN/R5o4NuTwjkDupGbi4+NDUlIS/8/enYdFVX8PHH8PIIsKKIKyuuCKpiAuiVsqJoaZaW5lqaW2uJRp31/aJrbpt28ulZaltmiWmrmVuIuKCoKikAoqggm4sCkgwgzI/P5gkV3QgcvgeT0Pz8Pce+fec8fBOfcz53PupEmTlA5PCL0m3WyEEEJUyvXr1/nhhx8AqGNsxIAXe0siLyrEyr4hg18dgI1jbulcSEgIf//9t8JRCaHfJJkXQghRYVqtlh9++AGNRoOhkQGeE/pg69xY6bCEHjExM8FzQl9smuV2t9m5c2dBJzQhROVJMi+EEKLCjhw5wo0bNwDo/dzjWNnJhHdReQaGBjwxpgf1G+bOsdqwYYPCEQmhvySZF0IIUSF37txh27ZtADi0tcOhrZ3CEQl9ZmxqjLuXKwAxMTEcPXpU4YiE0E+SzAshhKiQoKAgMjIyAOjs2UHhaERt4NjGDiv7BgAcOnRI4WiE0E+SzAshhKiQ8PBwAKydGmFhbaFwNKK2aN21JZB748G0tDSFoxFC/0gyL0QFqDjDysEN8WhTF482DXn69/tN1orh7xcd87Z35bPwnII16s2j6demLh5T15NSgWMbpG7hncfq5+2r+E9D+nZpzuhnnuHD7zdyLlV7/x0K8YDybwxn31ImvArdcWx9774EV65cUTASIfSTJPNCVJqapB17Ke8jxyjWl92nb+n4uCbUs26CVZGfBpiq44mJ2Me+RROZ9OI7BEhCL6qAVqvl1q3c93SDxpYKRyNqE5N6ppiYGQMUvMeEEBUnybwQlWJBfXMVnN7E4diyk+br+7YQpqmDsbEOD23cm+m7othxLLrIz54zN9m1dhH9HAwh4jtmfXOITB0eVggommSZ1NPlG1uIe++pmzdvKhyJEPpHknkhKsO4GT0GPo6xJpj1/pfL2CiGwzvC0Dj0pqdz/WoIygTLx9/A552xmAPs/Ytz1XBU8WgpXMucP4oqhK6Y1DUFICWlIsWHQojCJJkXopJaDHyatsYaknbsJb6U9UaxvuwKT0E18EU6mRhVW1z1nR/DHhWkxiNfVAtdu3v37r0HKpVygYhaSWWQ+57Kycm5z5ZCiOIkmReikjKdhzDYxRJOb2J3QslSmyv7tnBe04phQ9yqNa7kqJNcRQuNm9Lk/psLIYQQohaQZF6ISsqhNX2HdMJYE8zv+64VW3uRQzvC0LR7mqFu1fPnpVLfIGqvD+99tpk0TGD4SKQDuBBCCPFoqL4aACFqEduBw2n7pT//7Pib+OdfJb9Rn9ElX3aHp8CMkbQHQnV5UM0Rlg12ZmWRhZmkJ6agzn/oOpdvJ3bW5VGFEEIIUYPJyLwQDyDb0bvUUpsr+7YSpXmMcQNdq+CoatITb5Bc5CeTu9ZNce7+NMPf28LGX/+PziZVcGghhBBC1EiSzAvxQJwKSm3+8s8vtcktsclq+xyDW1bBn5axJ++eSCfgwp1CPzfxPxbBul838n8TvXCSRF7oMRVXWOc9jqEuoxjq8gKvrL96n+0T2T9+ct72b/J1+N1yty/PeZ+3GeryAnP23Sm0VMO1fRt4f+4h0rh30R676D2GurzA1C0JFdq3itMs7j6Woa4f8WdceTFqCJz+Wt6+a8409thFHzHU5QVeXl+x8xVCVC9J5oV4QLYDh9PWWENMXlcbo0u+7I7IwezpobRSOjgh9F4WCb6ncyd1l8Ew7hR+oalVFkGd8O18MeNPwhKzquwYQgjxsCSZF+IBFZTaHN/EwQQtkfu2ct64Iy8Maad0aELoOTPqmasgNJCAuLJbFSbuC+Kcxog61dz23m7sK3z+y/u83btR9R5YCCFKIcm8EA/Mib5DumGsOcJ2/73s2REKLiMZ5Cg9uIV4KMY2uHu2oY4mkh3+N0rdREUiATujyLJ3oauzWbWGZ+jQio7dO9DaRj5ChRDKk/+JhHgItgO96WScRdQP/8fuCC1NhgylqdJBCVELNPXsTivjbBJ8T5NYSqmNYdwp/MLTqDPwCdoXuzmbiitsG/4SQ10/YlNCyZH9itSAn/d5m8EjNhCJFo58zwsuoxk6/RAatJWumdeVjPBA1s76mKl9JjLC9QVe9J7LvAX7uZBa+rcXqUH7WT19Pm94TmSEyyiGuk5g4vBP+e8vJ7mmLuU1TYhgr89CZnpOYYTrBCaMXcQ6/ytIkZEQNZu0phTiIWQ7etPf7WNOBF3gqnFvpg1sXvEnH36bF3rOLWOlCZYzdvLb8y10EaYQeifT2Z3+LtsIDw3kYMJgRtoU/cYrbt9xIjW2eD7VQsc9YHPZ9B7AMHUQ/lsjSLbvhNdAR4xdHTFGmW/ekvet4oPZe4jRmGLl2p4e3QxIiY7knzUrmO1/mjdXzuRJB8OC7W+sX8T/zQ8k2diS5q4u9HA1JjvxCudDQzmyMJQjEW/z2wIPzPPOxzDuKJ+O/4ZjV+9i0sKFzp71yYw4y5+vnuNICxn3E6Imk2ReiIfiRN+BXfk6aC9qt5H0rUyJjSaF5MSUMlaakKwuY5UQjwAtdng85czK0LPs2J/EyLE2BetUXMstsWn3BAPdDAmvguNbDRzKGw5qzm49T7KzBxPmehYkvg9ME8nGsa+xrZxNslJTgDpFlhnG+bH4vb3E4ETPH+Yyt4913pp0olZ+zfuLA/l67m46rHkKe1QYpAbx4+Igko1b4vXLPKa73StDygnfwZyxvxDuu5+Ds3ow1EYFpODn8yvHrhpgPWY2//PpijWqQvsPKRGTEKLmkGReiArQ8hhTdt1kSinrrCdu4+DE0p7Vmuf/uMrzxZaajNjIwREVP3aOxXC+PHO74k8QopawHtidVotDCfcNJnHsU3kJJhhGneJQ+G1U03vSDlWVJPNVI4s7iSncuf+GRUSu2UNoWg6q8ZOY3afwpNt6tJwyhfH73+Xb4F1sCvfiTRdDDBJzsOztSnuHIbzqZlpkX4Yuj+PluoXw4ASiE7VgA0ZxQfwdlAT2/Zk2t2vB65y7/4mM2X+R1aGZD3PiQogqJMm8EEKIGumuQ2f6u5iXKLW5uj+IfzVODPd0BuKVDbIyjF2Y6DuP5wqVwxSlIXD6DD7bn1awREUiEaHxgDVPeLYpUeajxZqO3ZpA6GWOBN3gTRd7sp17MHVxjxJ7z06IIzo0jNOJ6UBdNHl183dCzxOp0UL3rnQqdq8KLXb09GzK6tALD3HiQoiqJMm8EEKIGkmLdUGpzYEjSYwcbpNbYuN7iax2w+jnXDNquY39f+S5V3dS4vuzp97mr8U9H3LvSVxJuAOkcnDC8xwsZ8uMq7cA+7xH6fzru58d+84QFx1PTFw8N9NKn8p6MyHvBlXWDUqdE9DAwZo6SDIvRE0lybwQQoga616pTSiJwz2xjTrFwYi7WM7qSosHrmHP1mmM1cOClp4dsDcu65zrYOpaDwCV+ir7pn/O0iM3wLgu9i7NaeXpgmO71nR0dSRh8Rd8F1zxI8uNpYWo2SSZF0IIUWMVlNoEBRCQMAC3/UFEGjfleW+ncp51b7KmSlOyBWN6WoZOY9T0eYXfw1/R6T7vscDWwhSu1sN52lu86VJWic49yVt+ZfmRG+A6mPnfvIx7oX74Kq7hW+w1aWjTIPeXuAQ0tCoxOn8zoayJ+kKImqBmfEcphBBClCK31KYNdTTh7DlyisO+keDiQT+H8j6+6mBsYgyaW0QnFE1cVVwjIvRWpeNQqrmUFjvauVoD1wjwjSpli3RO+sxjxthP+c4/BdAQHRRNFnVwGvNckUQewCAhiuCo21Coe7yZawfaG6sg+ATBxU5URSIn90dLr3khajBJ5oUQQtRo1gPdaW+czb8r1+AXkYPtU92wL6fERosFzu0sgGscWXOUqwU3nUrh3MqfWR9Rse5QWpO61DEGEuNIfOizeHAdxvfHxVjF7TUrWOB/vdAaDcm+a/huwzkuR2lxbGcOGFPPwhTIIiboImmFbrhlkPovu+dvIjgt9yZTmZrc5XcdujPC0xYSA1nuc7jQDaU0/Lv+F9YEy8i8EDWZlNkInTEyyn073c25q3AkorbJuXvvPVWnjvS7ftTcdehMT1cLQoOvcsPYhYkDm9znGcY8NuZJXLb8TPjOZbwR+hftHeqTEX2RS6mNGDDGnaAN/9z3uDkOdtiaGBAe8Tdz+hzH0nUEi5Z56uakKiHb2ZtZPpF84HOEY6/OYoJrezrYG5MRHUloxE2yjK3p5DOZoXmj8I+NeRIX358J37qE6dFdcGtnjkHqNc4fOUuMuhGOLeoTG53O7VQNuWlAPbr6TGFI9Jfs2LqM14N20tW1CTnR4YRGZNLC1YHkUD3qGiSqwQnead6HRf825bVT51jhdv/yL1F1ZGRe6IytrS0AN+OvKhyJqG2SbsQCuReMjRo1us/WorbRYk1Pz9a5lfCuPfAot8QmV5aLNx//MoPhvZ2xSbtGREQsWe36MPmXT3nb834XA7lyTDoz0Wcwrvb1MUi8RXLiLcVG6G2Hv8myX2bw7FPtqBcXSeDO05xKNKOp52Cm/vJfPvO2K9g2y8Wbj394De/eTmijTnJgy0GOhiZTv/fTvLH+v/xvujv1yeDskYto8kbucyw6MvWXj5k7uQ9tTJI5tf8053FiwOcf8f74lnLLKCFqMBmZFzrj5JQ7IS3lZgJZGjV1jKUHgtCN+KuXAWjWrJmygYgqpaUp43zXMa6UdQ0mvMvmCaU9x45n1//Is6U8x9StD6+s7EPJqaklJ6y29VnCXz4l92HlPZFPvScWXTj7c/6aXdZZlBajG7OC1jPrvlsa02PZ9/xVxlpTtz5McuvDpAoc09TNkzdWevJGaStdZvC794wSi3MsmtFz9pv0LHFuM9hcyvZCiJpBRuaFzjg6Ohb8fjpwr4KRiNrkzu1ULp49Ady7YBRCCCFELknmhc5YWVnx2GOPAXDcbzu3kqTGUjy8vVt/RKPOwMDAgN69eysdjhBC6K9b+5je3AyVypL2S88UXZf5D4t6WJe+TtRokswLnRo3bhympqbk5Nzl79+/ITnhmtIhCT0WfHgH/17Mnaj49NNPY2dnd59nCCGEKFODgfx3xWu4kEa4zywWX87JW5FJiM/rfHA8CZ74nI0zH1M0TFE5kswLnbKwsGDUqFEAJCdc5ddlH3Dq2B5up95UODKhL+5mZxF7+QK/fedDwP7NQG4Jl5eXl8KRCSGE/qs3eD6rXusMKXuZPfMnrgJ3AxcyeWkAmU2e5Nuf30BSef0iE2CFzvXo0QOAjRs3olar8d+9Af/dGzCrW58G1naoDOQaUpROfSedpPjYIstatmzJlClTFIpICCFqG0t6LlzKtIODWL7tYyavt8d94decUtvQc+lPvNFcPqP1jSTzokr06NGDNm3asGbNGi5evAhAxp3bZFy5qHBkNYdWm9sSTqUq++Y3jzILCwu8vLzo16+f0qEIIUTt0qAP/13xOgf6f8XO573ZCRiM+YM/xjooHZl4AJLMiypjZWXFzJkzSU1NJSEhgfj4eG7evElOTs79n/wI2LNnD9nZ2bRv315aLuYxNjamQYMGNGjQgDZt2igdjhBC1Fr1+vmwbMJePH85C5ZD+WbpCOyVDko8EEnmRZWzsLDAwsKCli1bKh1KjbJnzx4AOnbsSN++fRWORgghxCMl8wK+gXlljSmH+HFrFFNfb6VsTOKBSGGUEArJyclBpVIRHR2tdChCCCEeKZkcm/MGy8+n0MRrNB6Wtzk555VC3W2EPpFkXggFXLhwoaBmPi4uTuFohNBvKvUlfvJ8gaEuoxg6ZR+JaMvZWsO1fRt4f+4h0opsV9by6pBC6Mol+Pzyb8ESFYn4jp/MUNfZ/BR1t5rjEbXd3YM+TF4RQmazUSxdv55ffbwwTfFn9sTvuKR0cKLSJJkXQgGBgYEFv8fFxXHnzh0FoxFCv2mDDnHwahZ1jOtA0D72RpU9ulgnfDtfzPiTsMSsCi2vDunrv2f+4mAiNdV9ESEeSZlHePf1FYSrbRi0cAljG6hwnvlfPn28ERx6j6dWRCodoagkSeaFUEBoaGiRx4WTeyFEZaQTsiWEZOOmPDW2E3U0l/htS5TSQVWKppRlWizoNXcWn698jcEO8lEtdCWFYzPfYtH5FBj2OT8VdK/pyMyl0+lsksbFOa+wJKKi5TYX+HGwA7a2tqX+NGw3g13V/k3Xo0f+hxCimgUEBJCZmVlk2fHjxxWKRgj9ZpB6lt1HEsChE70m96ebuQH47uOEWt8TCGMsXdrTsXsb7Eykfa3QjfSDPkz+/hRYPsmipS8X6V5j2GMOy153hxR/Zr3+HWcquM+sGze4UcbPrWspZFTFiYgipJuNENUsLCwMKNpnPjY2lqSkJBo1aqRkaELonTTfgwSn5aAa3o32Ns1I7d6IY/sD2OT/Al0HWhbZ9rzP27yzIa97x5HvecHle/CczkLrrcwpZfmfy/piTG4inREeyKaVewgIjuJ6qoa6Ds1o2Wcg46b1p43FvXExg9QgfPosIrjPVNbPc+DY8k3s2B/BlVQtps6tcH12GJMmdMQaFSqu8Kv3XNZH547Npyz+D0MX18Fm3pf8NNaYHePn8F2oJSO2fMHLzoYFx1CprxK8ZjtbfM9wKSoZtUkDHNq50HP8MEYOdCqIGSB6wVzeXJPOoM2fMjJuJ+tWHeGf8CRSTRrQtHcPhk4fxUBns6r4pxE1UL1+SzinXVLGWlN6Lj2BdmlF9tSVLy9n8KUOYxMPTkbmhahGd+7cKUjm828WlZ/U+/n5KRaXEPpIxTUObz1PFk0Z+GxboB49xnTFigzObjhaYiKsTe8BDHu2HVYA9p3wGu/NUG9H7MpYnp8UJ+9bxeyxi9m4M5J0h3b08HSjmUkS/6xZweyxS9gbV8oE1cQTrJjwMV9viSTDoRkuzuZkRoRxZOFCJi0IQ4MWLZZ0GOPFkG52AJh268sz470Z1q5+medsmBDC18PnMH/xfs4mmtCmT1e6utYnLfQwv8/4gNd8TpQyATiLhJVLmDVjE0EJJli7NsfOJIWonX/x1dgv+bu0+IUQekNG5oWoRoVr47VaLSqVqiCZDw0NZeTIkUqFJoTeMQo/xZ7QNHB9hqEuuWNTqu696Gm/l7+DDvNXlFeREW2rgUN5w0HN2a3nSXb2YMJcT8xRAS3LWA6GcX4sfm8vMTjR84e5zO1jnbe3dKJWfs37iwP5eu5uOqx5CvtCI+KEBnLIdTDvrxxHDwdTANL8f+Hd6TuI2bITv2kd8bKwxG3CeJqZXGdPcCImfYYyZUrzvB0klnLGKfi9t5I90RkYPfUaSxZ40jyvBOdu1BGWTlnGwQ3fsMB1MYuGWxd6XiKndoLLvAV8OLYl5qhQqa+yY/rHfHckjO/XR/H07NYP/e8hhFCGjMwLUY3yk/n8RL6w5ORkLly4oERYQuilC1v9icQIm2e70SIvkdaatGWQdwvQXGLLhvMPfYzINXsITctBNXYSs/sULoOrR8spUxjvagHBu9gUXnzCoB0D500sSOQBLPoMYpBLfUi7yvm4ytf0G0UdZUtQEtj34Z1CiTyAoXNvZvsMogkZXFhzkOjio/OeYwsSeQCtiT3eY9yoDxB9VYF2nEIIXZFkXohqkpSUVGpP+cJJvXS1EaJiVOrz7Nl3GcxdGO5pW2Rd6+G9aWWsQuu7j6MPMRFWRSIRofGANU94tilSiw6gxZqO3ZoAiRwJulH0yeat6OJsUGx7C2yt6wBZaB4grozQ8/yr0UJ3D7qZlFxv0L07btaGEBXOmYTC+6+DWbfWBYl8wVIH69zSInUW6kpHI4SoKaTMRohqUrgmvnB5Tf5jyJ0ce+fOHerWrVvt8QmhT7T+fhy7mg3mVzk4ez7HiiSq6aQBJJ7gj/2p9PK2LGMv95PElYQ7QCoHJzzPwXK2zLh6Cwr3BjGvi3mJhLtOwW+ZpfWjvI+biSm5+3C2KXFhAaA1aYSTtRkk3iIxTQs299ZZW5T+f4oxKlA/QDBCiBpDknkhqknx3vLFy2wAMjIyCA0NxcPDo7rCEkIPpRO4NYxkgLRELgSXVl8OkMGl9Ue56l2snr3SLGjp2QF747L2UQdT13oPsX8dM1Y6ACFEdZJkXohqkN92snDryYsXLwJQr1497O3vjeglJydXe3xC6BPDhNPs8U8C88eZvW8W/SxKVowaJhxl3pCvCQ7dz+5iE2ErzgJbC1O4Wg/naW/xpsuD7EN3GlpbAlkQlYCGZiVG51XqJGISM4AGWFlLb3ohHhWSzAtRDRo1asTMmTOLLJs2bRoAzZs3Z+rUqUqEJYReSvI9yGlNDnj2pKdF6UnrXRs3BvW2JnjnFTZvOM+4uS4lkl81YF7Kc/OXa7Gjnas1RFwmwDeKN12Kd3xJ56TPF/wcUYf202bwRp8HK+fJH0hPuc92Zq5taWYcQGRQAMHqrvQqVsaTERREcOJdaOdC2zJeFyFE7SMTYIUQQugNFdc4tDWCLCxwH+5Wau14rnr08O6YO8HTdx/BeTM8tSZ1qWMMJMYVaf5Y1vIO4/vjYqzi9poVLPC/XmiNhmTfNXy34RyXo7Q4tivtsqBijE1yJ8USl4KmnK4y2c69GN69EVwNZMXcw1wuNIn2btQRlvnsIRkzWozpSbuHKisSQugTGZkXQgihN4xOH2VPRCZYd2NQ9/LvXKrq05+e9of4++oJNvsm0Wu4NTkOdtiaGBAe8Tdz+hzH0nUEi5Z50riM5dbO3szyieQDnyMce3UWE1zb08HemIzoSEIjbpJlbE0nn8kMtXnwsbF6eV1lbmz4L5P8G2A2/v9YOaG0G0dZ0v/zKZx79St27FzGzODtdHJ1wER9nQtB0SRr6lD/2df5aKzdA8cihNA/MjIvhBBCT2g4s/U4VwA8nyi1PWNhWpMWDBroBGRwYctRrqIlx6QzE30G42pfH4PEWyQn3iIRylwOYDv8TZb9MoNnn2pHvbhIAnee5lSiGU09BzP1l//ymffDJc+a7s/w5uRuOJmruJWYzrXolDJbRd61cWfqLwuYN6svHczTuOB/guCI29Tv7snEbxbyywIPrGVUXohHiozMCyGE0BPGtPX5H3/5VHz7FnO/4K+5RZdaeU/kU++JJbYuazmAqVsfJrn1YdJ9jphj0Z2PQjeUGU+PZd/zV4nllnSa/X98O7voUu81q/Au9Rj2dJ0yg65T7hMM0GLughLnny/LZSRLwuWu00LoO0nma6HCLQ8PHjxIvXo1qGWaKCEnp/idI4UQQgghKkaS+VrIwOBe9dThw4cVjERURFpamtIhCCGEEEJPSc18LeTg4FCkn7mo2bKzs5UOQQghhBB6SkbmayEjIyM+/vhjpcMQ95HfZ16rLbsVnRA1hZHRvY8Llbxlha7l/T9oaKjsjbmE0EcyMi+EEOK+rK2tC37PvFNWrxUhHow67z1lY2OjcCRC6B9J5oUQQtyXmZkZFhYWAGSkSzIvdCsjLROAJk2aKByJEPpHknkhhBAVkp9o3bx2U+FIRG1yJyUdTWYWIMm8EA9CknkhhBAV0rhxYwBiIq4qHImoTS6fiwNy2ypLmY0QlSfJvBBCiAp5/PHHAUhNvE3ClcT7bC3E/eXkaLkYdAmALl26FGmtLISoGPmrEUIIUSEtW7bExcUFgBO7wxSORtQGUSFRpKdkYGBgwDPPPKN0OELoJUnmhRBCVNjw4cMBuHntFv8cPKdwNEKfpSamErLvLAB9+vSR+6MI8YAkmRdCCFFhDg4OdOrUCYB/DkcQ/c8VhSMS+igjNYPDGwPJ1mRjbGzMoEGDlA5JCL0lybwQQohKGT9+fMFk2IAtJwg9cEbhiIQ+SYpLxveH/aQm3gbg1VdfpUGDBgpHJYT+kmReCCFEpZiZmTF16lQaNmwIwNkjF9i/xp/kq9KyUpRNnaHm9P5/2L36IOo7GgDGjh1bMA9DCPFgjO6/iRCiKtWvX1/pEISoNBsbG9577z1WrlzJhQsXuHE5gV2r/GjS3IYWrk1xbGuHsamx0mGKGiD+cgKXz8Rw+Z8YsrPuAmBqasqUKVNo166dwtEJof8kmRdVKj09nbCwMKKiorhy5QqxsbFKh1TjXLp0iWnTpikdRo1hZWVFw4YNGTBgAG5ubkqHI8pRt25d3nrrLfz8/Ni5cyfp6encuJzAjcsJAJjWM8HMwpQ6xnUUjlRUuxwt6WkZpN+6U2JV165dGTZsGFZWVgoEJkTtI8m8qDJnzpxh7dq13L59W+lQhB5JTk4mOTmZS5cu0aBBA1599VWaNWumdFiiHP3796dXr174+fnh7+/PzZu55TaZ6Woy09UKR6ccrVaLSqVSOowawcjICHd3dwYNGoSdnZ3S4QhRq0gyL6rE77//zpEjRwoeN7Eyo5m9OU629ZHPNlGWO5nZXIpJITouDU1WDrdu3eKLL75g+vTpUldbwxkbG+Pl5YWXlxcXLlwgIiKCW7dukZaWRlZWlk6OcffuXQwNDXWyr+pw/fp1bGxs9Crm0qjVuRdkJiYmFX6OSqWifv36mJub4+DgQJcuXTA1Na2qEIV4pEkyL3Ru27ZtBYl82+aWvDqqA3ZNpC5cVEKOFt/D/+Lr/y/JKWpWrlzJRx99JB0v9ESbNm1o06aNzve7adMmRo4cqfP9VoU7d+7wn//8h0GDBjFgwAClw3koa9asoW7dunrz2gvxqJFuNkKnoqOj2bNnDwAjPFswb/rjksiLyjNQ4d2vOV/M6kkDc2PUajVr1qxROiqhoDt37uDn56c3825CQ0MBOH78uMKRPLzQ0NBQbaOCAAAgAElEQVSC8xFC1DySzAudyc7O5ueffwbA2dGckYNbKxuQ0Ht169VhxrjcGxSdP3++SOmWeLTkJ5MHDhxQOJKKyU/iY2NjSUpKUjiaBxcaGkpmZibJycmS0AtRQ0kyL3Tm3LlzJCYmAvDsAGeQ2nihAy6trGhmbw7A4cOHFY5GKMXPzw+AsLAwhSO5v6SkJC5evFjwOD92fRQYGFjwuyTzQtRMkswLnYmPjy/4vUMraTkmdMfFObdW/saNGwpHIpSQlJREXFwcABkZGTU+qSweX02Ptyx37twpcvEUFhbGnTslW00KIZQlybzQmfxk3sm2HmZ1pa+00J0OLXMvDrOzs7l165bC0YjqVnh0uLTHNU3xkfjk5GQuXLigUDQPrvhFiD5cSAnxKJJkXuhMRkYGANYNzRSORNQ2TazuvafS09MVjEQoIT9512q1QM0eIY6NjSU5ObnE8pp+AVKa/IsSrVZb5LUXQtQskswLIYSosQonx4VvwFRTR4iLX3joaxJcuLQJ7r32YWFhej2hV4jaSJJ5IYQQNVZ+95riyfHBgweVCqlcAQEBRR7nJ8EZGRkl1tVkZV2UQM29kBLiUSXJvBBCiBqrrMSxJrZ8zG/jCEW/RdDH0fnCZUEqlQqVSlVwHrWhd74QtYkk80IIIWqk+yXHNa0Ovax4Cpeo1NRa/8LKKm0qvF5fbt4lxKNAknkhhBA1UmnJceHksiYl84XbOOZPGC08cTRfTYq5LGXdmKvw6Lw+nIcQjwpJ5oUQQkcKJ5qljWiKiiueHJcmOTm5xowQFy4Hyi9Lyf8pTB9KVMqric8/H6mbF6Lm0ONk/gTvNDdDpWrL66fvKh2MEEIUSTrLSkBFxRRPjgsr/LisUeTqFhcXR+vWrQt+GjVqBICRkVGR5WZmZjW61KZwaVN5kpOTJaEXooYwUjoAISol8wrvPLGARbGZ0O8lrq8bQJMH2c+xLdiN2s71Z15D/V0PjO973HM857KYzY17su/4y3hS0VHXNI6u3MqHa09xLDYNYxsnnhg2mGWzutHMtJR9xJ9gSI8V+Krr0GvJhxwZbV/mng/M/AjPP67h+e0S9g2rX8F4hNAPxW+8VJaaMql05MiRRR7v2rWLv/76i/r16zNz5kyFoqo8R0dH3nrrrYLHsbGxbNq0Ccg9R0dHx4J1+RcsQghlSTIv9Io2IJB1sZmYmBihDvBnTWRf/tOqpr6NMzgw5xuGrL3IXRtHBvRzJD7kPH8v/46AmBzOftejnAuRTI7OW8cqj1lMdjKsxpiFqBnee++9Io83bNjA4cOHad68Of/5z38Uiqr2a9SoUZEkvXCpkJOTE61bt1YqNCFEGfS4zEZUlR07dhAYGFgDvwrOYOfGMK6bOPDGSx0xVV/mfxsvKx1U2SKP887GSDIde7D10Hx2/TiLkD1vMMLGiKTdu1kTmV3+81PPMWXOIS4j5RpCCCGEKN0jn8zfDfTB3dQAlakrUwOL3Sb+8o8MaWBU+rpa7OLFi6xdu5aPPvqItWvX1py6yJQLrD54AxzbM2Zab7wtjEjYdpgDmTlKR1a6mHii1Vro0J7elnl/ao1b8lyHhqBOJTKlnCTdxIrmNgZwcCuvbkysnniFEEIIoXce+WTesMccfp3pgak6jO9mLiW4YM1Ffpz4Ib4pRjSauZpFPeopGKUyMjIyCAwM5IcffuDDDz/kzz//VLRzxM1tAfimZmPbvzM9GrswzqMxxAaz9GBq2U/KTGb/yrUMePL/aOg8hcZ9F/Diyn+IU5c1aTqbS7v28MLID7BzeRVLtzn0nrOX4wn3nxBWQit72psYQMgJ/orPO17mVQ5EpoBFCwa1Kqd8xqIN89/rgS1p7P38V1bGV26Sd9LJI8x+ZQEubq9h6jyVJn0/5pl5ewmML3bhk3KSIc6TUb0RSNLJQzzX9y1Mnd+i9cjfOZCZw6l5C1E5fMDMs6mc3fYnI4bOoaHzFIzdPmTgvKNEZGrJnRfwEwP6zsI07zWesuYS5fyrCCGEEEJHHvlkHkxp77OC2a4N4fgnTFh6BoCopW8x+9BVePxDdvl0wUzhKJVQuBtHcnIyBw4cYMGCBSxYsIADBw5U890XE/jtj4tk4sCY0a0AM4a/5Iotmfy1NogbpT0l8yrLX/wvA30OcCTBhMf7daZ343R2+HxNr3knKZmeZ3Bs3hIem/Q7v4ek0dTdjSEdzInb+Du9xm3hlKaS3wA4deGT0S0gIYzX397PhfiLLJr0M6tjTXhy/giesyzvz88Ix2dGs9zLERLCeHPOsdLPsYRszq38lseeWc3i3VfIcXJhuFc7OpDIX6t+w2PoIpafzSj5tISTvDp1HZsvpaJWpxKptsC5YIJuBhGLvqH31F0cTamLm7sDDqlx7F+1il5zDrLujUV4LggmzrIxPVs2JO3SBVbN/YrntiVU7vUSQgghRKXV1JmD1cu0Iz4/v4lvj4855TOL5e2eZrPPHm5Z9uHTn+fQtbSuIzVccHAwN25ULP0rrrQkPT+xV6lUBXf/+/PPP3F1daVTp0506tTpoeK9r7NnWB1yE9wH8HqH3LetyqMLzzkeYHlAAN9HDuCjYhNho1dt4p2AeAw8nuXQ6qF45CXPyX5/MnDSDv4tdoick3uZvCqcTJv2fLNpOtNb5V7C3Y05xfiRK/it0rXrZgzwGc8HJxfx6cHf6dQD7tq0ZurqN1k+2O6+z9aaWjBi4XOMCFnO5t1/8OK2duwdZlPuc3JO+jLS5wTXLZrz9uppLO5pnbcmjWOfr2LI8jCmv/EH7ntexMO00MVEwAn+du/Dlh+fZaDFHU6m1qU5Km4CkMzu3fDMtx/xxzAnjPOO03XUJk79sYYXbTqx7K93mdbBDMgmas1PdJl7jH1rQ7g8bBDNK9z5RwghhBCVJcl8HiO3Ofzq40+XuXuZ/tRewIIu3/3I++30r5NIcnIyP//8s073WdYNcEJDQwkNDcXMzIy6devq9JiFndp4nFMY4j7KjXb5yaFpS14Z1oLlyyP4bu1FPprvUugZV1i+MYJMHPh4vndBIg9g1X8Yq1+6iPuq84W2z+bg2hDCMcR91gsFiTyAoVNnVs3vy4FJ+7hemaBT4lg9bz2rzuUWnKjV0MDDiwUVSOQLNHZj1Xs9Ofb2YfbN+5V1Hm8yrnFZ78lsdq0KIhxD2s2aXCiRBzCn53sT+DTgM6aHBLDg4DNsH9yg8IGY6PMSz3aoA1jxRPFd9xvC2rxEHsCgSzfGtdzLqXO36TJtdF4iD2CE8zB3evocxzfmOpeA5hU/WyGEEEJUkpTZFDCl/cyFzHbN69f9+EdseL2VsiE9oNRU3Vcrl3VrcgArKyu8vb2xs6tEkloZmZdYvesyWLTh9cG2RVa5j36cziYqrm87zI7CE2FjrnAqVg0t2+DZofg1qxGdvdrSosiIcQJ+IQlg4siY/iUbRpr164yneZ2Kxxx/hslDFzD5j4tovZ5l+7dD6Gyi4tYfq3h6zZW8bSJZsyaQXWeT0ZSzq4ajh7HIywESwpg4L6CccpurHAhJAhNHXh5cWtNLK0Y80wpTMtkTcK3oKgsnnuxQ1kWCEU4eLbEossyUhpZGgAVd3BsX3dzEjIZaFajv061HCCGEEA9NRuYLu3wEv4i8doynN/Dz6df5xE2/J75++OGH2Nra3n/DQpYuXcrFixeB3CS+tFuSm5qa4uHhQY8ePQpuIhIdHa2boIvRHgzkz1g1WNxg9dT/8VuRtZm5pSAJp1m6O5Uhw/JGm+OTczvJNG5CqbddcrLBzkTFvYjTiI7PAiywsynlGte0PraNjUBdkYiTWf32r6y+pKbNSzMIXtgJC6ALt+k99TD+Pj/wRqv/8NHZvbzmE0Sm1yuk/NinnBtXWfHC/GGsC/ge3+0bmTKsLdsHl1Juk3mb6/HZoLLCubRzAGydclNydXwKGrh3TAtz7MspJ2vauKxvXcwwMy22yFQFJlJaI4QQQlQHSeYL/MOiiZ9xTG1N7zHuRG7YxaevL2XYwff0smZeF0orrXn88cdxdXXF1dW1mqLIYMvGc7nlLalJHA8oa9JtJvvWHq9EjbYhxXPQ8tXBrKK135FhLA+IB5vHWezzWMGItv2wF9l09ha9loeyYuqXHDe5RiamDB3dsdiodymcurFyfigd3j7KX3M2sNl9Cg3u95zKMCn/Wwet/FchhBBC1EjyCQ1AJucWzuSD40ngtYqf1z9NYGZPXtz2Cb2XenFzTtdHsptNvtatWxck8VVZF1+q+LO5veUturApcGrpHWDiTzDkiRX4hvizJtIzdyJsYxtamKiIjrnOVUqp245P4Jq6cMmQOS0a14HYVKJjc6BVseNkpnItPgssKxLzzdx9OzWhZZELQSPc3xvPuphveG77ZU4BtPdk/uCK7BTsR4/gy22RTD54ktfmubGUYu0q8789SEgmKiEHnEq+Vtdjcqe0mjS2LOebACGEEELoC6mZB7JPf8sUn4NkWvZh0YqXaUkTxi19H2/LbNQ+k5h1+tG5YVQ+KysrnnvuOT7++GNmzpyJh4dH9SfywLVtgRxQ38WoX1eGltXKsXEHJvWzBXUcn6+9mFt/7tScni3NIPYcv5ws2YrxXMAlwot0p7HBu6c9qGP53S+uxPY5IWc5kFbBGvDGDXE2MYCz59gbU7w/vBXPTu9O57xRfgPLuqgq3MLeikkLh+FtYUji9o18EFC89aM9A9wbgTqWjbtKq6xPYPP2aDIxZZBHFc1vEEIIIUS1qgXJ/AV+HOyAra1tqT8N281gV3ktBTP/4avXP+eYug62Pt8yq3neS9L8Fb7xGYSpOowVE304kVnZtoT666WXXuKTTz5hwIABNGrUSMFIEvht4wUyMWf46I7ljCSbMXyYC7aAetth9mbmAHa8McWNBsTzw5xN+Ba66VL6yR1MXn6m2D6M8HipJz1NcohYvI5PTxaaRBwfwZvz/IiuaGvKVp2Y5G4N6ovMfHsHASn5E3OzifPby9BXNnMKQ0xMICdgK4On7s27+VIFOHmwam5XGpDG5YSsEucweHJ3XLjLycW/MOtYSqF1GRz7/Fc+CEmGlh7M7Hffwh4hhBBC6IFaUWaTdeNG2R0+MlIo5RY5eTI5tzSvvObxT9k+87Eia51n/pdP1wfxzvFvGOwzhpiFj0a5jbIJfCEng1l97jbYPM4Ej/JfeVW/Hjzn6M/y2NN8tT2JIaNtsB89gtV+cYzb7seQJ87S16MZjVKv4hcQh6G7My1CoikyZbdDH9b6RNJr7jE+HPUhf7i3oIOFhtMBEZy3aY6HTQYBFQrcileWPM/+kT/wW8BWenY+gGsHa1TxNzgdmw6Y033uVHz7X2X0yN84sPt3Ok814/KPfSitB01xduNHs2h7NJMC4kusM+jizSafa3j6BLJk1Bz+9mhLFxsDbpyNxO9SGti05n/fjWKAaS24jhdCCCGEPo/Md+XLyxlFWiaW+pOyhuFlTlw0pf2c/WRotWgD36dbifUdmR2YiFabSeIjksjXHNkE/HEqtxRmsAdP3i/5NG3GpMFNgUz2bgziMlrAihHfzeLIkiGMcISwg6fYF6Oi97Q3CFjyBHYlOq4Y4Tx+Cmf+mMBUj0aknj3HnwHx1Ov3LPvXvYinhUnFw3dyY92ed/l1cnc8HA2IOHuFKHV9uj4zgB+3f8rx6e1o1GEA2zeNZ0T7tnwyu2uFEvlcVryy8FkGWJTWStKI9lNe48wfk5jq5URW5Dm27I7gLNaMmjaBgD1zeKeDvJOFEEKI2qJWjMyL2sgIj4Xvo11Y8e07z38P7fziy83pMnokf44eWeIZR6P6lrqnRj37sbxnvxLL+x1ezicVDQfAshnj5r/BuBIx3VOvQ1/+3FsojsZd2RG16v77buXB/nCPMlc36tmb5T17VyDGLuUer/P8OaW8pgDmvLLpf7xS6rNc+DXiB369/9GFEEII8ZD0eGReCCGEEEKIR5uMzAshhI4UvjdDVFRUldyNOTExEQCNRlNwc7dHwa1btwDIzMzUi/NOSsq9J0Zp9+sQQghdkmReCCF0RKu915VoxYoVVXqsmzdvsnTp0io9Rk2Sfzfqa9eu6dV5F35PCCFEVZAyGyGE0JEmTSo+jVlUjkqlKkjo9Ym8J4QQVU1G5oUQQkfq1q3L119/TXx8ybahuuLn58fRo0dp2LAhEyZMqLLjCN1o1qyZ0iEIIWo5SeaFEEKHrK2tsba2rrL9//PPPwAYGxvTunXrKjuOEEII/SBlNkJnDA1z+57fvZtzny2FqJzCbykjIxmDEEIIIfJJMi90xt7eHoAr19MVjkTUNleupwG5F4yNGzdWOBohhBCi5pBkXuiMo6MjALdS1WRmZCkcjahNomJzWzw6Ojrq3QRIIYQQoipJMi90pnnz5gW/b94XpVwgolZJScnE/+Q1AJycnBSORgghhKhZJJkXOlO3bl26d+8OwN+H/uXcxSSFIxJ6TwuLfj7NncxsDA0N8fT0VDoiIYQQokaRZF7o1PPPP0+DBg0A+OLHU/gFxigckdBXKSmZLPrpFJExuSU2zz33nNTLCyGEEMVIWwihU8bGxkyePJmlS5eiycpm5aZwgv+Jp5e7Hc3tzXGwM1c6RFGDZWZkcynmFpdiUtl6IJpM9V0AOnbsyBNPPKFwdEIIIUTNI8m80LkWLVrw4Ycfsnr1aq5cucLp80mcPi8lN+LBDBo0iKFDhyodhhBCCFEjSTIvqoS1tTXvvvsuu3fv5vDhw9y6dUvpkGokrVYLIB1aStG5c2e8vLxk0qsQQghRDknmRZXy8vLCy8uLtLQ0oqKiuHr1Knfv3lU6rBph586dqFQqWrVqJXfyzFOvXj2cnJxwcnLCxMRE6XCEEEKIGk+SeVEtzM3NcXV1xdXVVelQaoydO3cC0KZNG4YMGaJwNEIIIYTQR9LNRgghhBBCCD0lybwQQgghhBB6SpJ5IYQQQggh9JQk80IIIYQQQugpSeaFEEIIIYTQU9LNRgghhNCx4OBgfv75Z6XD0KmlS5cqHYIQohQyMi+EEELoWGBgoNIhiEqwsLBQOgQhHpiMzAshhBA6ln93Z61WS6tWrRSO5uHZ2trW2oTX1taWBg0aKB2GEA9MknkhhBBCx/KTeZVKxaxZsxSORghRm0mZjRBCCCGEEHpKknkhhBBCCCH0lCTzQgghhBBC6ClJ5oUQQgghhNBTkswLIYQQQgihpySZF0IIIYQQQk9JMi+EEEIIIYSekj7zQjG3b98u+MnvyfwoSkpK4uLFi0qHUe1MTEyoX78+VlZWSocihBBC6C1J5kW10Wg0nD59mtDQUCIiIsjMzFQ6pBohMDCQ48ePKx2GopycnOjQoQPu7u44ODgoHY54QDExMfJ3nScjI6Pg90fxYr00KpUKR0dHTE1NlQ5FiFpFknlR5bKzs/H392fXrl3cvn1b6XBqHJVKpXQIiouJiSEmJoZdu3bh6urKsGHDaNKkidJhifvQaDTs2bOHyMhI/v33XzQajdIh1Rharbbgb3vp0qUKR1OzNG7cmObNm/PEE0/QvHlzpcMRQu9JMi+qVGJiIitWrODatWsA1DExwqGNHY2bNqKhbQPqmpthZmGmcJRCCZpMDRlpGaTfyiD+SgLXouK5eS2F0NBQQkNDGTlyJP3791c6TFGGS5cu8eOPP3Lr1i2lQ6mR5CK9bPHx8cTHxxMcHMygQYMYMmQIhoaGSoclhN6SZF5UmYsXL/L9998XfN3s5GJPt6dcMa0vybsAY1NjjE2NsbSxxL61LW6eEB12hZDdYagzNGzatIkrV64wYcIEpUMVxezZs4dt27YVPO7UxorWTRvQwtGCumbysSJKl5OjJfbGbaJjUwkJTyQtPYvdu3dz9uxZZsyYQf369ZUOUQi9JP/riioRFxfHsmXLyM7ORqVS0ePZLrTo2FTpsEQN16JTU2xbNubgr0e4eSOVoKAgAEnoa5CoqKiCRN7S3JgZL3SkfetGCkcl9EX+e+VOehbfbjhDyLkEYmNjWbduHa+99prC0Qmhn6Q1pdC527dv8+2335KdnY2hkSEDJ/SRRF5UmFk9UwZN6o9jW3sAgoKC2L9/v8JRCcitkf/pp58AsLI0YfF/ekkiLx5I3Xp1eOeVzgzr1xyAsLAwTpw4oWxQQugpSeaFzq1fv76gjrbvmB7YNLVWOCKhbwyNDHPfO465bSu3bNlCYmKiwlGJEydOkJycDMD0FzpiVreOwhEJfTfmqdY0s8str9mzZ4/C0QihnySZFzoVExPDqVOnAOj0hAt2LaUjiXhwfcf0wNDIEK1Wy5YtW5QO55F34cIFANo0s6RdS7k/gNABQxXDBrQAcsszpeOZEJUnybzQqQMHDgBgbFqHdj1bKxyN0Hcm9Uxp3yv3fXT69GlSU1MVjujRFhERAYBrW/m2TeiOWzubgt8vXbqkYCRC6CdJ5oXO5OTkEBoaCkDLzs0wqiPzq8XDa92tZcHvISEhCkbyaEtMTCQtLQ2Ax1rLqLzQHVMzI5rbmwNygy0hHoQk80JnIiIiUKvVADi1k7t4Ct0wrWtC42a5I3enT59WOJpHV3p6esHv5lIrL3TMon7ue6rw+0wIUTGSzAuduXLlCgCm9UywdpIOF0J3mrrYAffeY0IIIYTIJcm80Jn8EZWGtg0UjkTUNpaNLQFQq9VkZ2crHI0QQghRc0gyL3QmvwuBgaG8rYRuGRiqCn6XSbBCCCHEPZJ1CZ3RaDS5v6jK306IyjIsdIGYPy9DCCGEEJLMCyGEEEIIobckmRdCCCGEEEJPSTIvhBBCCCGEnpJkXgghRI1xc+NqzBxeRuXwLq+dzHrAvaTx48j/oHL4gI8jK9b9KPzzRagcpuC+Jr5SR4rz28u4oXNo6DwFE5d36PbGdvzi75a5/bF5n6NyeBlV3zUcyMwpe8eR/vRynoSq72+cQlupmIQQjxZJ5oVeUfkuY4TLKIa6jGJon+84oS7/Q04b9BMT8reffoi0B/xQNEw4yAeuoxk6fBMRhfZhmBDJ3rlfsuz0vYTBQB3MQtcxDPVcRVgFjxe/8tPc8/IJLXe7OuGbeNtldKX2XdUM1Kfyzvc7gmtITEJfJfPb2nNkmhhhSjw/rA1Fo3RI5Uje9jN9Xvyd385m0abfY/Sy0XBi+xYGjFyHX0o5iTrAJX/GLThfo89PCKEfJJkX+ivxBLtDM8rZQMOZLaEkV1kAGoLnf8nXWy+RWWXHEOIREhnG6pCb4NWXSS1NYbc/G1PKHuVW1hU+//w40djz6h+fcPzHtzhw2IfVHo3hkj8f7E65z/Ozub72Z2acvFMt0dZWFy5cYO3atXz//fdKhyKEYiSZF/rJvC71SSXQ9yKaMkaDDdQXOHTkOnWMq+7W86UdO8ekDWNWfsRni7xoUWVHFqL2Cdl4nFOYMHDwYF4Z3BxSz7Fk23WlwypdSgLhCVlg48TQLmZ5C63o388WUyAmvvz7ITRxbISpOp4f5mwioLxyG1FCUlISf/75Jx9++CFfffUVgYGBZGSUN7AjRO0mybzQT9270c3aEPyPEVZG2/GcoCCCE03o2KctVZfOl8aSFt070MnNCXNpui9ExWRe4sdt0WDRhtH9rHAf1onO3CVkbXC5NePpZ4P44JUFuLhNw8TlHTqNW8vvZ9PKPk58JKvmfEPnx9/G1HkqTkOX85lfLBmVLRGztMfd0QQSLvDHsfzEPY1TIYlkYkF/d5tynmxE08ljeKe9BZzz56XFlSy3yYzn72VrGPDk/xXU6ruO/IHPd8WU2M+peZ+jcviAT87ewHfOl7RweRWLxz/k2Y1XwW8jDR2m0GVNHEknjzBt3MfYubyKics7dHxlGztj7gLZXN21nRF58wIs3T5k4LyjRGRWb0ndnTt3OHDgAAsWLOCjjz7iwIEDJCdX3feuQugTI6UDEOKBGHekX++L+G0NY3doBl271y22gYZ/fMNINndhvKc5F/ZDkal0+1YwYsZ+ssZ8wF8+rkWeaaA+xefdF3LUuh8f7X+dbqUk5IZxfsz1/o5QTe4H2qHnn+cQTXly8xfMdA7h8+5fctT6ST7bP4lO1ZTQq9SJnFu/nY1bQwiPSkZt0gB71/b0Hz+SZ/o0wbhYHAapVwnasJ0dvmeIikomWQN1rW2wc+3EoGmj8HaxKHYEDdf27WbdmgOERdxAbWKDo+dgJk9pWC3nJ2o3bcBJ/oxVwzPdGGNpCJZdmeS+j+kh/iw9Nohfehb/G4fkXevpPXUP4WpDnNw78JxNDhEhR3hh5Bk6W9wEbIs+ISaY50auZHNsFvVbtmGwVz1Sz57nkxe/4NeWhpWM2I63Z3dj1dRDrHl7LV6bRmO76lcm7Y7HadTrfFFKvIXdNbFn/kIvdozaxKlV63jX6z2WdCn/OQDEn2HyyBWsvpROHRtHBvTrTF11AgEBgbw/6RRrXprMoYVdaFLkSVmELFrB57sv55YEpqZgbGN5b+3uTfTxCSXSwoFeHZy5HhnNmd1b8Y5J4Y/R6czwCSG7vTNu7qZEhFxh/6pVeKSY8u/SLhT/X0LXAgIC+OeffwgNLTqfSKu9dzGhUsmgiXi0STIv9FQdOni7YrV1Z26pTfdORZLV/BIbug+nu3k4q3R8dK15U/qO96be/t0ci66D81P96OBgQ1drZT5UVOpLbJmyiNXBCRhaN6WTZzfMNYmc9z/ML0dOsX/WO3w1pV3Ba2SQGsHqsQvYHH0HU/uWuPRx5jEyiA8PJ2L/Lr7zv8iNLZ/xsnN+gpPO+QULmbsmgixjS1p174o9SZzf8hPvBjWlsUbKBMTDyGDLxjCuY86o0Z3zEkQbXhjVmndCjvPb2jC+6dmjaOKYcpY35xwgXN2QZ76dzbZh9rnLM6+yetJyJh8sXmufxm9zNrM5Vkvbl6YXSngzCFm2Gs8FJ6nsR6LVsDGs84vB84+TjHviJNAY77lv8uP0jsWS6Ul6Th4AACAASURBVNIZdBnEqsnn6LX8LEvnbGP0X2PwMC3vC/M0fnt7HasvpWP9zHj8l/SjnWnu3/TdyGDGj1vFb2tX8ZJ7U/aMLvzNQDxbd1vxlM8sVoxuiuZsItnudSEAIJt/Dp6h7UvTiMl/TVIimDxoCavP+TFqQWOe+XY+fwyzxxjIOelLn1F/cmz3YbanuPGiZWUvgu7vwoULHD9+nNDQ0BLlM8WT+PzHsbGxLF269IGO17hxY1544YUHD1gIhUkyL/SWQfdudLPew27/Y4SpO9HV5N66HP8jBCea0NLbDXOTCJ0fO8eiJYNmO2ERHcCxaAOcxo/nVbe8P6cyyn4qZMtixu8vrygog5slygE0RCxYwergBAx6v8x/lz1FW5O8D/i4k3w75Sv2LP6a/7ku4v28bzCurPyNv6LvYPjUdL5a3Bf7gguhFEJmzWfezkts3nCel+e2B0B7ejtfr4kgy7oTr/zyDsOdzfL2f5yl45dw8CFOWQjiz7J693Vw7MnrHmYFixsO88B7wUk2H/RnQ3w3pjS+lzhm7A7kz4QseGYUa/MTeQBTeyYtGc7mHivwLfy3GBPK8oB4cOzFtz6dCyXbZrhPH8MHu6N4J6Sc8pwS0ji6chPTd0fnPlQD7d34YHKHCiXyuYxwnzWad/wW8em5A7y4uBvh77XCuKzNI0/yZcANcOzBz0ueKEjkAQxbdePXhdEEvLiLvSuPEjF6GO0KfxvXbwg/Tcm7yOhpWXS/Nl35f/buPKzKOv//+POAnMOOIqgsbqAomoIbiompkAtGqVlaTuqktrlMqd8paqZsfk06TVpTtjhmM9oyWpaWiblroiJoekgFBSERcOGAArIdlvP7A0GWgyyi9zn4flyXV4f7vs99v+8Ty+t8zmdZXvU1cerJ02M7s+azBBjxEF/cCPIAFgMG8WTv3Rw6lUlShgFqnOp2xcXFER0dXWt7RWivqxW+oKCAhISEJl0zISGBBx98EFfXW3WNEsJ0SZ95YbasND14YFgHSI+tMauNnl8jTpPl0IcJwxzq/sNoivT5XNVl3+Jf7Z61FjlH+T4iBRwGMPvtsZVBHsDSYwDzw0fgjI6odTE3pubMI9fRgwHDApkzb1iVIA/gxJCpfXAGSMu4McBXz8kNR0jBCte5syqDfPn5B984vxBNd/Hno+wpKqXD2EBGVW2ZdvJh1gh3yDnLihoDYQ8fukAhrRg6skftrh7tevBo/+rdvwp+PcevRWUQ2JdhtVq/XZk0pmPDCy68wtdPv0vIkl/43bM/n6yZzSxvOzi9g4dfOsRlADLYtS6SHw6lccuhsNadeHNZMP00pSR99l/+fKrugZwFv54jrsgAgQN40EgLvirQj1GuVnAugQNXqn5a1oqOgd51v8no3Z2BNc7n5moDtKJX/041Xl9r2jhaQhFk1TM1cFP4+vrypz/9icGDB2NtbV25XaVSVQZ5g8FQrYUewMbGhu7duzfqX8eON/+f6/UySagwX9IyL8yYmj6hfSu72hBQ3vfdougU+yKvwLCpDHA0s76URvrwV2UVt5F5k74hscq2Mm08sbllMGwgga6179cioA++6u0c1GrRMpxh2OE751lem1P9OFVRHleSzpOwO718EF1RMUWAhkvEajNA3YmQoNpxwDpoMH4O+9jbpBsWIoOvvz1LIVByaDMjJ/9QbW/RlSyghPgv9nN8zhP0QwUUcCkjH7Chm6edkXM60MXTBrgZaC/dmF3GtV1ro2/wO3R0xtrIdmNOf/YVs7anoA+cQOSXYQRaW1DarYzksLXs+fErRvXuQPTIsywI30ic62B2R82p/ialBosBoax56jRDPzvDv17ZzsxvH8HfyHHl99CKjt1cjTdSWDvj62oLGdlczDFAu5u7Ora7Re92R1vqGvli7VgzJtz52ODj44OPjw9Q3mc+NjaW2NjYyv0V3WsMBkNlwPf09OTFF19s1HXS0tJ4++23AWq9ORDCnEiYF2bNIiDgRlebGGLoyyBUFB44Qkyuht6h/iYxm4wKHRFTX+ZjbY32OXUnJm16p0q/9Ka5rssu79kTuYo/+t5iruWcbDJzDOBY0QUnjt3r9xGjvUBqWjqX0/Mwvt5mDpd1pYATzkbGBBg0TrRxsbi97kXi3nXqKGt+vQaA7vTZurtsnTvG+4cmGB0Ia4wNllQN8/VpaJCHFD7/4iyFtOPF8NDKPu6W3YLY8vEVBs7ayumlnzDsBwNxGLAfG2jkk4CaWtEv/DHm7v0Xy3/dyrTP7iN2bIMLqk1Te5Ot5ha/CzWtTPYTzMDAQAIDA8nPzycqKoqoqCjS0tJk0KsQVUiYF2atTOPDA8M6sH3zMfafmMkg/yJORpzkuktfxgTZ1H8Coxq2/LupUBXdiOBd+xLU077O4wyaTnjeeJx7YC2vz9tKot6ApUsnevbsS/eQLvQY5EN/jvLX+VtvdBVoiFa1ZsoRomFKOP7NceIw0DF8CSnzOhs96vgby+j/2RnWVQ6EtaFrR3vgKompeVArihaQnFF9e4cbLdMZF3Toqd0v/dKVBvaXL7xG8pVi0LjQq1v1kG478hG2hl+m/5IYTpwGNN3569xeDQvK1t68syyYiD/8wOkVX/FOx4Bah5TfQwkXEjPQ07n2eQuziMvIB9xxM/IpnTmztbVl1KhRjBo1iszMTPbu3YtWq5XpKYVAwrwweze72uzfdpY/exWxL1IHwTO430jrVC1GWpNVOXlcb+yc07dgwIVx69cwrtnOWJ2diyMaoNhrOM+vGF7vpxGqojN8veRnEvVt8X/7Ff46sVP1MH7gIHnVnuFIexdLSMvmYpoBvGqeL4erulJwaKYbEveOwnN89MN50HRh9liPOg/r97gf/T47y/HtNwfC+gd2pvUXyRz64TiXHx9VvT94dhIRx65RtZ+JTX8fhmp+Yc9hLTsLAxhfrbU8i23bzzdsJWfr1nRtZwWpSXyzL5c5j7SusrMVXZ8K5tHPtKxJ1YOjDc6NeKNrMXQ8ax4/zdAvzvLGG7m0Lar+yYJNf298NQc5fvgYOwv717gHyD98gq0ZeujVnYFOLXdIXNu2bZk8eTKTJ0/m7NmzsmiUuOe13J92cc8o72pTvoDUscjDxOTa0T+09y1bi9Uadfkn0bqMG4NCbyrQxnNObz79Jy39euKtVkH0YQ7l1K7bKm4Hb04M5/8W7iIZA62SzhGfXgruA3isZpAHkiN/53qVrw10YGCAO+hT+PnAhVrnL9Ue50RuzWkAhahfwb6jfJehh94DebzbLbqb9R7ItP6toegsK35IBcBmzDBmedvAvs3MWJdyc7Gkwiy+f2UjX+XW6DTW0Z9FYzwh4ygvvHKI85WLHpVwet1GXjusa2DVnXj6KR+sKWTXG//hoyoDVvMSf2PxHz5nTaoejaYVZMTyzLTP+OpCQ38+WhEY/jhzva0pzsik1tq33QawOLA9pB5l3kuHqi3cVJoYw5xX9nAJa4KeCrgxtqDl8/HxYfr06Tz77LNKlyKEYiTMC7NX0dWG5GP8e2UM1138GB1w6y42pV5dbwTgXaw9cfPj9dKkKFatOFQtzNZNjVptBeSRmp5X79F3SqnrICYFd4DcY3y86GfO5txszbPIiee/b37L0fhEzri64wGUudhipwZ0KZxKqt7yl3vgaz5Yf678iyL9jQ8u1Nw3ZSS+6hLyP/qcL07c7PtvmRHLqqW7GtElR4gKuWz65hTXaEXPh/2rT6NYiytPPuaDNSXEf3GQQxjKu6W89xCBjnlsD/9/eDz4Lk88/wFDH3iVR7cXM6RXzd8BNoQue4K5vaxJ+XYN3R74f0x4/hNCH3yZ/uEn6NLfrcGV95o9jZUj3CEjlnmjF9L5wb/Rb/hLuDywguWHs2g/5gmORP2ZRb0cMJyL4g+T17K1sIH99528eWfZg/gafT0cePK9acztZc3vP66h75DXGfv0x0ya9iaeoz/h69QyOj02k2+nuxt5rhCipZJuNqIFuNnVJjUZmPIAg+rpYlPqEcCk4C1ot51j+xPz+M2vK23JJFl7meuDghmhOcy+W84nV87T1wW2XeZc+AKeXu5K/+XLWODbLDfVCHYMXPICE9OXsynyPywK+ZleAV1wIZfk6FNcyDWg8nuIvy/0RY3qRvj3RLstjq+n/pnTwT500JSQHR/HUe1lLLu60z45ncu5+eQCLkCxbwiLwuP485tRfDNjIdF+3enkWEhy9ClSXbzp6ZJE88/mL1q0K6dYs+8yaLx5YWz9M7O7jR3IqCVHiTh3jPf3PsLQkXZYDAjlwJYuvLdyG2v2JbHpXCs69e/PRx8/Ss8v/kXw6RoB2qknKze+wsiPtrH851P8vP0SDt5ezHlvEuGaX/B+IaNhtVu3Y9ZXr9Bz3Vb+/sVxDp+7wCWNLZ0DB/LIU+P46yNeOAJ+Xy3A+oWviX58bK0uMbdiO3QcK586TfAX52rvbHcfKzf+lXFf/MTyb05yZN9x8hyd6BkYxJ+fepC5Yz1NdjCrEOLOkDAvWoTKWW10bRgS2r0BAzLtGLD0Vd7y/R/fbPqNuLgEslw64T97Gk/P68aJGTENWgipw5SneFq7ms0HzpGhu0Z6eh7c9TAPZY49mbV2Kf3Xf8cPm38j7sBRErDC0asvQaFjeWr6ANwqZ7Mov/c3PL5mw+6TnNq8i5MOTjh5dCHolT/yxNTW7J74OuuTYvk1bSJdPSwBNe2nLuJDr5/5avVejmljOYQTHYdN4W+L+nJqzhLiZTYb0RjthrA7aUgjjh/I1qTaazlbduvF4vd7sbjmjgF/w2BsQVAnDx59dTaPvlpzhxcFj8xseD04cP/0qURMn3qLmrvx1sbXq20a+uarGN6s79w2jFr2FwzL6tjt1I7x855m/Lz6q+x3q+uNfJyraY8b3dV13ksYjJ7fhie/egdZL1UI0yFhXpgVQ+g8vg+t/RemTHMf8w6sx9jfHn3Qs/wvrnZ/SoPGBb858/GbU/s5bjUGrJa6juAt7Yja13X0ZuLKZUysuo1BvKLdUO+9VNVuzl/43kgdNRX7Tua9uMlG9xk0LvjPeBb/GfWfx6BxYeCiBQxcZHz/tIivmGZku2PAWJ4PqD1nnn8dxwshhBDizpI+80IIIYQQQpgpCfNCCCGEEEKYKQnzQgghhBBCmCkJ80IIIYQQQpgpCfNCCCGEEEKYKQnzQggh6mVra1v5uEAvK/6K5lVQWAKARlPPIiFCiFokzAshhKiXq6srVlZWAJxPa8CKakI0VJmB39PL193u1KmTwsUIYX4kzAshhGgQT09PAJLTchWuRLQkF6/kUVxSvlpvxfeYEKLhJMwLIYRokI4dOwJw6MQlcnIKFa5GtBQ/7ksGQKVS4eHhoXA1QpgfCfPinnB903tM8n2MMN8FvHui5JbHWmYksjP8XVbWOK6u7XdDQdwBPpm+hkgMldvU0f9hhu9jhC08dNfrEfemUaNGYWVlRV5BCf/6MhYMhvqfJMQtHI29zP6jFwEYPXo0lpaWClckhPmRMC9aPBU6Dmw4SbHaCisusn/DcfTUFUL0xLz5Lh9sPkdhg7bfeSrOsO6Zj4mIv4r+Ll9biKpcXV2ZMWMGAHFJ13h71VFyc4oUrkqYq52RKXz4dSwA3bp146GHHlK4IiHMUyulCxDiTrNMimaHNhfGjWVM/C5+2r2bvTkDGOOoMnp8edCvva+u7Uop6TmGxWsDKHWRAWPi7unXrx9hYWFs2bKFk4lXefEfkYSN6ELb1ta0cbSmVSvT+RkRpsVgMJBzvZhruUUcO3WFk4lXAfDw8OCZZ57BwkLaF4VoCgnzosVL2BRJItZ0C3mY0R6J/PRZLBsiLjFmqrvSpd2WMkd3+gSY9z0I8zR27Fh8fHz4z3/+Q1ZWFt9sP6d0ScIMqVQqQkJCCAsLk+41QtwGCfOiRVMVnWFHRDI4+DFimDM+XfvT7bNEEjccIn7qo/Ss0tJumbaX8NBP0OrLu+Dsf+IJ9tOJhz4dy4UFq2ttf/D7d1jga3njOjpOr/+Rbzb/SlxSFkWa1rj79WLk9Mk8HNQedZXrJC8NZ8G6PEZ//xaT07bx1WeR/BaXSY6mNZ2GDSFs3mOEeNmUnzdiJRMX7acYgCO85/s477mM4vUDz3F/9H95YkYEWeNeYsuKodXuO+fEbr79bC/HtMlcymmFrYc73kHDeXz2GHq73mz9ssiJZknQcmKCXmD9Gx4c+mgjW3fHk5JjwNqrG34THmHWjD64mNAnEsI0eHl58Ze//IWdO3eSmJjI77//TnFxsdJlmQyDwYBKJT83xrRr144uXbowfPhwunbtqnQ5Qpg9CfOiRTNEH+RQegmMC2SUo4oSx/sZ7beNRO1uvosO5bWAmwvhGBw6MXx6KHa7t3Mo2QqvcSPo7eHK4I5d6Gpk+0CX8j/UqqJzbJqznDUxGVi6dKJv8CAc9DrOHPiFtZHH2b1wMf+a07NaoIdiMla/x8JtJyl170xHvy7YJZ8nadsW/hV5nsJNr/KQhyWWXQcyYXopx9cfJJEODJjajw4uvtQ934OeC2tX8Jdlx8jCBje/vgwZpCI7Pp5f133Or7uOMmvlYib42lR/mu4on85Yw740Ne6+nfF1ySQuPpbIZXEcSn+Zb8P71qhfiPIFfqr2c75w4QKFhTLLDcDhw4c5cuQIAC+++KLC1ZgGlUqFp6cn1tbWSpciRIsiYV60YHlEbTpGFo70nzgIB1QYcGP4hB6s1sYQtf4EuQGBONwIqWWO3oxe1BHH5MMcSrag4/TpPON/40dkUWfj29ETv/RT1sRkYDHsj/xj5Th6aMrPV5p2jI/n/IsdKz7gn37Lq71xAB3Ht4HvG0v561RvHFChKkpn67y/8UlkLKvWJ/HQou6U+A5hhm8bCiKiSCzqxPDwmYy6Rag2nPiOZcuOkeXgzbiV/8cLAW1v7Mkmfvn7vPlZLGsWfYX3pln00VQ5jzaK/X5jeW31NIZ4lP+hzT2wlpfnbeXCpm3sndunzjEGQlSomLpSwNmzZysfd+/eXcFKhBAtnYw2ES2WZcYJduzWgftAwgJutkQ7hI5gkIMFRO5mX8btTa1nkXOU7yNSwGEAs98eWxnkASw9BjA/fATO6IhaF0NuzRl0gqdWBnkAg8ad0Cn+2AMkp9c+vl56jq87SApW2MxdUCXIAzjhu2gu0/0cIfkXvjpQcwVPN0LemFkZ5AEcg0Yz2tcectM5kyZTEAohhBCmSMK8aLF0uw9yQl+GKuQBBlYJ2WWOvRkzrD3kxvFFxKXbukaZNp7Y3DLwG0iga+2Wa4uAPviqLUCrRVttjxU2g7pXBvnKrR4uOAMUFdPYCf9UpKLVZoG6ExNC2tfab8CFwHE+WFHAqZi06jsdujHAy6LG8Y50cLECitEXSZgXQgghTJF0sxEtkoqL7N8cTzHgEL2B8OnVQ3OJLhcopmDDTuJnTK82ELYxruuyy0N35Cr+6Luq7gNzssnMMUCVrioujrZGD1WjgqLGzyivKsrmqq4UcMHNxfj79NYeTuUPMq6hx0BlO7yDLQ6amkdbVT4qlAnuhRBCCJMkYV60SK3iDrJTmwtAbvxpTtZ1YHIU30U/VqM/e8Opim7M3tG1L0E97es8zqDphGeTriCEEEIIUTcJ86IF0nN2czQpAAv/yZY5XYweVT5FZGKtgbCNYefiiAYo9hrO8yuGN+kczcWgcaKNiyXodFzUlYFH7Xmbr6Vllj9wbS2z0wghhBAtgPSZFy2ORdFZtkakgNqbScF1z67hM2EA3VDB7qYPhLX064m3WgXRhzmUU/scVnE7eHNiOP+3cBfJjR7QWkM9negNeOLn5wz6FPbuulxrv4qLHN6WRDE29B5U9+SWQgghhDAfEuZFi1N4IJKDulLwDWSEV93f4iW+9/OAnz3o4/gyIuXGVjVqtRWQR2p6XpWjjW8vdR3EpOAOkHuMjxf9zNmcssp9Fjnx/PfNbzkan8gZV/dbzA1fHyvUahWQw9W0slscp6bf9PvpRDGXPvqUj6OrzliTR9zyf7NOmwNdhzM5yLHJ1QghhBDCdEg3G9HCZHN4cyzXscJm3CC63mpOdtx4YEJP1mljyN+wn9gZnemLCk9fF9h2mXPhC3h6uSv9ly9jnn+rOrbbMXDJC0xMX86myP+wKORnegV0wYVckqNPcSHXgMrvIf6+0LfJ3VoMtKWThy2kx/Hfic+yxWUAczY9x0gjx6r8H+WVV9L4y7IjbJsxj+ODetPdpXzRqNjkXHDx5Q/Lp1Wb3UcIIYQQ5kta5kWLYplxnJ0HdKDuxhQj0zPW5BJ8P/5qi/KBsAcKAOgw5SmeDvbGmXwydNdIv9ESX9f2MseezFq7lP/3SggDPco4f+Aohw8kke/Rl6CFL7Nq7fTqCzQ1mhMjw5/kAb8OWOVmczVXxyVdXS30ajrOWMyHa58jNLgTZcmxRO0+xXnaEzj7OZZ9v4QpNVd/FUIIIYTZkpZ50aKUuo7gLe2IRhx/P69r76+2rczRm4krlzGxxrF1bQcwaFzwn/Es/jPqv2bX8KVsCTe+r9h3Mu/FTa613cJ3FIvXj6q2Te/xR9bG/dHoeRwDgnk+ILjeWsocA3hdu6GOvWqGrFzFlnrPIoQQQgilSMu8EEIIIYQQZkrCvBBCCCGEEGZKwrwQQgghhBBmSsK8EEIIIYQQZkrCvGg2Go0GgFJ9qcKViJampPjm95S1tbWClQghhBCmRcK8aDb29vYAFOUXKlyJaGkKcm9+Tzk6yoJXQgghRAWZmlI0m4qQla27TmlJKZatLBWuSLQUVy9nA2BnZ4elpXxfmbq8vDwuXLhAdnY2OTk5FBUVKV3SXZeQkFD5+KefflKwEmVYWlpib2+Po6Mjrq6uuLu7K12SEC2WhHnRbDp16gRAWWkZV87rcPOuf9EmIRriYtJl4Ob3mDA9RUVF7N+/nxMnTnD+/Hmly1GcwWBApSpfLG7btm0KV6M8R0dH+vbty4gRI3Bzc1O6HCFaFAnzotl069YNa2trCgsLuZR0RcK8aBb6Qj1XL5a3zPv5+SlcjTBm7969/Pzzz1y/fr3adms7DTaO1liprRSqTCimzEBebgF51/IByMnJITIyksjISAYMGMDEiRNp06aNwkUK0TJImBfNxsLCguHDh7Njxw6StOfpHdQDtbVa6bKEmYs7VN5dwdramoEDBypcjajp3//+N1qttvLr3sN86NC1HS6ezlhayZ8YAdkZOVxJ0XEmKpGczOscO3aMM2fOsGDBAjw8PJQuTwizJwNgRbMKCQlBrVZTlK/nxK6TSpcjzFyOLofTB88CEBwcjI2NjcIViQp6vZ7333+/Msh38GrHhD+NwW/UfbTv2k6CvKjk5OpI9wFePDR3NP7BvQG4fv067733HklJSQpXJ4T5kzAvmpWdnR0jR44EIPHX30k4Jr+oRdPk5+Sz/3+HMRgMWFtbExISonRJ4gaDwcCaNWsqB3n2HubDyGn3Y+tkp3BlwtT1ur8HY2aNQGOrpqCggI8++gidTqd0WUKYNQnzotmNHTuWjh07AhCz9QRxB88oXJEwN3nX8tjzZSS5V/MAmDFjBmq1dNkyFVu2bOHkyfJP3gaH9cdv1H2Vgz2FqE9bD2dCnwnG1rF8jNXKlSspLJQpjYVoKgnzotmp1Wrmzp2Ls7MzAMd3n+Lw5qMU64sVrkyYg0tJV4hYtYccXflgyieeeIK+ffsqXJWokJKSwvbt2wG4L6gH3v26KFuQMEs2jjaMmjYMSytLMjIy2LRpk9IlCWG2JMyLO8LBwYHFixdXttAnx6bww/s/E3fwDPr8e2/OaVG/S0mX2bXuAHu+jKS4qPyN3+jRoxk2bJjClYmqvvnmGwBat3Og78jeClcjzJmjqyP+I3sBcPDgQeluI0QTyQglccc4OTnxyiuv8NVXX3Ho0CH0hcUc332K47tP0cGrHR26umLraIu1vQYL+Yj+nqMvKqYwt4Bs3XV+P3mBonx95b42bdowa9YsunbtqmCFoqa0tDSSk5MB8Au+T+FqREvQbZAXcVEJ5OcUsn//fh599FGlSxLC7EiYF3fctGnTGDFiBD/88AOnTp0CyrtSXEq6onBlwtQ4ODgwZswYgoKCaNVKfj2ZmhMnTgBgY6/Bo7ss/CNun6WlJd7+Xfjtl3iOHj0qYV6IJpC/luKu8PDw4IUXXuDixYscPnyYI0eO1Fpg5l5UdZXIe5VKpaJHjx4EBgbi5+eHlZUsMGSqKsJ8x54yN7hoPh493Pjtl3hycnI4f/48nTt3VrokIcyKhHlxV7m5uTFp0iQmTZrE9evXyc3Nva1QX1hYiLW1dTNWePecO3eOqKgopk2bpnQpDdacr7dGo8HBwUFWgTQTpaWlpKenA+DsLv/PRPNp06F15WMJ80I0noR5oRh7e3vs7e1v6xwbN25k8uTJzVTR3bVnzx4yMjJwdnambdu2SpdTr9TUVM6ePcv48eOVLkUoIDs7u/KxjYN5voEWpkmlUmHjYE1BbiG5ublKlyOE2ZHZbITZSk1NZe/evWRmZipdSqPl5+cTGxsLwN69exWupmHOnj3L3r17yc/PV7oUoYCqn6DZOspKvKJ5VXxPSZgXovEkzAuztWfPHoDK5eTNSdWazaX+1NRUCgoKzObNh2hepaWllY8tLO7tcR6i+Vm2sgSgpKRE4UqEMD8S5oXZqgjBR44cUbiSxqsaiLOysjh79qyC1TRMamoqABEREWb5aYgQQgjREkmYF2ZJq9VWLv+dmppaGTTNQWZmJmlpadW2RUVFKVRNw1WteevWrQpWIoQQQogKEuaFWaoZfs0hDFeoWqvBYACo7D9vqmp+cnDkyBFpnRdCCCFMgIR5YXaqDh6tCMPm0u8cbob5qnPMFxQUcPjwYSXLuqWEhASgvOaK1/y7775TsiQhhBBCIGFemCFjwT0rK8ssAn1qaipZWVkAlUHeHFrn7stD+wAAIABJREFUK7oxVV3gSqvVmkVff2E+VKTwVeg0wnwfI8z3SZ5en17P8Tp2T5994/gFfBBXesvjb+XMkpcI832SV3ZVna1Jz8VdG3gtfD+5GCq3pi5/lTDfJ3lhU0aDzq3iBCsCphLm9zrfpd2qRj1R8569ce5rTbuROyB1+euE+T7JH9c37H6FEHeXhHlhdqoOHq0ZLk1dxQw8FQEebt5DbGysyU77WBHma65YGxERoVRJosUrJiPiBOlVQnRNlmnH2avNuWMVWMX9yDvzvyNWV3zHriGEELdLwrwwK1UHj1YE4qot26YahisYe8NRNdibYt///Pz8Oj9NSEhIkNZ5cQfYYOegAm0Uh9PK6jxKtyua0/pWWKnvYmmA29SneXvta7w0zPQXexNCtHwS5oVZuVXYLSgoMOnW+aoz8FRt3VapVJXh2BSn2azoLw83Q3zV+r/44ou7XpNo4dSu9A/2wUqfyNYDl40eokLH4W1JFLv7MtDr7i5iZenRjT4BvenuKn9ChRDKk99EwqwYGzxaNQybcr/zW70RqbiX1NRUk5slpuq0n1VDfIWsrCyTHrwrzFOn4AC6qUvIiDiBzkhXG8u04+yNy8Uq5AF6aVpV26cihR8mPkWY3+tszKjdst+QPuBnlrzE2EkbSMQAkat40vdxwubtR4+h0X3mm0tBXBRfLPwbLwTNZJLfk/whNJw3lu7mbI7xTy9yonezZt6bPB88k0m+jxHmN4OZE9/iH2uPcbHIyGuaEc/OJct4MXgOk/xmMGPqcr46kIJ0MhLCtEmYF2aj6uDRusTGxppcGIbqM/DUx9RWWK3ZMl+zexNI33nR/Aq9+jPS1wG0UezLqB0803YdIVHfgeBxXe/I9V2HjeKRCT1xBnDvy5jpoYSFeqJGmdVvs3Z9xqKpK/hmWyJ5Hj0ZEuxPZ00mv637lEVT32NnjYG1l9cvZ/6MT9l84AKtPHwZMm4ogX7OGJK0RC5bxjNLDlcb1GuZdpC3pi7hgw3HSNW40S+4N545p/jumTd5Z/fFu327QohGaFX/IUKYhorBo1C7hbjmQNhRo0bdtboa6k9/+lO1rz/55BOKiooYMWIE/v7+ldttbW3vdmm3dOHChcrHNbsHVcjKymLPnj0m+boL82TAjcBxXqzWnmLr7kwmT3Wt3KfiYnkXm54PEOJvSdwduL5zSBjPexRxavMZsrwCmREejMPtBnl9It9MfZYfbnFIcU42YFVtm2XaXla8upMLdGTov8MJD3K5sSePpNUf8NqKKD4I307vdeNwR4VFTjSfr4gmS+3NmLVvMM//ZjeksritvDJ1LXERu9m3cAhhriogm71LvuRQugUuUxbxzyUDcUFV5fy/1qpJCGE6JMwLs9HQ/vBHjhwxuVBpa2uLj49PtW2WlpaoVCratWtXa5+pyMzMrOznX9OgQYNwdXWle/fu2Nra4unpeZerEy2dS0gA3VZoiYuIQTd13I2ACZZJx9kfdx3VvKH0RHVHwvydUUy+LpvGDtNPXLcDbW4ZqumzWBRUddCtHd5z5jB998t8HPMzG+PGsMDXEgtdGU7D/OjlMZ5n/K2rncvSdzBj/DYRF5NBss4ArtAqLZqfojPBfSRzwwdWvs7l55/JlN0JrNEa/z0ghFCehHlhNpYvX17t6/fff5+EhAQCAwP5wx/+oFBVLV9oaGhlYAdYunQpAA8++CAeHh5KliZauFKPfoz0dSBOG8W+jLFMdi0Pmem7ozmv78jEYC/girJFNobal5kRb/Coh2UdB+iJmjefv+/OrdyiQke89grgwgPBPrW6+Rhwoc+g9qD9ncjoyyzwdafEawgvrBhS6+wlGWkka2M5ocsDbNHf6Defrz1Dot4AAQPpq6HG+d0YGtyJNVqZtUoIUyVhXghRp7Zt2zJ+/PjKr6sOhhXiTjPgUtnVZk9kJpMnupZ3sYk4R3HPRxjhZRrDvtQHPufRZ7ZxveaOcS+xZcXQ2zx7JikZ+UAO+2Y8wb5bHFmQfg1wv/FVHucjdrN110nSkq9wIe0KV3OND2W9mnFjgSqX1kbHBLT2cMEKCfNCmCoJ80IIIUzWza42WnQTg+mQdJx98aU4LRxI1yb3YS9p1hrvDke8g3vjrq7rnq2w9rMDQFWUzq55b/N+5GVQ2+Lu24Vuwb549uxOHz9PMla8wycxDb+ypv5DhBAKkjAvhBDCZFV2tYk+zOGMUfjvjiZR3YknQjve4lk3B2uq9LVnwsnLLWjWGvVBT/O/uKeb9Zw3OdLB0RrS7fCa+ycW+NbVReemrE1f8lHkZfAby5sf/pH+VebDV3GRiBqvSRvX1uUP0jLQ061W6/zVjOzbvw0hxB1jGp9RCiGEEEaUd7XxwUofx47I4/wSkQi+gYzwuNWfLyvUGjXor5FcY1pLFReJ115rdB1FjX5G8zDgRk8/F+AihyOSjByRx7ElbzB/6lt8ciAb0JMcnUwxVnSc8mi1IA9gkZFETNJ1qDJ7vI1fb3qpVRBzlJgaN6pCx7HdyTLXvBAmTMK8EEIIk+YS0p9e6hLOr17H3vgyOowbhPstutgYcMSrpyNwkch1B0mvnE89m9Or/8v6+Fq9242fR2OLlRrQpaG77btout7TR+KrVnF93acsPXCpyh49WRHr+GTDaX5PMuDZ0wFQY+doDRRzITqh2lzyFjnn2f7mRmJyyxeZKtSXby/1CGBScAfQRfHRkl+qLCil5/z6tayLkZZ5IUyZdLMRQghh0ko9+jHUzxFtTDqX1b7MDGlfzzPU3DflQXw3/Ze4bSt5XruFXh72FCQncC6nLaOm9Cd6w2/1XrfMw40OGgvi4n/ilaAjOPlNYvnK4Oa5qUYo8Qpl4ZJE/rIkkkPPLGSGXy96u6spSE5EG3+VYrULfZfMJuxGK/x9Ux7EN+K/xG1+j3nJA/Dv6YBFzkXORJ7iQlFbPLvak5qcx/UcPeUxwI6BS+YwPvldtm5eyXPR2xjo156y5Di08YV09fMgS2tGswYJcY+RlnkhhBAmzYALQ4O7l/eE9xtC4C272JQr9g3lb2vnM3GYF665F4mPT6W4ZxCz177FS8H1vRkoV6bpx8wlY/Fzt8dCd40s3TXFWug7TFzAyrXzmTCuJ3ZpiURtO8FxnQ2dgsfywtp/8PdQt8pji31D+du/nyV0WEcMScfYs2kfB7VZ2A97iOfX/4N/zuuPPQWcikxAf6PlvsyxDy+s/Rvhs4Pw0WRxfPcJztCRUW+/zmvTvWXJKCFMmLTMCyGEMAkGOjEt4iumGdnXesbLfD/D2HPcmLD+cyYYeY61fxBPrw6i9tDU2gNWeyx5jy1Lap/DOXQmb4XOrL5x0dtsWVTXXRir0Z+F0etZWO+RaoasXMWWOvZa+wcxyz+IWQ24prV/MM+vDuZ5Yzt95/O/0Pm1Npc5dmboogUMrXVv8/neyPFCCNMgLfNCCCGEEEKYKQnzQgghhBBCmCkJ80IIIYQQQpgpCfNCCCGEEEKYKQnzQgghhBBCmCmZzUaYvQsXLvDTTz8pXUajHDlyhMLCQgD27dvHiRMnFK6oYSpqBlCp6l60RwghhBB3h4R5YbYqwmRqaiqpqakKV9N0GRkZZGRkKF1Go1lZyczTQgghhNIkzAuz1bt3b86ePat0GU1iMNxcYr1Xr1506dJFuWKawNLSEldXV6XLEEIIIe55EuaF2QoJCSEkJETpMpps8eLFFBQUcN999zFixAilyxFCCCGEGZIBsEIIIcyaqugc/wl+kjDfxwibswsdhlscrefirg28Fr6f3GrH1bX9bshGu/o9lqw9X7lFhY6I6bMJ81vEf5JK73I9QghzImFeCCGEWTNE72dfejFWaiuI3sXOpLI6j7WK+5F35n9HrK64Qdvvhrz1q3hzRQyJ+rv9JkII0RJImBdCCGHG8vh1069kqTsxbmpfrPTn+HpTktJFNYreyDYDjtwfvpC3Vz/LWA/5Uy2EqJv8hhBCCGG2LHJOsT0yAzz6cv/skQxysICIXRwtMvdWbjVOvr3oE+CDm0amgRVC1E0GwAohhDBbuRH7iMktQzVxEL1cO5MT0JZDuw+z8cCTDAxxqnbsmSUvsXjDjWlsI1fxpO8qCJ7HMpfNvGJk+3crh6OmPEgXxEWxcfUODsckcSlHj61HZ7yDQpg2dyQ+jjfbxSxyolkStJyYoBdY/4YHhz7ayNbd8aTkGLD26obfhEeYNaMPLqhQkcKXoeGsTy5vm89e8X+ErbDC9Y13+c9UNVunv8InWicmbXqHP3pZVl5DVZROzLof2RRxknNJWRRpWuPR05eh0x9hckjHypoBkpeGs2BdHqO/f4vJadv46rNIfovLJEfTmk7DhhA27zFCvGzuxP8aIcRdIi3zQgghzJKKi/yy+QzFdCJkQg/AjiFTBuJMAac2HKw1ENZ12CgemdATZwD3voyZHkpYqCdudWyvCMVZuz5j0dQVfLMtkTyPngwJ9qezJpPf1n3KoqnvsTPNyABV3VE+nfE3PtiUSIFHZ3y9HCiMjyVy2TJmLY1FjwEDTvSeMobxg9wAsB40nIenh/JIT/s679ky41c+mPgKb67YzSmdBp+ggQz0sydX+wv/m/8Xnl1y1MgA4GIyVr/Hwvkbic7Q4OLXBTdNNknbtvCvqe/yk7H6hRBmQ1rmhRBCmKVWccfZoc0Fv4cJ8y1vm1IF3M9Q9538FP0LW5LGVGvRdg4J43mPIk5tPkOWVyAzwoNxQAV417EdLNP2suLVnVygI0P/HU54kMuNs+WRtPoDXlsRxQfh2+m9bhzuVVrE0Uax328sr62exhAPawByD6zl5XlbubBpG3vn9mGMoxP+M6bTWXOJHTE6NEFhzJnT5cYJdEbuOJu9r65mR3IBrcY9y3tLg+lyowtOaVIk789Zyb4NH7LUbwXLJ7pUeZ6O49vA942l/HWqNw6oUBWls3Xe3/gkMpZV65N4aFH32/7/IYRQhrTMCyGEMEtnNx8gkVa4ThhE1xtB2qDpwejQrqA/x6YNZ277GonrdqDNLUM1dRaLgtpW2WOH95w5TPdzhJif2RhXcwYdN0LemFkZ5AEcg0Yz2tcectM5k9b4Pv2tkg6yKToT3INYXCXIA1h6DWPRktG0p4Cz6/aRXLN1PnhqZZAHMGjcCZ3ijz1AcroC03EKIZqLhHkhhBBmR1V0hh27fgcHXyYGd6i2r/vEYXRTqzBE7OLgbQyEVaEjXnsFcOGBYJ9qfdEBDLjQZ1B7QEdk9OXqT3boxgAvixrHO9LBxQooRt+Eugq0ZzivN0BAIIM0tfdbBATg72IJSXGczKh6fitsBnWvDPKVWz1cyrsWFRVT1OhqhBCmQrrZCCGEMDuGA3s5lF4CDunsW/Qmh6oF1TxyAXRH+XZ3DveHOtVxlvpkkpKRD+Swb8YT7LvFkQXp1wD3mxscbHGoFbitKh8VGpuPsh5Xddnl5/ByrfXGAsCgaUtHFxvQXUOXawDXm/tcHG2NnlONCoqaUIwQwmRImBdCCGFm8ojaHEsWQK6OszHG+pcDFHBu/UHSQ2v0Z280R7yDe+OuruscVlj72d3G+ZuZWukChBB3k4R5IYQQZsUy4wQ7DmSCw2AW7VrICMfaPUYtMw7yxvgPiNHuZnuNgbAN50gHR2tIt8Nr7p9Y4NuUczSfNi5OQDEkZaCnc63WeVVRJhd0BUBrnF1kbnoh7hXSZ14IIYRZyYzYxwl9GQwbylBH46G11NWf0cNcQJ/C9xvOoDcywLOufuIV2w240dPPBbjI4Qhjq8rmcWzJG8yf+hafHMhuyq0ANxvS6zuDjV8POqtVEH2YGCPFF0RHE6MrBS9fetTxugghWh5pmW+BLCxuvkdbu3YtGo2RkVJCcUVF5X+NCwoKFK5ECPOh4iL7N8dTjCP9J/ob7Ttezo4hoX1w3rabrIhdxCz05X4NGDS2WKkBXRo6oGICx7q2954+Et9N/yVu3acsDfg/woMqBtvqyYpYxycbTnPZoS+jezo0+Z7UmvJBsaRlo8dQ5z2VeN3PxIAt/DMyik/D/fBYOrza1JQrl+wgCxu6ThlKz9vqViSEMCcS5lsge/ubC46kpKQoWIloiPT0dKVLEMJstDpxkB3xheAyiNEBt165VBU0kqHu+/kp/SjfR2Ry/0QXyjzc6KCxIC7+J14JOoKT3ySWrwymXR3bXbxCWbgkkb8sieTQMwuZ4deL3u5qCpIT0cZfpVjtQt8lswlzbfoH3XY3ZpW5vOEfzDrQGpvpf2b1DGMLRzkx8u05nH7mX2zdtpIXY36kr58HmqJLnI1OJktvhf2E53h9qluTaxFCmB8J8y2Qs7MzM2bM4MqVK0qXIm5h27ZtABgMMr+zEA2j5+TmI6QABD9gdHrGqgyarowO6chP65I5u+kg6RMfxl3Tj5lLxpK1fD+n06+RpbtW3hJf13agw8QFrOzaj6/W7eVYTCJRWj1lLq50CR7MmNmPMc7f8fbuKuBhFsy+yKcbtFzQ5XEtOZsijK8CW+ranxfWLmXghu/YtOk3zh44SqFjazwCgnl4SihhIR1v8WmFEKIlkjDfQgUEBChdgqiHhHkhGktNjyX/ZMuShh/fNfwdtoRX3+ocOpO3QmfWOrqu7QDW/kHM8g9iVj1XLHMM4HXthjrrGbJyFVtqbXei76I/8/Gi6ltD131GqNFruDNwznwGzqmnGKBr+NJa91+h2Hcy78VNrv8kQgiTJgNgFWJtXb4qoF4v8/sKcScVFhYCYGNz6y4ZQgghhDmSMK8QJ6fyRUxyc3MVrkSIli0nJwe4+TMnhBBCtCQS5hVSESwqgoYQ4s64du0aAK1bt1a4EiGEEKL5SZhXSEWYT0tLU7gSIVquy5cvU1ZWBkiYv10qVZVBlTK+UjQ3lXxTCdFUEuYV4uXlBcCVK1fIyspSuBohWqa4uLjKxxU/c6JpKsb5AOgLihWsRLRExQXl627Y2toqXIkQ5kfCvEL69+9f+fj06dMKViJEy1Xxs+Xl5SUt87fJ0fHm9IuF+XWtnSpE0xTmlX9PydgWIRpPwrxC2rRpg7e3NwAHDhxQuBohWp6rV68SHx8PwMCBAxWuxvzZ2tpiaWkJwNWL1xSuRrQkhfmFFFwvD/MODk1fSVeIe5WEeQWNHj0agNTUVGJjYxWuRoiWZevWrZSWlmJlZcXIkSOVLqdF6NKlCwBpCZeULUS0KKnxFysfd+/eXcFKhDBPEuYVNGzYMNzd3QH44YcfZPEgIZqJTqcjKioKKH/TLB/dN48BAwYAkJl2lewMmYlLNI+EmHMAeHp60qZNG4WrEcL8SJhXkEqlYsqUKQBcunSJ7du3K1yREOavtLSUzz//HIPBgEaj4ZFHHlG6pBZjyJAhlQNhT+w5pXA1oiVIO3uRq5fL3xiOGDFC2WKEMFMS5hU2aNCgyr7zW7Zs4eTJkwpXJIR5+/LLLzl//jwA48ePx97eXuGKWg6NRsPYsWMBSDtzkZTTqQpXJMxZUV4hMRHHAWjXrh2DBw9WuCIhzJOEeRMwd+7cyqXmP//8cy5evFjPM4QQxvzyyy9ER0cD0K1bN2mVvwNGjBhROUjx0KajZKbJ1Lqi8cpKy9j7v0Pk5xQCMGHCBCwsJJII0RTyk2MCOnTowOLFi7G0tKSoqIh33323chYOIUTD/Pjjj2zYsAGA9u3b8/LLL2NlZaVwVS2PlZUVc+bMwdLSkrLSMvZ8EcmlpCtKlyXMSFFBEbu/jCQrvXxWpMGDB+Pn56dwVUKYLwnzJsLX15e5c+cCUFhYyIcffsiePXsUrkoI06fX6/n0008rx5w4OzsTHh6OnZ2dwpW1XN7e3syePRuAYn0Je76M5HRkPCXFJQpXJkzdxXOX+fnfe8g4rwOgX79+TJ8+XeGqhDBvrZQuQNw0ZMgQXF1d+cc//sH169f57rvviI2NZcqUKbi5uSldnhAm5+jRo/zwww+Vqyh3796dxYsXy1zVd0Hfvn1ZvHgxn376KdevX+fEntPEHU6gx+BudO3TEbs2MlZBlCstKSXldBpnohMrW+MBxowZw8MPP6xgZUK0DBLmTYy3tzdLly7ln//8JykpKSQkJPDWW28xePBg/P398fHxqbasuhD3Gp1OR2JiIpGRkSQnJ1duHz58OM8995yCld17unbtymuvvcbXX3/Nb7/9RlFBMbH74ojdF4dzByfsne2xc7LF0ko+BL7XGMoMFOQWkZ9bwJUUHWUlZZX7WrduzdSpU+nTp4+CFQrRckiYN0Ft27Zl2bJl/PTTT2zatImCggKOHDnCkSNHgPK5eN3c3Gjfvj3t2rWrtsy6MD/Xr18nISFB6TJMksFgIDMzk0uXLnHlyhWSk5PJzc2tdkyHDh2YPn06/v7+ClV5b3N0dOS5557j999/Z8uWLZXjfbIuZZN1KVvh6oQpadOmDaNHj2b48OFKlyJEiyJh3oQ99NBDPPDAA3zzzTccOnSIgoICoHzF2NRUmRKupUhISOD9999Xugyz4+rqysMPP0xwcLDSpQjKV4edP38+Op2Ow4cPc+bMGbKzs8nJyaGk5N7sS28wGFCpVEqXoRgHBwccHR1xc3MjMDCQnj17Kl2SEC2ShHkT5+DgwKxZs5g1axZnzpzh+PHjJCQkkJOTQ15eHnl5eRQXFytdphB3jLW1NXZ2dtjZ2eHs7Mx9992Hn58fHh4eSpcmjHBxcSEsLIywsLDbPldmZiZt27ZthqqUsWjRIqZPn242M7WY++stxL1KwrwZ6dGjBz169FC6DNFMnnzySaB8WrYXX3xR4WqEMD1arRZPT098fHyULqXRtFothYWFREVFmU2Y37hxI0899RS2trZKlyKEaAQZlSSEEMIk7d27l6ioKKXLaJKKumNjY8nPz1e4moaJjY1l48aNSpchhGgkCfNCCCFMTmpqKllZWcTGxipdSqPl5+dXq1ur1SpYTcOcPXsWgCNHjpCZmalwNUKIxpAwL4QQwuRUtGwXFBRw+PBhhatpnJqfJuzbt0+ZQhqh6qQKW7duVbASIURjSZgXQghhcqoGeHNrna8I8waDASgPyqbe2l01zB85cqSypV4IYfokzAshhDApFYNHK5hTv/PMzEzS0tIAqk1LaepdbWpOdxwREaFQJUKIxpIwL4QQwqQYC77mMhB27969QHmrfMW/qttNUX5+fuUbkAoJCQnSOi+EmZAwL4QQwmTk5+dXrnYNN7uqVN1myqq+EVGpVJWt81lZWSa72F/Vuipeb5DWeSHMhYR5IYQQJqNqGK4aLM2h37lWqyUrK6vW9or7MNVPFxISEoCbK9ZW1JuQkGB2g4+FuBdJmBdCCGEyqrbAV7Rsm0NXFajdKn+r/aakomW+ouaqr7m0zgth+iTMCyGEMAmZmZnVWolrMtUwDLXnljcmKyvLJO+hIswbe82zsrKkdV4IEydhXgghhEmoL+hmZWWZ7KBMrVZLQUGB0X2mPKtNZmZmZdegqnVWfRwREWE2swkJcS+SMC+EEMIkVJ0JpuK/NVuLTbXfeUMH6JraNJvGBuXWfM2zsrJMvouTEPeyVkoXIIQQQqSmphptIa6pIgzb2trerdIa5MUXX6z29caNG9m7dy8eHh48++yzJjt411iYr6u///jx4+9GSUKIRpIwL4RCHBwcKC0tpV27dkqXIoTiLly4QPfu3Su/zsvLIz09HQAvLy8sLS0r96WmpuLj43PXa2yqtm3b0rZtW6XLMKpijAKAs7MzhYWF5OXl4eHhwWOPPYatrS2enp4KViiEqI+EeSEUsmrVKqVLEMJkBAYGEhgYWPn1yZMn+eSTTwB49tlnsbe3V6q0Fm3y5MkAlYH9ww8/JD4+Hk9PT7N6wyTEvUzCvGiQ1NRUEhMTSU5ONtmFT8S9TaPR4OPjg7e3N927d8fa2lrpkoQwedLqLoT5kzAvbik1NZUPPvhAArwwCydOnADA0tKSxx57jLCwsFv2vxZCCCHMnYR5Uacff/yR9evXV9tm59Aap7btFapIiLqVFBVy5eJ5AEpLS1m/fj1Hjx5l7ty5tG8v37NCCCFaJgnzwqhvv/2WTZs2AeUBftjox+jU7T5sbKXfqjBtV9JTOBG1g3jtYRITE3njjTd49913pc+1EEKIFknmmRe1JCUlVQb5+wY+wMwXl9Gj7xAJ8sIstHPvxOhJs5k8+1U01rbk5OSwevVqpcsS9ygrKyulSxBCtHAS5kU1xcXFfPDBBwC4tO/IiPHTsGwlf4yE+XHv6M3Ih54CICYmhkOHDilckbgXSZgXQtxpEuZFNVqtlitXrmBhYcm4x5/DwsKy/icJYaJ8+gTg1bMfANu3b1e4GiGEEKL5SZgX1aSkpADg0aUHbVw6KFyNELevT8Ao4Ob3thB3Q3FxsdIlCCHuERLmRTXnz5fPBmLn0FrhSoRoHg6OzgAUFRVx6dIlhasR9woJ80KIu0XCvKjmypUrANjY2ilciRDNw9beofJxxfe3EEII0VJImBfVGAyGG49koR3RMtz8ni6ff14IIYRoSSTMCyGEEEIIYaYkzAshhBBCCGGmZAVYIYQQJkelutnVb9WqVVhams80uRkZGVy7dg2AhIQE5s6dq3BFQoiWTMK8EEIIk1N1saWkpCQFK7k3OTg41H+QEMIkSJgXQghhcrp06UL//v3Jzc1VupRG0+v1ZGRkkJeXR8eOHZk8ebLSJTVahw6yzogQ5kLCvBBCCJOjVquZNWuW0mU02bp16zhy5Ag2NjZ0795d6XKEEC2YDIAVogFUnGT12DYE+tgS6NOGh/6XXM8zLvDTHzxvHO/H3+PKKvcUff84I3xsCXxhPdkNuLZFziYW32d/41w1/7Vh+IAuPP7ww/x11TeczjHUf0IhhBBCtBgS5oVotCIyt+4k5RZHtEqNYPuJa818XQ12Lu1xrvavNdZFV7gQv4tdy2cy6w+LOSyBXgiT0aqVfAAuhLizJMwL0ShlMv36AAAgAElEQVSO2Duo4MRGfkmtOzRf2rWJWL0VanUzXlo9jHk/J7H1UHK1fztOXuXnL5YzwsMS4j9h4Yf7KWzGywohmq7qQF4hhLgTJMwL0RjqzgwJGYxaH8P6A7/XcdAFftkai95jGEO97O9CURqcBj/PksVTcQDYuYXTd+GqQgghhFCehHkhGqlryEP0UOvJ3LqTK0b2t0qN4Oe4bFQhf6Cv5u59xG7vdR/uqCDnCs3dwUcI0TjFxcVKlyCEuEdImBeikQq9xjPW1wlObGR7Ru2uNim7NnFG341Hxvvf1bqyko6RjgHadaL9Xb2yEKKmkpISpUsQQtwjJMwL0UhldGf4+L6o9TH8b9fFGnsT2L81Fn3Phwjzvzs/XqqiyyTtXMKrf/+eXDQwcTK978qVhRBCCKE0GWYvRBN0CJlIj3cP8NvWn7jyxDO0u7G91bkItsdlw/zJ9AK0zXlRfSQrx3qxutrGQvJ02RRVfOkXzscz+zXnVYUQQghhwqRlXogmKPEMNdrVJmXXZpL09zEtxO8OXLWIPN1lsqr9K6TUpRNeAQ8x8dVNfPPln+mnuQOXFkIIIYRJkpZ5IZqkI8PH9+Vf2iNsOXCRpya5U9HFprjHy4z1vgPvk9XBvHzoRyY4qpr/3MJsWFtbA1BUVFTPkUJJV69eBeDcuXO8//77ClcjjCksvDmJr0qlzO/V0tJSysrKFxWs+NkWorEkzAvRRDe72uzkyqQZuJ+LYHt8GTaLwuimdHGixXJycgIgNzdX4UrErWRkZACQl5dHQkKCwtWI+qibdVGQhsvOvrkOeOvWrRWpQZg/CfNCNFF5V5s3+e3IRvZlTCdg12bOqPswa3xPpUsTLVhFmC8tLSU/Px9bW1uFKxLGVLS2WllZ0aVLF2WLEbfk5uaGq6urItfOycmpfFzxsy1EY0mYF6LJOjJ8/CD+pf2FHw/s5NpWLfguYbSndIMRd46jo2Pl45ycHAnzJq5Nmza8+OKLSpchTFTVT9ikZV40lQyAFeI2dAgJpa+6mKR//5nt8Qbajw+jk9JFiRbN09Ozsn9vSkqKwtUIIW7H+fPngfIgL2/MRVNJy7wQt6HEM5SR/n/jaPRZ0tXDmBvSpeFP/uUlnhwaXsdODU7zt/H1E12bo0zRgmg0Gnr37s3JkyfRarUEBAQoXZIQoom02vIJjAcNGqRwJcKcSZgX4rZ0ZHjIQD6I3kmR/2SGN6aLjT6bLF12HTs1ZMlkJaIO/v7+nDx5kpMnT1JcXIyVlZXSJYk6WFjIB+DCuKysLNLT04Hyn2khmkrCvBANYOA+5vx8lTlG9rnM/IF9M409qztPfJvOEzW2aiZ9w75JDb92meNE3j15veFPEC2ev78/X375JSUlJRw6dIgHHnhA6ZJEHSTMi//f3r3HRVXn/wN/jYgzQAoWI3iJwbxwqUQThW4M6qqgFYQYSIm6XUS7aNp3tU3L/dGutpvEupm0qblaaCsolQWmpWim5Sha7YykJkMa0KCiNjCI8Pn9ceYMc8W5MjPwfj4ePqJh+Jz3nOv7fOZz3h9L9u3bBwDw8fHB3Xff7eZoiDejswwhhHiZAQMGICIiAgBQWlqKGzduuDkiQogtGhoaUF5eDgCQSqXo2ZP6Von9KJknhBAvNHPmTABcNYy9e/e6ORpijDF28zeRbmvXrl1obW2Fr68vpk+f7u5wiJejZJ4QQrzQHXfcoXtorqysDBcuXHBzRIQQa5w6dQqHDx8GACQnJ1N9eeIwSuYJIcRLZWRkQCAQoKWlBevWrUNTU5O7QyKEdODSpUt47733AAB+fn5ISUlxc0SkK6BknhBCvNSAAQMwa9YsAMDly5fx3nvv0fAOQjzU9evXsW7dOmg0GggEAixYsAB+fn7uDot0AZTME0KIF5s0aRLS0rjySJWVlfjggw/cHBEhxFhzczP+/e9/60pRzp8/HyNGjHBzVKSroMeniQF+ZkmAevdI19NVywSmp6fj2rVr2LNnD44cOQKVSoW5c+ciICDA3aER0u3V19fjnXfeQV1dHQBg1qxZuP/++90cFelKuuaVjdgtJCQEANBw6Tc3R0KIc+jvy/z+3RXNmTMHWVlZEAgEOHv2LFatWqVLHggh7nH69Gm88cYbqKurg6+vL1544QVMnjzZ3WGRLoZ65omB8PBwfPfdd1DV/OLuUAhxCtWvSgCAr68vQkND3RyNaz300EOQSCTIy8vDpUuX8Le//Q1xcXGYOHEixGKxu8MjpNuorq7G7t27cfLkSTDGEBQUhD/96U8IDw93d2ikC6JknhjgTzS/X72EqtM/IHwYzUpHvFdbWytOfvslAK6UY3dw99134x//+Afef/99VFRU4NChQzh06BDuvPNOjBkzRlfOkhDiXBqNBjKZDEeOHMG5c+d0r48fPx6ZmZm45ZZb3Bgd6coEjEofED03btzAyy+/jAsXLsAvoDdmPv9XiPxo3C3xTt/s3QHZwc8AAIsWLUJsbKybI+pcMpkM//nPf3Dx4kXda7169cI999yD/v37w9/fX/ev/XkZ4gz/+te/0Nraittuu003wRfpOtra2qBWq9HY2IjGxkb88ssvOH78uMF7Bg0ahKeffhrDhg1zU5Sku6BknpioqqrCn//8ZwBA6O1DMeWxHNzSp6+boyLENie//RLlnxcCAO677z4899xzbo7IPVpaWvDZZ5+hoqICp0+fdnc43QZjDAKBQPdf0j34+vpi+PDhGDt2LCZOnOjucEg3Qck8MWv79u3YuXMnAEAo8kdCUibCI2Lg509fExLP9ltNNQ7t2Y5fzsoBAL1790ZeXh5VdgFXHk+hUODMmTOoq6tDfX096uvrDXruiXNQMt/19evXD8HBwQgODkZISAgiIyMRFRXl7rBIN0TJPLFo165dKCwsNHgtoHcQAm/ruhVBiPe60azBbzVKg9eGDh2K+fPnd/kHX4nnmTVrFlpaWjBkyBDk5ua6OxxCSBdGD8ASix566CGMGDECa9euxS+/cNVt1NcaoL7WYPFvqBfKNp66vjw1Ln0dxejj44P09HQ88sgjHv85CCGEEEdQMk86FBYWhjfeeAPV1dX4+eefcebMGdTU1Jh9b0MDl+QHBQV1ZogdunHjBpqamtC7d293h2Li+vXrUKlUGDhwoLtDMdHQ0AAfHx+PXG88lUoFf39/3fAZPz8/DBkyBEOHDsWwYcMgEoncHCHpzuhLb0JIZ6FknlglLCwMYWFhSExMtPie1atXo76+HsuXL++8wG6ivLwcMpkMixcvdncoJjZv3oyamhqPWl+83NxcBAcHY968ee4OxaIXXngBEonEo2MkhBBCXI1mgCVOoVarcezYMSiVSqhUKneHo1NaWopjx45BrVa7OxQTMpkMjY2NkMlk7g7FgEqlgkKhwMGDBz1yvQGAUqlEfX09jh075u5QCCGEELeiZJ44xYEDB3Q/l5aWujGSdiqVCtXV1QDgcQmzXC5HfX09AO7bA0+iv648bb3xPv/8cwBAY2Ojx60/QgghpDNRMk+cQj+h8pQEUD+msrIyN0ZiSj82T/vmQP9mTP8mzZN4ww0HIYQQ0hkomScO0+8BB4D6+nrI5XI3RsTRT0Q9bfiPcQLqKQkpP3yFp1AoPGq9AdyNUFNTk+7/Pe1miBBCCOlMlMwTh/E9ufrVG9w99ME4KQXcHxPPOBkFPOebA34d6W9LT7nR4JmLx1O/QSCEEEJcjZJ54jD95IpPAt39YCI/ppoxpovJUxI+fn3px+Yp3xzo3/DwsXnKMxBA+4PWPE/btoQQQkhno2SeOET/QU6BQKCboMfdDybq32DwMdXX10OpVFr6k06hn4zycfEJqbu/OZDJZLpvDPS3pSesN55+0q7/7YGn3AwRQgghnY2SeeIQcwkon2S5a3iGcVKqHxPfY+8uxsmo/uyk7u5dPnr0qMlrnnKjwdMfBmS8bT3pGwRCCCGks1AyTxyiP2SExydZ7nowsaPE093Df8wlo57QA65Wq3Hw4EFdbMbcfaMBmD5oDcDgZsjTxvYTQgghnYGSeWI3/Qc59ZMq/WSws5NA4zHVPP3hP+5K+swlo8bc9c2BpXXiCeuNZ+5Ba8DwZsgTqigRoq9HD7rMEkJci84yxG7GD3LqP9DprgcTzT2Ma8xdQ0b0h4EIBAKTdQa475sDfjvpbz/j2MwNw+lMxjcT5mL0lOFAhPB8fHzcHQIhpIujZJ7YxfhBTnP/gM5/MNE4YTbHXcN/jJNR43UFuOfBYZVKBYVCYRKTcWwHDx50Wz13cw9am4vR3cOoCCGEkM7W090BEO+kUCgQFRWl+/+WlhacOXMGABAeHg4/Pz/d7+RyOaRSqctjsmYYC08mk3VKTDyVSgWxWAyxWKx7rbKyEm1tbejfvz+CgoIM3tuZbBk+09nrjadUKg32t2vXruH8+fMAgIiICIOhDHK5HNHR0Z0eIyH6LH0zSAghziZgdMYhTvDbb79h4cKFAIAVK1Zg+PDhnR6DWq02eIC0paUFq1atAgBMnz4dkZGRut8FBARAIpF0eoz65syZg+bmZjz55JOYMGGCW2PRd/r0abz22msAgLy8PISGhro5IlMymQx5eXkAgI0bN0IkErk5IkIMPfHEE2hra0NkZCReffVVd4dDCOnCqGeedBkBAQEGPbLNzc26IRi333479dYSQgghpMuhZJ4QQrqBzZs3Q6lUIiEhweJQqfLyct3D0MuXL7fYVm5uLgA4ta3s7GyL35bxbUkkEmRnZzvUFr8eOmpLqVRi8+bNVrfV0XrQaDS6uDpaD7R9OM7cPnK5HI2NjYiKikJAQIDFuAjxdpTME0JIN6BUKk2edTGm/zB0R/j3OLOtjh6udmZb/HroiFqttqktc+shNjYWV69exaBBg7B3796bxk7bh+PM7VNcXAyFQoHg4GCsWbPmpvER4q0omSeEEC+nUqlQXFyMmTNnWuyB5Hsv9R/CNiYWiztMAHn8e5zZVkc9p3xbN3vOxZq2+DY6aisgIMCmtsytB/4ZIqVSiQsXLnQY983a4tH2ge7vrWmLl5ycfNP3EOLN6AFY4hSe8ACssebmZsyZMwcA8OKLL2LMmDFujsgQPQBrP3oAtp1SqURubi4aGxuRlpaG9PR0d4dEiMdQqVTw9/enYTakS6M684QQ4sUkEglGjx4NPz8/SlgIMSIWi+m4IF0eDbMhhBAvN2/ePN1cBoQQQroX6pknhJAugBJ5QqynVquRl5fX6TNuE+IKlMwTQgghpFspKCiATCZDcXGxu0MhxGGUzBNCCCGkW0lOToafnx+ioqI6LG9JiDegMfOEEEII6Vaio6OxZs0aejiWdAmUzBNCiBdRKpWQyWSQSCSIjY21u50tW7ZALpdDqVQ6LTaJRILo6GjMnDnT7jbUajV27NjhkthiY2Mxbdo0h2Lj11t9fb3TYouKikJsbKxD9dBVKhW2bNmCqqoqp8fW0Uyy7o4tOTnZ7uOAEnnSVVAyTwghXkQul+vG+RYWFtr89yqVCnl5eU5NlHlKpRJKpRJyuRyLFi2y+aFcpVKJ1atXOzXhM45NJpNh2bJlNidy+vX8nU2hUEChUEAmk2HRokU2xyaXy5GXl+fS2I4dO4ZFixbZ/Pfl5eXYsmWLS2NLSEhATk6O09snxFtQMk8IIV6EH98bFhZm198XFBRAqVTCV+CD6N4DMcj/VogEjl8KNOwGzv5eh1O/10CpVKKgoADLly+3OTY+kU8MVWN44A34+bQ5HNvF5h44eakXfrjsB6VSiXfffdemxFStVmP16tW6hFQ2IByn+4oBHydcQjWNGHuxFkMu1kGhUKC4uBjZ2dk2xcYn8kFqNUacVUJSd9nxuABcuUWEk0PCoOwnhkwmQ1FRkU2TkvE98o2NjejRowd8fX3h4+PjlNhaW1vR0tKCtrY2HDhwABKJhGZ6Jd0WJfOEEOKF7BkiUF5eDoVCAQCYPnAsgnv1dmpMQ/z7YZDfrdir+h8UCgXKy8utHp5RWlqq+7ZgQfRlDOvT6rS4hqEV8eIW7Ku9geKq3pDJZFAqlZBIJFb9/YEDB3Q3GVtHS4EAZ6632/Bd6O1oOlWBu367gLKyMkilUqtj27x5sy6Rf/LTbyFijt/86NQ34e6qyyh6MAqVgwZix44dSE5Otnrf42Pr0aOH04e0+Pj4oFevXmhsbERrayuKi4spmSfdFlWzIYQQL5Keno7CwkKbe70BrqcUAAaK+jo9kedF9x6I4F63GCzPGlVVVQCAYX2uOzWR1zcutBnCHlzbR48etfrvZDIZAODHfgOdnMi3+yFylO5nfl1Yo7q6GgAw4qzSuYm8noe+rtT9bMvwLP7G0dfX1+kx8UQiEQCgsbHRJUPHCPEGlMwTQkg3wSdXribs4Wvz8vie76G9m10SEy/sFi6Zt+VGg08S60X+LomJVx/QB4B9sQWpm1wSEwCDmwS5XG713/HDkpw1tMacHj3a0xhbboIAbogSP+6eylMSb0bJPCGEkG7HlodsXfHwpjnNPe0f+Rr4u8aJkXgnW26CgPaHmnNzc6lXn3g1SuYJIYQQQgjxUvQALCGEEEK6nejoaLvKuxLiaahnnhBCCCGEEC9FyTwhhBBCCCFeipJ5QgjxIkVFRcjKykJubq67QyGEEOIBaMw8sai4uBhyudzmcnavvfYaBAKByev+/v6QSCSQSqVISEiwOy61Wo2ysjKbYsvLyzMbk3FsycnJiI2NdSi2LVu2QKVS3TQ2xhgEAgE2bNiADRs2WHxfcHAwwsPDkZSUhOjoaIdj46e1v1lcAPDiiy92uN6cFZtKpUJxcfFNYzMX45w5c8zGKJFIIBaLMW3aNKsn4CGEEEK8DSXzxAQ/Fbu9pbosJX+NjY26mr7l5eVYtGiRzbMCKpVKrF692qayctbQjy02Ntamqd55crlcN626Nfj1pJ+YmlNfX4/6+nrIZDIkJydj5syZNscmk8lQUFBgVWz6sXQUl3Fs06ZNw7Rp02yOrby8XDflu7WsiZG/MZDJZJg5c2aXmR2Sv2kSi8VujoQQQognoGSemOATeVGvXnjwzjsRHBSEMCckDorqalSeP4/K8+ehUChQXFyM7Oxsq/9erVbrEnk+trCQEAT36ePU2GQyGYqKipCenm5TbPqJ/MRRo5waW8WZM/ilvh6lpaUIDg62KTFVqVS6RP62Pn1wf3Q0xEFBDsfW2NwMZV0dDsnluHj1KoqLiyGRSGz6ZkOpVOLdd98FANweHIxRQ4dCEhICf6HQKbF9cfw4NNevY8uWLZBIJA59e+ApoqOju8TnIIQQ4hyUzBMDpaWluh75lzMzcbu4n9Pajrg9DACw9asvsaeiAmVlZZBKpVYPgThw4IAukX/z6Wfgr53G25mxrS/9HN/I5dixYwekUqnVvZ+bN2/WJfJ/yc52+npLvf8BrCnZiRNnz6K4uBgJCQlWf6vBx3Zbnz74x9PPOC0uABg1dBgmjY7Fvz4uQeX58ygoKMD69eut/vuioiIAQMSgQViSkemS2F7bshkXr15FQUEB1qxZ49RlEEK8l1KpxObNmwEA2dnZNByPeC16AJYY4KfDHjlkiFMTUn0zxk+AqFcvALZNDS6TyQAAD955p1MTeX1Z48brfrZlmFF1dTUArkfeVevt8fETAHBDgmyJjR+7P2n0aJfE5S8SIfW+++yK7dixYy6PLWvcOADckCCasp0QwlOr1brhlXRuIN6MknligB+L7oxhNR2R9OMSXv7mwRp8kujn4BCMjviLRLg9OBiAfbGFhYS4IiwAwG16w2JsSZj5bwxcuU35bzYAWH1R1P8Mjg6r6UjEoNvNLpMQ0r2JxWKkpaUhLS2NnkEhXo2G2RC3suVBVlsekHSEI73+zhgjb42u0IvUWZ/BVd/iEEK8m1gstunZKEI8FfXME0IIIYQQ4qWoZ54QQrwIP79CcHAwpFKpu8MhhBDiZtQzTwghXkQul6O4uBgHDhxwdyiEEEI8ACXzhBDiRcRiMaKioqiMHiGEEAA0zIYQQryKVCql4TWEEEJ0KJknhBBCSLejVqt1c4SEhYVZPREfIZ6GhtkQQgghpNtRKpXIzc1Fbm4uzUFBvBol84QQQgghhHgpGmZDCCGEkG4nOjoahYWF7g6DEIdRzzwhhBBCCCFeipJ5QgghhBBCvBQl84QQ4kWKioqQlZWF3Nxcd4dCCCHEA1AyTwghhBBCiJeiB2AJIcSLSKVSREdHU01sQgghACiZJ4QQryIWiyEWi90dBiGEEA9Bw2wIIYQQ0u3I5XJkZWUhKysLcrnc3eEQYjdK5gkhhBBCCPFSNMyGEEIIId2OWCxGWlqa7mdCvBUl84QQQgjpdsRiMdLT090dBiEOo2E2hBBCCCGEeCnqmSeEEC8il8uhUCgQHBwMqVTq7nAIIYS4GfXME0KIF5HL5SguLsaBAwfcHQohhBAPQMk8IYR4EbFYjKioKEgkEneHQgghxAPQMBtCCPEiUqmUhtcQQgjRoWSeEEJIt+Pv7+/uEJyqWUiX84CAAJver1KpdMPVEhISqDwl8Vo0zIYQQrqJzh6aY8vy+OT6fKNrk9KLGu6yZ0tsUVFRrgrHQPDvVwHYlpQGBwcDAGqDerskJmPh4eE2/01ra6vzA9Fqa2vT/Wzr/q1SqVBcXIzi4mKoVCpnh0ZIp6FknhBCugm+51F1/Ro0rS0uWYamtQWq69cMlmcNPhG7oPZF4w2BS2L7/rIvLl3nbhZsSUr52O6pO++KsDgNFyFsvWGwPGvw7/3+jjBoBK65pJ8e2H6jYM9NUEuLa/Y1ALh+/bru5+joaJcthxBPRsk8IYR0EwkJCQgODsb1thvYUSPDWfVvTkvqNa0tOKv+DTtqZLjedgPBwcFISEiw+u+Tk5Ph5+eHS9d74r3KW3D6qo/TkvqLzQLsq+mFzWe4pDQsLAyxsbE2x9anuQlj/3cUuHIJuOGkBFXTBNSdx9TKEwC4BNiWpJSf9Kjhllvw4eR7cHpAb6cl9VeFPfFDeF98Ej8KADB69GibbtCmTZsGgOs9b2xsdGoPfVtbG5qbm3U3CklJSTa3ER0djcLCQhQWFtKNAPFqNMiOEEK6iYCAAOTk5GD16tWob7qGz+pOuGQ5fn5+yMnJsWm4SEBAAObNm4e8vDycvibEP+VCl8U2b948m/5GLBYjOzsb7777LoZcrMOQi3Uuiy0nJ8emv5FIJJg5cya2bNmC2r5B+K80ziWxBQcH2xxbdHQ0kpKSUFZWhtbWVjQ2NroktrCwMN2NAyHdEfXME0KIF1GpVFAoFFAqlXb9fXR0NFatWuWyceBRUVFYtWqVXT2dsbGxWLlyJcLCwlwQWXts9jw7IJVKsWzZMt0YdWcbPXo01qxZY9dDmMnJyVi2bBn8/PxcEBnX671y5UqbHzAFgOzsbCxatMilsa1atcqu2AjpKqhnnhBCvEh5eTl27NiB4OBgrFmzxq42xGIxli9fDrVabfdNgTkSicThpEoikWDVqlVOj80Zwyiio6OxZs0aj41tw4YNUKlUTn2Y0xmxxcbGOj22gIAAmmuBEC1K5gkhxIvwPbf19fUOtxUQEOCxY4UpNvuIxWKPLbHoybER4s0omSeEEC8SHR2NRYsWUa8kIYQQADRmnhBCvIpYLEZsbCz1cBLiIH7CKEK8HSXzhBBCCOlWysvLUVBQgKeeeoomjCJej5J5QgghhHQr/APMEomEvuUiXo/GzBNCCCGkW8nOzkZ0dDT8/f3dHQohDqOeeWJW/dWrndK+LbWuXVUX21i19itXW0rs8bWnFdXVLonJmC1T0fNcuU0v2tF2Zz3AWflL+zbpqrWo1Wo1ZDKZu8MgxKvExsZ6bFUiQmxByTwxwCfMlefPu2wZlb9U65I/W5JSPmF2ZWwVZ06jqbkZgG3JJv81rStj23P8mO5nW2Ljt6krbzQO/vC97mdrL44BAQGdchN0/PRp3c9dtQJMXl4e8vLysG7dOneHQgghpJNRMk8MSKVS+Pn54eLVq/jXxyX4RfWb09pu1Ghw6H8/Ys3HHwPgpuC2pbd9ypQpALiE+V8fl9jVG9xRbHuOH8P6sjIAXAJsS48NP5V45fnz2LbvK5fEtnXfPgDcTJG2jPFMTk4GAHwjl+OTw984NbaLV6/ik8Pf4JMjRwBwszHago/tkyNHsOf4MTRqNE6Nbdu+r7CnogIAkJaW5rS2PYlarYZarQYAGvtLiB6lUonS0lKnTvBFiCcSMMaYu4MgnqW8vBzvvvuuS5fh5+eHV1991eae0qKiIuzYscNFUXH8/PywatUqmxOjzZs3o0x7M+Aqfn5+WLNmjc3DRdatW4eDBw+6KCpOWFgYli9fbnNsubm5UCgULoqKExYWhlWrVrl0Ge5WWlqquzkyh1/PaWlpSE9PN/seuVyO119/HQBQWFjoUFv6x2pHbWVlZQGAU9tatmyZxZtxvq2oqCgsX77cobb49dBRW/rr1Jq2aPs4f/uMHj0aixcvttgWId6OeuaJCalUimXLlumGQDgbn1jZM+QhPT0dixYtgp+fnwsi43rk7UnkAe6Bqrlz57osttGjR9uVyAPAvHnzMHPmTJfFlpSUZFciDwDLly93aa85H1tX11EiT0h31FnPWRHiblTNhpgVHR2NNWvWQKlUQqVSoaqqyuE2w8PDnVIGLDY2Fhs2bIBSqURVVZVTagRHR0c7ZapxqVQKqVTq9NgkEonDD28mJycjOTkZcrkcSqVSNzTDE2JLT09Henq602ILCAiARCKhh9v0JCQk3HT4mFgsturGypq2rF33/PKc2VZHxzHf1s2OdWva4tdDR+/RX6fWtEXbx3nbRyqVWvw2gZCuhIbZEEIIIYQQ4qVomA0hhBBCCCFeipJ5QgghhBBCvBQl84QQQgghhHgpSuYJIYQQQgjxUpTME0IIIYQQ4qUomSeEEEIIIcRLUTJPCCGEEEKIlzve8SMAACAASURBVKJknhBCCCGEEC9FyTwhhBBCCCFeyqOS+W8WjoBAIIAg8nns1nQwMe2pd3C/yAeCyP/D0c4Lz7X2P4v+AgEEmUWOtVP7HdbPTsP8I61OCevn/CkICH0M2xqsmCh4/4u6z9Ck9/K1Ex9gfuIL2AlHJhs+jdXxwRCIxuL1qjYH2vEM8qX3QyAQYVjBefsbsXWf0XyGacKeEIQ/jTKHtgWx16VNWegXOgl5nbAPt5X8EX4CAQQ5e12+LI/RUIipop4QRP4fDli1j/+A1SMDIRAl4M1a7z+vOMxZ1yFP0vA9ipY+jvGRA9BXJIIwKBTD4lMwb9M3uGTN32uOYtnIWyEQTsLaBiv2kaqNmBoUgND8M45GTojVPCqZ16l8D1OWHjJICIk1NPg8Jw1P/+cY1M5o7kQenlh6GANX/A2ZQQI7G/kaLyc9hXUVtbQ9Sbd36+y/4LXwCiyevQ4/ujsYQrq62r14Kv5BTH+jEOWa2zE2KQXT4gfjxolPUTBnPEIyP8TZDhvQ4Jul87D65GXrltdwEMsy/4zPrzinM40Qa3lmMo9mtBU8iXlHnJKSeoeRC7B13z7sXTHBoWY0TutxrcbGhatxOPwprJ89xEltEqdy0j5DOtMw5Kx6AlHlr2Dmpo7TCEI6XZc6p1zBV0ufxYbKZgTP+gA/nTqC3SUfobDsMM6d+gRPRghx46P5mL3J8rej6rIX8cQ/j0NjxdJaqnbhucRp+Ou3dc77CIRYySOT+X4SCUTNP+E/OUtxoKPhNl1J0HAkJiZiQmRfd0cCAGgsWYFXyi9i6MIFSBDZ2ytPXMrD9hliHZ/EF/FsnC9OrFjV8XBCQjpbVzqnNHyNjSXngMBJeCM/C0P0r2PhD2HNqmkIwlV8vW23+eE2tbvwTM5GnIuZiHGSnpaXo6nD1wVPI25kCtaebIZEEuLsT0LITXlgMi9EyMI8LI7pC5x8D+krHBtu83P+FPQVCCAIz8bHRuO+L5b8kRsfaOZ3hqqxNl4MQWA2PmmoRNHCh3BPaF+IREG4beRkzC44hF/N/t0V/LhtGbISo9E/yA8iURBuHzkZf8z/EmeNL+LmxiqWzUdfgQih+Wdw7cQHWJw6GoOD/CAMCsXQxAz8pezn9nVTtRETRAGY9vGvAKqx+d6eEAhikHOC/7qvDl8XPIcp8Xegr0gEgSgIYSOlmLa0ED+aJBTV2Jb/GWoDJ+HlzIGmH0tTjb35T2HcyMHoKxJBHClFZv6XOG/UDtv2OPwED2JtXTNwdTseF/SAIMTx8do9G06iaGE6RoXfCpEoCIPiUzDfGdtA+37ZpmXISrwHg4P8IBAIIAySYGhiBhaUyA33RX58bmYRVEfWYlpkMESiENyR+Kf2JK32INbnTMWo8P4QiYIwMP4x/KVMblVPz01ZHN+qwZmSf+g+c2BoBOJz3sE3tY0OL9I5x5N5v+ZP5cZ4z95l9phvK5vPtW/h95Y0bprGtdvRv9Bsu57pkC8dA4FAAN9V5gfNXOKXnbNXL+YwzMhJgEi5BUu2XbB5mc5w7cR2vJI5HlGhfSESiSCOjMOUhRshs7Dd6ve/h8Wp4xEV3pf7PNrjKDP/c6PjSPtsS/jT+LJ2D5YlDkNf7XnybydacXxhLASCCMw7cQlnSpbj8fgh6C8SQRgkwejMP2HzKXP7qA3HpI4GN07twZuZD2jPmRLclfQM3tj/s/X7jqYaX+c/hykj79COtZbgrqRZ+HuZDW1oY9E/Hn1DI3Df7Dwcqq3UrSvdObF2IyaIfCAY+Vczz4PVYWNiCASCGLxyymgYhw2xHl8YA4EgBq+eOIfPchIwOMgPvcNjkLzpbIdj5m3aZxqO4oOF03Bv5ACIRAIbx6nXYUfqEO64TP3A6Lx+Bd/kjNb+bkPHQ2Q0DCGJExCfmgKpmWGi/uFh6A8B0NBg5tpRhx05C1DYMBKvbnoZ94uEFhfTVvYyJs5bj+9F9+PpnYfx2cK7ILrpZyTEyZgHObTgbgYI2bB1p9mNw6+xUUIBg3AEm3f4d8M3Ktay+4Q9GCJeYt/dtNWf2AbpAAaA+S7Ywxr5l2uKWFpITwYMZ4/tq79JG0r2dlwwg3AMS4wLZhCGsXsynmE5s1LZqJAeDBCynhkfsAtGy/0gJYKJAAZhGBsz+RGWmZLIogJFDACD9HV24HJb+9v3zWehAEPG9vbXSuexIAhZdMpjbJRQwHoFhrG7pVJ2r6Qv1wbC2ISd2tgvf8f+vWQhS4voxYA+7J6MF9gLS/LYFzWtjLEG9uWsO5kIYD0kY9nEjAyWkZHE7pX4c+3EvW64HhV5bBQEDJPXs4vGq6Lpe/a2dn32DBnBJqU8xh6VRrEgCFlYRAQL0n6GRsYYq/gvW7pghnY7DmdTFyxgz64sZmduus3M+Ym9GXcbA/qxiIi+DMJ+7M7Jj2nXqYABQtYjY7tj24DVsuKMKO79gcPZgymPsYyMFJYY0597DX3YyPf1or/8IZsi9GGQPsbSJL7abQKGuDe5z3juA93rfhEJ7JGMFDYu4lYmRD8WERHKACEbuu4Xu9YGY8z8PsMa2KEF8drP3I+NmfwYmzE5noULBUwQMYINhoBB8hQrZW0Wm+2YM44nC2q06zNkOitsMo6vgX2WIWFAGHts3+9m/9ySlsPvsYVz57K5Jv9msXGSAO2+8LZ9+2XFau5YiXmd/WDyy1r24eRQBgxn2YdvGP6qZgMbL+zRvq+4QOvOOdx+MHePwevnd85lUUIBA/qwgXGPGO7jEdPZ++daDd5/Zt2j3H4m7Mfulj7CMjIy2KPSKBYqFHDrblaR3nlCe5yGTGQzpP3aj4nAh9mGy23s2ILRDAhjkzISWRDAbpGMYGOlcSwyxE/7vonsHYPl23lMBg5nkSE9dH/DnaPAgH4sdt2Peu1/z96M6cMgfJD9o0ZvuU3fsTelYbrz3MSMDJaZci8LFwoY0I/dvfLr9n2/Q3rHY+Bw9kDGMyxnVjJ3zoqYxMZF+Boej/x+EfO6mWtbLdsg7ceAEezPCr39ycZYjy0YwYDhLCVllHYdcuvlodJrFs4pNu4zTd+xV2L6MkDIbo2ZxB7JyGCZKYksXHueNjhvWKI7n/Rrv8Yxxn4vXcCiIGAImc421rR20MDNXXw/jYs/ZYvJde78+2ksCH1Y1Fs/MMaOsmURAQy9JrK3L5su88a+N9mMlcXsR+215MJbf2AiCFnIW6cdio8QW3hsMs9YEzu25D7uYIt5iZXrX9xtSuYZY+c2sPGBPno3BrXsg5Q7rD+x8Mk8wBD4IFtWoZdM1Oxhz8YEMqAfu3erSvfy2bcmaGN/mn2kf6K7fJK9PTlcexH8tP0kYjGZBwOELHjWB+wH3TpoYMeWJHLtS/WTgSZWnDKAAWGGycO5d7j1FfMSO6q/Hpu+1yXID5Ve073c0cno7Mrx2uUaJsL1pQu4pF0/mWeMMXaQPRsiZOgznX1odwLJWHsyz22D5Yf1Tr/nPmVPRvQxOfHbug1u7FvIJbsRT7MSgyS/qT2hiXuzPWnjEweAIe5ptr3iArty7gT7suJXxiVygxggZGFzP9W7yWhgspVJuu3q7GT+xuGl2ovdRJanUOtev35uO8uS9OJidSiZZ044nixpYMUpYQzowybqHUuMMcYuF7G0wJ4MEc+xcof2o3b1O+dyCY9kOttmd2LA75cj2NwKCwm72fPUT+zNmFtNk0gnMpvM6227zNLzeu/W2y/1b2z49S4cY9Kp0lKxmjuv9JrI1uo+g95xGvIge770f6ym5hw7vE/OLjKmTea5jojEdbL2819TJXt78kDud0uO6pbh0DEZ85y2M4Oj2vcn7hwVOJGt1p0PzCXzTezQ3Lu4Nia/bXDOvK4711h3U9l+PD7M3jnXfjxy5yyR6fFoczJve6xcMq/tDHprL/v5cg2r3HeYu76Yuw7ZuM+ot2YxEcB6z/3UMElWrGdTAn0sJsXGLm6dzcUimclt+8t72JMSoWEnlr2aDrJnI0Qm1wwuzrXc553Mf6aOk3ljlMwTd/DgZJ4Z3OHftuRoe5JgazLPGLuwbip30ol7nX3xfgZ3kjC+SbCIT+aFLNLMAdpaOo+74Ejf1iZtR9liiYgBw02/VWCMsZoPuQuk/kWwo2Q+ZCbbaRwnf9EKmcl26JIbC8n84aVG8bW7WvEJ27h1J/v6HL92G7Rt9GPT97UYvfsoWxzhx4ARbJlx4sKa2i/ULk3m9fYPPeqdc7j1N3m93dvgl53LWGZKEsvaed70/U3FLK2XD0M/vQuvLnEw0/PK30BJnmJlJvtY+2dxbjLfxL6cNfzm68jRZJ45ejxZ1lo6j2srxfBbIb4X7Ta9RM8RLRVvaxMU0yTVVhfemmI2tgvrpjIRwHquNO2zZ6xJ+01DHzZh5zUzv3ecuWSeP0Z7LDho5qaLP88Nb78xUWxn8zKS2INL9pp9P5dc6r1fb98eZOZz684RZnpDW3fO4fYpvd/Zf0yaubnSnaOEetvETDJ/WXtuCHxY7yZFL07dPmr6GYyXxx+P5o5zs8ejrcm8HbHqknnduVKPmeuQrfsM14kiZMKVxsdqE/up9D+scOdX7IxV54laVpwxhPtmc0ER+2xWtGknmF2U7IOUCO1+uN7wmzG+gyvkYb1viCiZJ57PA8fM6xGNwV8K5mKU8Dou5j+JRSfsr24zIOcdvDl5IPDtMkya8xFqhWOwbNMK2x7uFI7F46l3mLzcI3Eq7gvsCVSUo1zDgFPf4XDtdSDiEWTG+5u2EzoVjyf2A65/ix1HrBjHPFJqGmdQCPoLewCXNTcfvxk5AeNDfIHyxRidmI2XCnbiUBVXaqv3yIcxJzMV94f7ad/8G85V/Q4IJRgWarTMqqOoqGoGIhIwcaTxriPCPakPYjBc/LCscCyyk0y3gX/SQ7ivlw9weLfd22BQai62lpTiw1T95wQ0qKv6Dnu2leGcoA3QNJuu7z4xSDJaH41Hvsbx5jYgMcXMPjYMj6ZG2fzRb+409h25AAhHWFhH0zAh0NcpS3LK8WRGj8QsTJOIgNKPsE1X97saJZu+hkY4Bi/OHuVw7Kjdi5zMP+OrK7fhwYKteCc+wKHmBmROw33CHrhY8pHeOOdq7Nz2HTTCMVhhdluLEB4uBtCMH6tqHVq+9apx+IgSQBiyU++Fn8nvwzAuMRyAEiX7z3EvRabjnW2lOLBqgsH7r9dW4ruSEnxZewUA0GTyEEgIxida2seFCEmMx61Gr/bgxzBrmnXPlNh9TEZMwpMjfYxe5M5RoWjGjf3fWnjGBmg78jW+unIDiE9BaqjpJbJH4h+4c82RL1De4XMWp/HViV8B4QjMTuxv8ltnHI/2xypEz8Q4DLjpEmzfZ+6IH4PBuI7mFVMxOnMBVm/bh/81MAAiDEvKxozUcYYPo1oUgrT8fDwe4oumf6Zj6n/kQMTT2J0/1WTfsZrmJ3yYORlPfVwJxDyH3Zv+iPZabRocX5GDV771wX356zAv3LPTI0L0efze6hP/Gtbn3ANR8/coyMmHzO7qD2F4suAVjBdyH7lHTh7+PNLGi7gwFHeEmzkJiUIQGtoTaK5FTS0DaqtR08yA8EgMNZvcBiI8PBhAM5S1DTdfblCgmZOXECI/Kzdf0B/wz21LMS7EB7XlW7B6XhoeGNwf/pFSTFu6EXur9G8orqCm4ToAEfoaPzRUW41zzQwIjcRAc58rfDj6C12czLNQDDG+yQAAURgG9/cFmmtxocGBbaD5CXvzF2NO6jjcGzkYfUV+CB0ch0lz3kNFs4V9r28IBho98VRbqy1PFhpq5gIIhIaHueAhqd9wrvY6wELR3+w60u6nTuGE48kc0QP4Y+ZdwPUDyC/5mXvt1C5sOFIPxM9CZqRxgmYjzU9YmzkLGyqbMWDBhyhxRtnV0Kl4MrEfUPkJNvAPnFd9hsIjF4H4DIsxB4UGQYRm1FlzDnCKaihqfwdQjU3jepp9EPjON2QAmlFncINxBT9u+wfmZyZj3Mgo9A/yg7B/JOIeXYDCymbzixKGYFCQ5UhCg8z/UgQAGqM7A3uOyfBImHl0HwgNwx3CHkBtLSw9etxQW8fdTOx+CgPNPSztNw07rrcCl2vxa4cPev+GWt3xaOZcLQpDeLjlByut4Uisd4aGWrEEO/aZ+New/a3pCIcKxz9ag5dmjMddfflCBZ+bKbjQgdCHsCY/Hdze0g8P5edhkr1znjQcxZupk/DER6egiXseu/evMWirdf8KPJF/GC0Za7HdXOEHQjyYs67sLiTCPavy8WzZQ1j9bS6m5U/G2VT7Wrqwfy/XWwqgrWwzDjbcb/OJwVxiBgDQnqDaRABg4QKn/3YNF0eANRmdyPG0LyDxL/iqaj5+KPsYW0tKsH//ERyuPIAdbxzAjvx/Yk7ZV9iYeJuDSxG6/yl+JgLXD2/HNqgqwuOJc1Co/B0IDMPdI0diYuJjiI+Px73xv+PNmDnYYa4hO7aPxf3IpYTwc+L9uzOOJ3PumZ2FUW8sRsWmj3E2ZzEEJVvxTfMtiJmdAsdS7yv4amEmXir/FZC+jd35f7C/h89ACFJnj0fQ7kK8t+kwCvIfwM8lxTje7IuhmRkWY+bnhHD0qLNdP8SmJHbQOypCYLy2NKHmJ2xInYyndlcBwkAMGxmDMakJiBgZj3HxUTi39BE8V26+FT9nlLS195jsQJN2vVs+l2vPHRGTkDHSconGNtEIDOvwm0ghRB3+XoS+Nh2PZs5pDsTqb9Npy4Z9BiLcufAjnJudiy9KSlBSUoL9+yug+PYTrPv2E6zLn4lt+zchw9wNjokrOFJ2Etzt7m/YtakMvyalW/GNgqGWqiLkpD6FjSevoO/kN/FFySLEGnyWK/g4fwsUzb1wy5FcTBn5ut7vNKiragSuf4u/x9+Df4skmL1tJ16M9Pi+UNKNeEEyD0D0AN4oyMHnSX+HYsV8vBGebnsbVR/imYUfoyFwLDITL2Hbx+8hbeljqC6w4YLeXIuztQww7vXUVONcTQsgCsfQIAEQOgz9hQKcqzqFM2AYYHJCv4La2ksAhLg1tIPuK2cTheDu1Gdwd+ozAICrp77A5hUv4f8++h7vL92EV44sxhAEon+QP1B7BZcbGKDfeRM6DIO1n+sCGIYYf67a01xvuCsJtD3vxtugQandBqEYYNc2uIIdCxejUNmC22YV4duCNMMLV0MhNDbkJqGh2lrDVVVoQqxJ4lBT+5v1jVmtHwaH9gKqavFzVRtg3COs+Q01NdcBZ5SQdsbxZEnkNDwpXYnnjnyE/56aAPW2E0CfZLyQ6lhv2dmCOZj2bgU0ETPx8bZ5uMvROPX4J2VhauB2fFj2MWQaMco3VUDTKwEvplpOOzS1V6CBEOGddg4IweAgf0AZhNErClFgMgzF1K+bFuG53VVA3PP4oiQfEw0SsNNY69I6+Q4ck9qed5O1X3uGO0eFhlpMCINC+0EEQBM5E+9se8KB/TkEg0MDgDolzta2AUHG67sO52qbYbYHRGPu25or+LnBcFim82K1xPZ9pj244Zg0+0+YNPtPAK7gl/2fYMXCRdh4cgsy819AxqrYmzbRWPIinvuPAoh4GI+KyrHzo2cxJ/Ve7Lah5/zGiQ1ITcrB53X+kMwtwpcF08zeYHOdO834Xfk9TirNtXQV1ZUnUY0mVNL8EMTDeM2tpU/iCqyfPQpoPoq/LHwHPze33fyPdKpRmLMUn1/piUFLN2DTpnV4UiKE+t1nMW//ReubaT6JD8pMR1o2lu3CN9dbgXHase2RY3FvaC+g8hNsPWFmTHztZ/hw/2+AMAZTRpoZz+1kF7bNxajw/ojKP2Pwep/ISXgufyHuE/YAaqtwAQzA7YiK9Aeaa/F9ldEJK3wM7o30B5RfYKOZsf7y/V9DYWkMqVMKqwNoPokd+00rFTeW7cBXDm2DH/DVkTpAOAJzl6aa9EC1Hfkax5tbrf4g/vETuPW6/xMzEwNVo6zke6etknbDkJw4GGj+HhvLFCa/bT2yC19dveGE5TjpeLIoDDNmPwhR8/f4b34+Pj+lBh7NxgwHev3VZQvx8MISNASOxbJt6/CIVb2CNgiagD+mDgYqv8DWkhLsONUAJGcj0+JyNKiqUgEQYmikNcMdnGEY7o0fAOAnFG2rMPP7K/gsJwEx8ZPxfNlFABqc2H8SGggRk/OqUSIPoPYoPj91Gc47uI05cEye2o3dVcbXCA2+2XYAtRAiJElqMfHtEf8A7hH2APb/FyXmhtGceAdTRsbjvswNMD+7AG8YxiUOAlCJv5eYOR7378JXddcNXxQFIogJgIY6XDA+b9QexWGjOvzOi9XyZ7Btn7mCLxdKERUag/lH9GvhB+L2xJlYv3QSd+9SVXXzRdfuwtMLP8Q54TDM2rQV2wtexCihCl8sfBHv11p5/a8qQkbqPHxedyvuXvk5jltI5IFAZJXVgHFFQYz+HcWyiACg10S8fbkVjFXadlNDSGdw6+O3Rkyq2Ri7fEBbTkpbG9fKajYX1j3KVUnQK81Yz1cSiHia7b58syfr9UpTSh5m68yW/AtjGaXtVTH0yyJ+XGOhLGLGdutKU8761ExM2ioxvQyrxPAVMvTLZLLDr3Hl0STT2Sb98misiZ19K9mkggRXncN8NQqu/i5X9k3/c107/Cq7N7CHmWo22qoywgf1ysFxms99y/bt28f2Ki6Z+XzG9EreGW8DxRZtPXfDEmy2bQNtVQv0YQ+8b1h54rpiO8uK6M29v5deDXS+ckbES2bKJTawzzKG6sqKtldvaGI/rkvltrVJlYtadmLfPrZv33Hrqj2Y22f4coHG5Tt1JVRNq9nYth1sPJ4uV7Ij+/axrw7LbatAwZdE1JbQMy4DaFPMivVsSkhPBoSxP5irimKybPti5iuHSCR8lZqOyud9r6uQYa4KiTOYLU2pyOP2D+EINqNUv45HEzu/dTZX9SqwPaZDcyPMVxC5fJKt5yuCIEyv8pX2OBWOYbnnTD8XX00m5n2Vye9YxWtczX5d1S0Hjklt2V79Uo26WukhD+vVKDdXmpI/drXlHg325wPslbiQDqq7GDn3DledJnAse1Z//gWLx6N2v0AfNvatH9rbN1jf+qUpbY+Vq2YjNLxG8MydU2zcZ7hqLmCYbLj+GVNqq9OYrwpnqJZ9lhHFALCAuXu0+14TOzT3Hu1523heF3OU2jkxhEy8xIptZRFVsyGez7uSecbY7/sWcomptcn8uQ1cbVvhCDbLoAQdXxtb/2RhCZ/M92ESiZ92AqL2yXiAPmzAAuM2fmIfZETqTVjETXCkmxwl7nnDpMdJyfzZlQ9w7QsDmUQygs07fIMx1sC+nDvKIJaMjBSWHDeYey3kQZan0DtJ8Sdvc6XLmNJkEhd+Qpa+cXHcid0gmefLqYEhsB8bGPG0rsym+VKWlvBJwggWF3eb2W0wbMlBh7bB+ffTdJPjRKdks7lzZ7EZk0dxk+OEaCehMSphZzmZZ4xdbr9g95CMZY9kZLDkmAFMiD4sLi7SNJm/XKQrq2cwKYwlZid4aTKZ5Ec3sVbEWHZviI9JMm/TdrD1eOL3YZvLYfJl/WC2trz1MevtfyFj2SMZKSwlZTKbPNn432Psr3wpQ3tjbjrInpVoOxvMlZPVxyd59k5WZQVLk0adeT9Te8wI2cC4Sdy5IGaA7jiZtFUvoorV2pt0IRsQN51lz53LZmeM4/YnYRg3gZtBeU1nJvOOHJPcvt4+sd0d3DY1qZVuYdKoywfY4jj+vMWd59onqANDnPVlWM9vna07Rw3ROx59QyRmS8XqOkwgZMERCUwqHclNuCR5mM1LGWp6frAxVpuTeWbjPtP0ne4momfICO1EX0ntkx1ase50nQN8jXndZ+Vrzfdj923t+MZcVzIaQtYnJISFWPh3m/RNMxO+6aNknng+r0vmucT0LiuTeSVbr52IxOxkNnxictNZK9tngH3t8Ddsy9ypLDLEj/UKDGFDpDPZitL/WUgoGtgP7y9mM+KiWGigiPUKDGFD4x5h89Z9adrz6qRknl3+jv0jZTR3sRP205t8p4EdfX8xe1QbC4SBTCwZy6bOXc0+Meit5z7vBmm/DnoNa7m2YgazIKGQ3SIZwZKWFLFTire5mwCjBKulYj3LiruDm4E2pH3CFruS+T7T2Uc1J9iWuX9gkSF+TCgMZEPjprO/7HTCNmBN7IetL2k/F3dDFBwxlk1ZsJZ9UXNJm1zqfetxs2SeMcYun2Tbl2Sx+Ij+TCgMZLfGTGJz35ex81tnMJFLknmOat+/2PzJo1h4oIj1CgxjozL+yvaeO8JdlOxO5u04nuxO5ttry5vWq7YlZr1vdDr814c9VNricMy6uGZ92mFcF9ZNZUIzPc7OZCmZZ4yxa4c3sxczxrHIkCAmgpD1DBnORqc8z/592LRb49rh99j8yaO05w0hu0UynN2f8X/s3YqL7OLWGdy6msvvD85N5u0+JievZ1WK/7JFk+/RHvdhbHTK82xzhfHns5DMM8ZYk5LteetJlqw9zwmFgWxQzCSWuXKXlXXSTdeh/vG4S/Ffrk6+yX7WxE5vfYU9Gsctt2fIcHbvrNXsi5pG7fozc36wIVZ7knnuM1i/z7CmSrZ9SRYbFxFuEM+MlcV6kx9aUPMpezzElwH9zH6TpqvPb/ANi6n/LYm14riHhZr++iiZJ57Po5J5z9WezL9uTZLVBah35rBQq74OdczZlQ9YuFnpppp2saw+Yzt9P3Ppdti3hA20eebWWvbh5FCLSSFjnhiztbSzv5qdUIx0G027LCTzhBBiG695AJZ0Lv/Ul7FM2genCv6JAy57cr8apWU/Y1h8pIva9z7q/btwoG8MYjt1whJXbgcNjpcdxIXIONxl9YRiGlzY9ipe310HJL2AP5pdF54Ws/Va97+DtSdbEbPiNUx2RvlGQggh3Rol88SCMMzNX4pRVVuwYNvPLlnCrwXz8f80vQz+hAAAAQFJREFU87HeGRP3dAWar7FkYTmiVy3p1CTPpdvhxCo8ue0W5K1Ks6JsXjU2Jg6ESBSEQTP+DYUwFstWzDBbQtBzYrbVaRSs+BDnpMvxwexBTm+dEEJI9yNgjFHB1Juqxtr40XjuxGC8fuIwXnF0FkqvocH/8tMwJv8WbDzxETKdMCGQYfMaNIlEbppAyTNpNBqInDBJmI0LdeF20ECjEVk5r5YG3yx8AFMLfkTPcClm5G/EmiQL9aQ9JmbbXNqWhciF9Xh5fxlNOtPdaT7DtMAU7Og/B6VV/0aSC74FIoR0D5TME0IIIYQQ4qWoa4gQQgghhBAvRck8IYQQQgghXur/A295I0sUj81bAAAAAElFTkSuQmCC;" parent="1" vertex="1">
          <mxGeometry x="180" y="100" width="507.56" height="560" as="geometry" />
        </mxCell>
        <mxCell id="_VCWlOfx9RqQ-ZVbT4Eu-1" value="&lt;font style=&quot;font-size: 13px&quot;&gt;&lt;b&gt;Transformer&lt;br&gt;编码器&lt;br&gt;&lt;/b&gt;&lt;/font&gt;" style="rounded=0;whiteSpace=wrap;html=1;strokeWidth=0;strokeColor=none;" vertex="1" parent="1">
          <mxGeometry x="160" y="210" width="120" height="60" as="geometry" />
        </mxCell>
        <mxCell id="_VCWlOfx9RqQ-ZVbT4Eu-2" value="&lt;font style=&quot;font-size: 13px&quot;&gt;&lt;b&gt;Transformer&lt;br&gt;解码器&lt;br&gt;&lt;/b&gt;&lt;/font&gt;" style="rounded=0;whiteSpace=wrap;html=1;strokeWidth=0;strokeColor=none;" vertex="1" parent="1">
          <mxGeometry x="600" y="230" width="120" height="60" as="geometry" />
        </mxCell>
        <mxCell id="_VCWlOfx9RqQ-ZVbT4Eu-3" value="&lt;b&gt;毫米波雷达输入(mmWave)&lt;/b&gt;" style="rounded=0;whiteSpace=wrap;html=1;fontSize=13;strokeWidth=0;strokeColor=none;" vertex="1" parent="1">
          <mxGeometry x="200" y="640" width="220" height="30" as="geometry" />
        </mxCell>
        <mxCell id="_VCWlOfx9RqQ-ZVbT4Eu-4" value="&lt;b&gt;其它可学习参数&lt;/b&gt;" style="rounded=0;whiteSpace=wrap;html=1;fontSize=13;strokeWidth=0;strokeColor=none;" vertex="1" parent="1">
          <mxGeometry x="390" y="640" width="220" height="30" as="geometry" />
        </mxCell>
        <mxCell id="_VCWlOfx9RqQ-ZVbT4Eu-5" value="&lt;b&gt;重建信号(Lidar-like)&lt;/b&gt;" style="rounded=0;whiteSpace=wrap;html=1;fontSize=13;strokeWidth=0;strokeColor=none;" vertex="1" parent="1">
          <mxGeometry x="390" y="90" width="220" height="30" as="geometry" />
        </mxCell>
      </root>
    </mxGraphModel>
  </diagram>
</mxfile>
